<?xml version="1.0" encoding="utf-8"?>
<!-- Generator: Adobe Illustrator 20.1.0, SVG Export Plug-In . SVG Version: 6.00 Build 0)  -->
<svg version="1.1" id="Layer_1" xmlns="http://www.w3.org/2000/svg" xmlns:xlink="http://www.w3.org/1999/xlink" x="0px" y="0px"
	 viewBox="0 0 18.4 70.5" style="enable-background:new 0 0 18.4 70.5;" xml:space="preserve">
<style type="text/css">
	.st0{fill:#FFFFFF;}
</style>
<g>
	<path class="st0" d="M18.1,0.4l0.3,0.3l-0.4,1.5c-1.4-0.3-2.3-0.4-3.4-0.4c-4.2,0-6.3,2.3-6.3,7.7c0,4.9,1.7,12.3,1.7,16.7
		c0,4.6-1.9,7.6-5.8,9.1v0.2c3.9,1.5,5.8,4.5,5.8,9.1c0,4.3-1.7,11.7-1.7,16.7c0,5.4,2,7.7,6.3,7.7c1.1,0,2-0.2,3.4-0.4l0.4,1.5
		L18.1,70c-1,0.3-1.9,0.4-3.3,0.4c-5.5,0-8.3-3.2-8.3-9.4c0-5.1,1.7-12.5,1.7-16.7c0-5-2.6-7.7-8.3-8.4v-1.6
		c5.7-0.7,8.3-3.3,8.3-8.4c0-4.1-1.7-11.5-1.7-16.7C6.6,3.2,9.4,0,14.9,0C16.2,0,17.2,0.2,18.1,0.4z"/>
</g>
</svg>
