<?xml version="1.0" encoding="utf-8"?>
<!-- Generator: Adobe Illustrator 20.1.0, SVG Export Plug-In . SVG Version: 6.00 Build 0)  -->
<svg version="1.1" xmlns="http://www.w3.org/2000/svg" xmlns:xlink="http://www.w3.org/1999/xlink" x="0px" y="0px"
	 viewBox="0 0 1920 949.6" style="enable-background:new 0 0 1920 949.6;" xml:space="preserve">
<style type="text/css">
	.st0{fill:url(#SVGID_1_);}
	.st1{fill-rule:evenodd;clip-rule:evenodd;fill:url(#SVGID_2_);}
	.st2{fill-rule:evenodd;clip-rule:evenodd;fill:url(#SVGID_3_);}
	.st3{fill-rule:evenodd;clip-rule:evenodd;fill:url(#SVGID_4_);}
	.st4{fill-rule:evenodd;clip-rule:evenodd;fill:url(#SVGID_5_);}
	.st5{fill-rule:evenodd;clip-rule:evenodd;fill:url(#SVGID_6_);}
	.st6{fill-rule:evenodd;clip-rule:evenodd;fill:url(#SVGID_7_);}
	.st7{fill-rule:evenodd;clip-rule:evenodd;fill:url(#SVGID_8_);}
	.st8{fill-rule:evenodd;clip-rule:evenodd;fill:url(#SVGID_9_);}
	.st9{fill-rule:evenodd;clip-rule:evenodd;fill:url(#SVGID_10_);}
	.st10{fill-rule:evenodd;clip-rule:evenodd;fill:url(#SVGID_11_);}
	.st11{fill-rule:evenodd;clip-rule:evenodd;fill:url(#SVGID_12_);}
	.st12{fill-rule:evenodd;clip-rule:evenodd;fill:url(#SVGID_13_);}
	.st13{fill-rule:evenodd;clip-rule:evenodd;fill:url(#SVGID_14_);}
	.st14{display:none;}
	.st15{display:inline;}
	.st16{fill:url(#SVGID_15_);}
	.st17{fill:url(#SVGID_16_);}
	.st18{fill:url(#SVGID_17_);}
	.st19{fill:url(#SVGID_18_);}
	.st20{fill:url(#SVGID_19_);}
	.st21{fill:url(#SVGID_20_);}
	.st22{fill:url(#SVGID_21_);}
	.st23{fill:url(#SVGID_22_);}
</style>
<g id="sky">
	<linearGradient id="SVGID_1_" gradientUnits="userSpaceOnUse" x1="960" y1="482.0815" x2="960" y2="70.8217">
		<stop  offset="0" style="stop-color:#61C3AD"/>
		<stop  offset="1" style="stop-color:#1B75BC"/>
	</linearGradient>
	<rect class="st0" width="1920" height="468.9"/>
</g>
<g id="mountains">
	<g>
		<linearGradient id="SVGID_2_" gradientUnits="userSpaceOnUse" x1="692.6226" y1="662.7678" x2="692.6226" y2="315.8305">
			<stop  offset="0" style="stop-color:#745CA7"/>
			<stop  offset="1" style="stop-color:#0D1138"/>
		</linearGradient>
		<path class="st1" d="M156.2,381.4c0.6-1.4,2.2-2.7,2.7-3.5c0.6-0.9,0-1.3,1-2c1-0.6,1.7-0.5,2.3-0.3c0.6,0.2,0.9,0.3,1.7,0.1
			c0.8-0.1,1.5,0.6,3-0.1c1.4-0.6,1.6-1.2,1.5-1.7c-0.1-0.4-0.3-0.8,0.8-1.1c1-0.3,2,0,2.6-0.2c0.5-0.2,1.3-0.3,1.1-1.4
			c-0.2-1.1-0.8-1.2-0.4-2.1c0.3-0.8,3.6-1.8,3.8-2.2c0.2-0.4-0.2-2.1,0.5-3.3c0.6-1.1,2.1-1.5,2.6-1.7c0.5-0.2-1.2-2,0-3.4
			c1.3-1.4,1.5-1.4,1.4-2.8c-0.1-1.4,3.2-3.9,4.2-4.4c1-0.5,3.8,0,4.6,0.3c0.8,0.2,1.8,1.6,2.4,2c0.6,0.4,2.2,0.5,2.6-0.2
			c0.4-0.7,0.8-2.7,1.4-3.8c0.7-1.1,1.4,0.2,2.6,0.2c1.2,0,5.8,0.3,7,1.2c1.3,0.9,2.2,2.3,5.5,1.3c3.3-1,3.1-1.4,4.3-1.7
			c1.2-0.3,2.8-0.8,6.5,1.1c3.7,1.9,3.3,4.2,6.6,5.4c3.2,1.2,1.6,0.6,4.4,1.1c2.8,0.4,2.3-0.4,4.3,1.8c2,2.2,3.7,2.5,5.3,1.9
			c1.6-0.6,3.3,0.2,3.6,0.6c0.3,0.4,3.3,0.5,3.8,1.6c0.5,1.1,0.6,2.4,1.1,3.2c0.5,0.8,1.2,1.8,2,1.7c0.8-0.1,4.7-1.6,4.4-3.7
			c-0.2-2,6.6-3,8.2-2.9c1.6,0.2,3.8,2.7,5,2.3c1.2-0.5,5.2-2.3,8.1-2c2.9,0.3,4.3,0.1,5.5-0.5c1.1-0.6,2.1-0.8,3.9-0.6
			c1.8,0.2,3.2,0.2,4.3-0.2c1-0.4,3.1-1.3,3.9-1c0.8,0.3,1.4,0.9,2.3,0.6c1-0.3,0.9-1.1,1.6-1.4c0.7-0.3,2-1.3,3-0.3
			c1,1,3.9,1.8,4.4,1.4c0.5-0.5,1.7-0.9,2.1-0.3c0.4,0.6,3.1,0.2,5.3,0.2c2.3,0,2.7-0.4,4.2-1.5c1.5-1.1,2.7-2,2.4-2.8
			c-0.3-0.8-0.2-1.8,0.8-1.9c1-0.1,3.9-0.1,6.8,0.4c2.8,0.4,2.7,1.6,4.6,0.2c1.9-1.4,1.2-1.7,2.5-2.7c1.3-1,2.3-0.7,3.2-2
			c0.9-1.3,6.4-8.4,8.4-8.6c2-0.2,3.4,0.3,4.4,1.9c1,1.6,0.5,3.7,3.3,3.4c2.7-0.3,2.4,0.9,4,1.1c1.6,0.2,5.1-0.3,8.2-1.8
			c3.1-1.5,7.3-4.6,8.1-4.5c0.8,0.1,2.1,1.2,3.6,0.9c1.6-0.3,3.3-0.6,4.1-1.4c0.8-0.8,0.4-2.4,2.2-2.6c1.8-0.2,3.3,1.3,4.2,1
			c0.9-0.3-1.2-3.4,0-3.9c1.2-0.5,2.5-1.2,3.6-2c1.2-0.8-0.5-2.8-0.5-2.8s1.3-1.6,3.4-3.1c2.1-1.5,0.6-2.3,2.4-3.4
			c1.7-1.2,2.3-1.1,4-1.4c1.8-0.3,2.1,0.1,3.5,0.4c1.4,0.3,4.1,0.8,5.9,0.9c1.7,0.2,2.5,0.7,2.9,2.5c0.4,1.8,0,3.1,2.4,2.9
			c2.3-0.2,4.1-0.9,5-0.1c0.9,0.8,0.5,1.3,3.7,0.6c3.2-0.7,1.7-1.2,6.9-2.1c5.2-0.9,5.7-1.3,6.8,0c1.1,1.3,7.8,6.1,13.4,6.5
			c5.6,0.4,7.3,0.7,10.9,0.7c3.6,0.1,4.8-0.7,7.3,0.4c0.5,0.2,3.4,1.8,7.6,4c2-0.1,4.3-0.9,5-1.2c0.7-0.3,0.8-0.9,1.4-1.6
			c0.6-0.7,1.2-0.3,3-0.6c1.8-0.3,2.8-0.4,4-0.9c1.2-0.5,0.6-0.7,2.9-1.4c2.3-0.7,2.9,0.2,6.1,0c3.2-0.1,4,0.2,6.8,0.9
			c2.8,0.6,3.1,1,6.1,2.1c3,1.1,10.1,4.7,11.3,5.1c1.2,0.4,1.6,1,2,1.5c0.3,0.6,2.8,1.1,3.7,1.4c0.8,0.4,3.4,0.4,4.3,1.3
			c0.9,0.8,8.1,4.8,8.1,4.8s0.8-0.6,4.6-1.4c3.8-0.9,2.4-0.1,4.1-1c1.7-0.9,3.2-1.1,8.3-2c5-0.8,7.8-0.1,10.1-0.1
			c2.3,0,9,1.1,13,1.3c4,0.3,2.8,0.8,4.9,1.2c2.1,0.4,3.5-0.3,4.6-0.9c1.1-0.6,2.5-1.3,3.4-1.7c0.9-0.4,2.7,0.2,3.8,0.4
			c1.1,0.1,2.1,0,3-0.8c0.9-0.8,3.9-1.3,3.9-1.3s3-1.9,5.3-2.7c2.3-0.7,2.4,0,4.3-0.2c2-0.2,3-1.8,5.3-2.7c2.3-0.8,6.9-1.5,8.5-2.7
			c1.6-1.2,1.6,0.3,4.6,1.3c3,1,6.8,1,8.7,1.3c1.9,0.3,2.7,2.1,4.3,4c1.6,1.9,2.4,5,7.2,5.3c4.9,0.3,3,0.9,4.4,1.8
			c1.5,0.9,2.2,1,5.2,0.6c3-0.4,19.8-4,20.6-5.1c0.7-1.1,3.8-1.3,6.2-2.3c2.3-1,6.8-2.7,6.9-2.8c0.1-0.1,0.6-1,1.1-1.8
			c0.5-0.8,0.6-0.6,1.9-0.8c1.3-0.2,1.8-0.1,3.4-0.3c1.6-0.1,3.2-0.8,4.1-1.8c0.9-1.1,0.6-0.1,2.3-0.3c1.8-0.2,2-0.5,4-1.2
			c2-0.6,1.1-0.7,2.1-0.7c1,0,4.9,1.3,5.7,2.9c0.8,1.6,1.9,0.7,6.1,2.7c4.2,2,5.2,6.5,5.5,7.8c0.3,1.3,3.8,1.7,6.3,3.1
			c1.6,0.9,2.8,3.2,3.7,4.9c4.5,0.2,7.7-1.4,9.6-2.5c1.9-1.1-0.4-0.5,3.8-1.8c4.2-1.3,5.6-2.1,12.1-3.6c6.5-1.5,13.6-3.2,16.2-4.1
			c2.6-0.8,8.2-2.3,9.4-2.6c1.3-0.4,5.1-1.5,6.3-1.4c1.2,0.1,5,2.2,6.3,3c1.3,0.8,15.8-1,19.6-0.8c3.8,0.2,8.6-1.2,9.9-1.6
			c1.3-0.4,3.7-0.9,6.3-2.2c2.5-1.3,1.8-1.8,5.4-1.9c3.6-0.1,6.5,0.2,8,0.8c1.5,0.6,1,1.6,7.3,3.3c6.4,1.7,22.9,3.6,23.4,4
			c0.5,0.3,2.7,2.4,4.6,1.9c2-0.5,4.8-7.6,8.8-9.3c4-1.7,9.4-1.8,10.1-3.7c0.7-1.9,2.9-8.6,9.5-10.9c6.7-2.2,8.1-0.7,9.6-3
			c1.5-2.2,7.5-3.5,9.1-3.4c1.6,0.2,0.1,0.1,3.1,1.4c3,1.3,3.3,1.8,5.9,2.4c2.6,0.6,2.2-0.9,3.4,0.8c1.2,1.7,3.5,3,5.9,3.5
			c2.4,0.5,3.1,0.5,5,1c1.9,0.5,2.1,0.2,2.7,1.6c0.6,1.3,1.1,2.7,1.3,2.9c0.2,0.2,6.6,3.4,9.9,5.4c3.3,1.9,8,2.7,8.9,4.5
			c0.9,1.8,25.7,9.9,30.1,11c4.4,1.2,5.5,1.1,7.9,0c2.4-1.1-0.4-2.3,7-1.9c7.4,0.4,9-4.2,11.8-6.8c2.8-2.6,4.2-5.2,7.1-5.3
			c2.9-0.1,8.7,0.5,13.3-0.6c4.6-1.1,4.9-3.3,7.1-1.2c2.2,2,9,3.9,12.3,5.5c3.3,1.6,4.6,4.3,7.5,4.9c2.9,0.6,3.1-0.5,6.5,1
			c3.3,1.5,7.6,4.9,7.6,4.9s4.5,1.2,5.7,2.6c1.3,1.4,2.6,1.7,4.4,1.7c1.7,0,4.5-0.7,5.8,0.1c1.3,0.8,3.2,2,4.8,3.1
			c1.6,1.1,3.6,2.4,6.8,2.1c3.2-0.3,1.5-1.3,7.6-1c6.1,0.3,16.3-0.2,19.8,0.1c3.5,0.4,7.8-0.2,15.3,1.8c7.4,2,9.7,2.7,12.1,4.3
			c2.4,1.6,0.4,0.3,6,2.2c5.6,2,6.7,2.9,6.7,2.9s11.5-4.8,12.9-5.9c1.5-1.1,5.4-0.8,6.7-1.2c1.3-0.4,5.1-0.8,5.7-1.6
			c0.6-0.8,1.3-1.5,3.2-2c1.8-0.4,13.1-4.7,17.8-5.9c4.7-1.1,5.2-1.7,9.5-2.2c4.3-0.5,5.7-0.9,10.4-0.2c4.8,0.7,5.8-0.5,9.1,0.9
			c3.3,1.4,2.4,1.7,4.1,2.6c1.7,1,3.2,1.3,5.9,2c2.7,0.7,3.7,0.1,4.5,1.3c0.8,1.2,0.8,2.1,1.8,2.7c1,0.6,4.5,2.2,7.5,2.6l-28.2,258
			c-35.2,14-62.3,28-87.3,40.9l-431.9-47.2c-98,32.4-88-13.4-144.5-32.3c-24.5-8.2-42.3-18.5-60.6-30.3
			c-12.7,6.1-27.5,12.4-44.6,18.9c-129.6,49.3-235,97.3-294.9,79C146.5,632.5,0.5,440.7,156.2,381.4z"/>
		<linearGradient id="SVGID_3_" gradientUnits="userSpaceOnUse" x1="817.84" y1="898.7516" x2="817.84" y2="361.7022">
			<stop  offset="0" style="stop-color:#745CA7"/>
			<stop  offset="1" style="stop-color:#0D1138"/>
		</linearGradient>
		<path class="st2" d="M1636.1,427.6c-9.1-1.9-21.5-5.3-30.5-6.8c-13.4-2.2-19.2-0.9-21.1-4c-1.9-3.1-2.8-6.2-6.5-7.2
			c-3.7-1-15.4-9.2-23.3-6.9c-8,2.2-11.7,5.5-18.6,6.6c-6.9,1.2-8.1,4.1-14,9.6c-5.9,5.5-10.6,6.8-19.2,8.9
			c-8.6,2.1-16.8,0-23.3,9.4c-5.6,8.1-12.4,12.3-19.5,16.8c-1.8-1.2-3.7-2.1-4.3-2.4c-0.7-0.3-1.2,0.3-1.2,1
			c-0.1,0.7-1.2,0.9-2.6,1.2c-1.4,0.2-1.9,0.4-3.5-0.4c-1.6-0.8-3.6-1.4-3.7-2c-0.1-0.5-1-0.6-1.6-0.5c-0.5,0.1-2.2-1.4-2.6-2.4
			c-0.4-1-1.6-0.8-2.2-0.8c-0.6,0-0.8,0.6-1.6,0.5c-0.8-0.1-1-0.7-1.4-1.2c-0.4-0.5-2.2-0.6-3.1-0.6c-0.9-0.1-1.9-0.5-3.1-1.3
			c-1.2-0.8-1.9-0.9-2.9-0.9c-1,0-2.1-0.3-4-1.5c-1.9-1.2-5.3-1.3-6.3-1.3c-1-0.1-1.7-2.6-2.8-3.3c-1.1-0.7-6.2-2.3-6.7-0.8
			c-0.5,1.5-3.8,1.3-4.4,1.1c-0.6-0.2-0.7-1.2-0.8-1.9c-0.1-0.7,0.3-1.7,0.3-2.6c0-0.9-2.1-2.1-2.1-2.4c-0.1-0.3-1-1.5-2.3-1.6
			c-1.3-0.1-2.4-0.9-3.1-3.1c-0.7-2.2-0.6-1.5-2.4-2.8c-1.8-1.3-0.9-0.3-2.8-2.2c-1.8-2-0.8-3.5-2.8-6c-2-2.6-3.3-2.8-4.2-3
			c-0.9-0.2-0.9,0.2-3.6-0.3c-2.6-0.4-2.8-1.8-3.4-2.8c-0.6-1-3.7-2.8-4.5-3.2c-0.8-0.4-0.9-1.6-1.7-1c-0.8,0.5-1.8,1.8-2.3,2.2
			c-0.5,0.3-1.6-0.2-1.9-0.7c-0.3-0.5-0.5-1.8-1-2.2c-0.5-0.4-2.3-1.7-3.1-1.7c-0.9,0-4,0.7-4.4,1.7c-0.4,1-0.6,0.9-2,1.5
			c-1.4,0.5-0.7,2.4-1.2,2.4c-0.4,0-1.6-0.3-2.4,0.3c-0.8,0.6-1.2,1.9-1.4,2.1c-0.2,0.2-2.9-0.2-3.4,0.3c-0.5,0.5-0.1,0.8-0.4,1.6
			c-0.3,0.8-0.8,0.6-1.2,0.6c-0.5,0-1-0.6-1.9-0.7c-0.8-0.1-0.8,0.2-0.9,0.5c-0.1,0.3-0.4,0.7-1.6,0.6c-1.2,0-1.5-0.8-2.1-0.9
			c-0.6-0.2-0.8-0.3-1.2-0.7c-0.4-0.3-0.9-0.7-1.8-0.6c-0.9,0.1-0.7,0.7-1.4,1.1c-0.7,0.4-2.2,0.7-3.1,1.6
			c-7.2-0.6-13.8-0.6-19.9-0.1c-4.2-7.8-10.8-19.1-16.5-20.8c-8.3-2.5-25.8-6.5-33.5-3c-7.7,3.5-28.2,5.6-34,6.2
			c-5.8,0.6-4.7,0.4-10.9,8c-6.2,7.5-24.1,24.2-31.7,24.8c-7.7,0.6-15.5-2.4-21.8-0.1c-6.3,2.2-12.7,5.6-20.1,6.3
			c-7.4,0.7-28.8-6.6-31.8-10c-3-3.4-6.5-11.6-24.8-13.4c-18.3-1.8-14.8-23.3-36.3-5.9c-6.2,5-11.3,10-15.4,14.5
			c-1-0.6-2.1-1.1-3.2-1.6c-3.4-1.2-2.8-0.7-4.9-1.8c-2.1-1-4-0.9-6.9-1.8c-3-0.9-3-1-5-1.9c-2.1-0.9-3.7-1.6-4.9-2.2
			c-1.2-0.6-1.9-1.3-6.9-2.8c-5-1.5-6.9-1.8-10-1.9c-3.1-0.1-5.2-1.5-6.3-2.4c-1.2-0.9,0.3-0.3-2.4-1.5c-2.7-1.2-3.5-1.8-7.7-3.2
			c-4.1-1.5-8.7-3.1-10.3-3.8c-1.6-0.7-5.2-2.1-6-2.4c-0.8-0.3-3.2-1.4-4-1.4c-0.8,0-3.5,1.1-4.4,1.5c-0.9,0.4-10.3-1.8-12.8-1.9
			c-2.5-0.1-5.6-1.4-6.4-1.7c-0.8-0.3-2.4-0.8-3.9-1.9c-1.6-1-1-1.3-3.4-1.7c-2.4-0.3-4.3-0.3-5.3,0c-1,0.3-0.7,1-5.1,1.6
			c-4.3,0.7-15.3,0.7-15.6,0.9c-0.4,0.2-1.9,1.4-3.2,0.9c-1.3-0.5-2.6-5.3-5.1-6.7c-2.5-1.4-6.1-1.8-6.3-3.1
			c-0.3-1.3-1.3-5.9-5.5-7.8c-4.2-2-5.2-1.1-6.1-2.7c-0.8-1.6-4.7-2.9-5.7-2.9c-1,0-0.1,0.1-2.1,0.7c-2,0.6-2.3,1-4,1.2
			c-1.8,0.2-1.4-0.8-2.3,0.3c-0.9,1.1-2.5,1.7-4.1,1.8c-1.6,0.1-2.1,0.1-3.4,0.3c-1.3,0.2-1.4,0-1.9,0.8c-0.5,0.8-0.9,1.7-1.1,1.8
			c-0.1,0.1-4.6,1.8-6.9,2.8c-2.3,1-5.4,1.2-6.2,2.3c-0.7,1.1-17.6,4.7-20.6,5.1c-3,0.4-3.7,0.3-5.2-0.6c-1.5-0.9,0.4-1.5-4.4-1.8
			c-4.9-0.3-5.6-3.4-7.2-5.3c-1.6-1.9-2.4-3.7-4.3-4c-1.9-0.3-5.8-0.3-8.7-1.3c-3-1-3-2.5-4.6-1.3c-1.6,1.2-6.2,1.9-8.5,2.7
			c-2.3,0.8-3.3,2.5-5.3,2.7c-2,0.2-2-0.6-4.3,0.2c-2.3,0.7-5.3,2.7-5.3,2.7s-3,0.5-3.9,1.3c-0.9,0.8-1.8,0.9-3,0.8
			c-1.1-0.1-2.9-0.8-3.8-0.4c-0.9,0.4-2.3,1.1-3.4,1.7c-1.1,0.6-2.5,1.3-4.6,0.9c-2.1-0.4-0.9-1-4.9-1.2c-4-0.3-10.7-1.3-13-1.3
			s-5.1-0.7-10.1,0.1c-5,0.8-6.6,1.1-8.3,2c-1.7,0.9-0.3,0.1-4.1,1c-3.8,0.9-4.6,1.4-4.6,1.4s-7.2-3.9-8.1-4.8
			c-0.9-0.8-3.5-0.9-4.3-1.3c-0.9-0.4-3.3-0.9-3.7-1.4c-0.3-0.6-0.8-1.1-2-1.5c-1.2-0.4-8.3-4.1-11.3-5.1c-3-1.1-3.3-1.5-6.1-2.1
			c-2.8-0.6-3.7-1-6.8-0.8c-3.2,0.1-3.8-0.7-6.1,0c-2.3,0.7-1.7,0.9-2.9,1.4c-1.2,0.5-2.2,0.6-4,0.9c-1.8,0.3-2.4-0.2-3,0.6
			c-0.6,0.7-0.7,1.3-1.4,1.6c-0.7,0.3-3.2,1.2-5.2,1.2s-2-0.5-4.6,0c-2.7,0.6-2.8,0.6-4.1,1.3c-1.4,0.7,0-0.1-2.1,1.3
			c-0.3,0.2-0.5,0.4-0.7,0.5c-3.2,0.1-6.5,0.2-10,0.5c-1.2-1-3.1-1.5-4-2c-0.9-0.5-0.6-1.2-1.7-1.4c-1.2-0.1-1.8,0.3-2.3,0.7
			c-0.5,0.4-0.7,0.6-1.5,0.9c-0.8,0.2-1.1,1.2-2.7,1.2c-1.6,0.1-2-0.4-2.1-0.8c-0.1-0.4-0.1-0.8-1.1-0.6c-1.1,0.2-1.8,0.9-2.4,0.9
			c-0.6,0-1.3,0.3-1.6-0.8c-0.3-1.1,0.2-1.4-0.5-2c-0.7-0.6-4-0.1-4.4-0.4c-0.3-0.3-0.8-2-1.8-2.7c-1.1-0.7-2.5-0.4-3.1-0.4
			c-0.5,0,0.2-2.4-1.5-3.1c-1.7-0.7-2-0.6-2.5-1.9c-0.5-1.3-4.6-2.1-5.7-2.1c-1.1,0-3.4,1.7-4,2.2c-0.6,0.6-0.9,2.2-1.3,2.9
			c-0.4,0.7-1.8,1.4-2.5,1c-0.7-0.4-1.9-2.1-3-2.8c-1.1-0.7-1.2,0.8-2.2,1.3c-1,0.5-5.1,2.8-5.8,4.1c-0.8,1.3-1,3-4.4,3.6
			c-3.4,0.6-3.4,0.1-4.6,0.3c-1.2,0.2-2.9,0.5-5.4,3.8c-2.5,3.3-1.2,5.2-3.5,7.8c-2.4,2.5-1.2,1.3-3.5,2.9c-2.4,1.6-2.2,0.7-3.1,3.5
			c-0.9,2.9-2.3,3.8-4,4c-1.7,0.1-2.9,1.6-3,2.1c-0.1,0.4-2.7,1.9-2.7,3.1c0,1.2,0.5,2.4,0.4,3.3c-0.1,0.9-0.3,2.2-1.1,2.4
			c-0.8,0.3-4.9,0.6-5.6-1.4c-0.7-1.9-7.3,0.1-8.6,1c-1.4,0.9-2.2,4.1-3.6,4.2c-1.3,0.1-5.7,0.1-8.1,1.7c-2.4,1.6-3.8,2-5.1,2
			c-1.3,0-2.2,0.2-3.8,1.2c-1.5,1-2.8,1.6-3.9,1.6c-1.1,0.1-3.4,0.2-3.9,0.8c-0.6,0.6-0.8,1.4-1.8,1.6c-1,0.1-1.3-0.6-2-0.6
			c-0.7,0-2.4-0.3-2.8,1c-0.5,1.3-2.7,3.3-3.4,3.1c-0.7-0.2-1.9-0.1-2,0.6c-0.1,0.7-2.7,1.5-4.7,2.5c-2,1-2.6,0.8-4.4,0.5
			s-3.3-0.6-3.4-1.5c-0.1-0.9-0.6-1.7-1.6-1.3c-0.9,0.3-3.6,1.7-5.9,3.3c-2.4,1.6-1.8,2.6-4.1,2.1c-2.3-0.4-1.8-1-3.5-1.3
			c-1.6-0.4-2.4,0.4-3.8-0.4c-1.4-0.7-9.4-4.8-11.3-4.1c-1.9,0.7-3,1.8-3.2,3.6c-0.2,1.8,1.1,3.5-1.5,4.5c-2.6,1-1.8,1.8-3.1,2.7
			c-1.3,0.9-4.7,2-8.2,2c-3.5,0-8.6-1-9.2-0.6c-0.7,0.4-1.3,2-2.9,2.4c-1.6,0.4-3.2,0.9-4.3,0.5c-1-0.4-1.4-2-3.1-1.4
			c-1.7,0.6-2.4,2.6-3.3,2.7c-0.9,0.1-0.4-3.6-1.7-3.5c-1.3,0.1-2.7,0-4.1-0.2c-1.4-0.2-0.7-2.7-0.7-2.7s-1.9-0.9-4.4-1.3
			c-2.5-0.4-1.6-1.8-3.6-2.1c-2.1-0.3-2.5,0-4.2,0.5c-1.7,0.5-1.8,1-3,1.9c-1.1,0.9-3.4,2.5-4.9,3.4c-1.5,0.9-1.9,1.7-1.6,3.5
			c0.4,1.8,1.3,2.8-0.9,3.6c-2.2,0.8-4.1,1-4.5,2.1c-0.4,1.1,0.1,1.4-3.1,2.1c-3.2,0.7-2.1-0.4-7.2,1.1c-5.1,1.5-5.7,1.3-6.1,3
			c-0.2,0.8-1.3,3.1-3,5.5c-21.7-17.1-37.4-29.2-38-29.4c-2-0.6-8.6-2.1-20.2-4c-11.6-1.9-12,0.8-15.1,1.3c-3.1,0.5-8.7,2.7-11.1,3
			c-2.4,0.3-2.9-0.8-2.9-0.8s-6.5,5.1-9.8,5.3c-3.3,0.3-4.1-1.2-5.3-1.2c-1.2,0-2.7,1.7-5.7,2.8c-3,1.1-3.9,0.2-10.3,0.7
			c-6.4,0.6-8.7-1-10.2-1.4c-1.5-0.4-3-1-6-0.5c-3,0.4-6,0.2-10.1-1c-4.1-1.3-13-1.4-15.8-0.9c-2.7,0.5-1.5,0.6-1.8,1.8
			c-0.3,1.2-1.8,2.2-3.8,4.3c-2,2-5.8,3.9-7,4.4c-1.2,0.4-2.5,0.3-4.8,0.7c-2.3,0.4-3.9,2.4-6.1,2.6c-2.2,0.3-1.5,0.7-3,1.2
			c-1.5,0.5-3,0.7-4.7,1.8c-1.7,1.1-0.4,1-1.6,1.7c-1.1,0.7-4.5,0.4-4.8,0.6c-0.3,0.2-3.4,1.4-5.1,2.3c-1.8,0.9-6.4,1.8-9.3,2.6
			c-2.9,0.8-2.6,2.6-3.2,3.4c-0.6,0.8-3,6-3.7,6.2c-0.8,0.3-1.7,0.2-4.3,0.9c-2.6,0.7-0.7,0.8-1.6,1.1c-0.9,0.3-10.1,1.5-10.8,2.2
			c-0.7,0.7-1.3,1.7-2.8,2.6c-1.6,0.9-5.4-1.3-7.9-1.8c-2.5-0.5-5.8-3.4-8-4.9c-2.2-1.4-3.3-3.4-4.8-5.2c-1.5-1.8-4.7-3.4-9.5-5.6
			c-4.8-2.2-13.5-6.7-16.7-6.7c-3.2,0-10.7-1.8-15.9-3.3c-5.2-1.5-9.7-1.1-12.4-0.9c-2.7,0.2-3.7,0.8-6.9,3.4
			c-1.2,1-2.1,1.5-2.9,1.9v450.4c38.2-6.3,86.5-14.7,149.7-25.2c212.7-35.3,187.8-75.8,228.7-96c17.6-8.7,35.4-44.7,49.8-84.1
			c115.2-8.9,208.7-15.4,249-52.6c9.7-9,19.6-26.7,27.5-48.8c14.9,9.1,30.3,17.1,50.1,23.7c60.2,20.1,44.9,70.9,165.3,24.8
			c31.7-12.1,60.1-30.5,83.1-51.6c-2.7,25.9-4.6,46.1-4.6,50.4c0,14.2-43.7,54.3,50.8,81.5c94.5,27.2,251.6,72,400.4,55.5
			c63.2-7,130.9-16.6,186.8-27.5V427.6z"/>
		<linearGradient id="SVGID_4_" gradientUnits="userSpaceOnUse" x1="391.4098" y1="722.3904" x2="391.4098" y2="317.0922">
			<stop  offset="0" style="stop-color:#745CA7"/>
			<stop  offset="1" style="stop-color:#0D1138"/>
		</linearGradient>
		<path class="st3" d="M62.5,338.4c1-1.2,2.8-2,3.6-2.7c0.8-0.7,0.3-1.3,1.5-1.7c1.1-0.4,1.8,0,2.3,0.3c0.5,0.4,0.8,0.5,1.6,0.6
			c0.8,0.1,1.3,0.9,2.9,0.7c1.6-0.2,1.8-0.8,1.9-1.2c0.1-0.4-0.1-0.8,1-0.8c1.1,0,1.9,0.5,2.5,0.5c0.6-0.1,1.3,0,1.4-1.1
			c0.1-1.1-0.4-1.4,0.1-2.1c0.5-0.7,4-0.8,4.2-1.2c0.3-0.3,0.4-2.1,1.3-3c0.9-0.9,2.4-0.9,3-0.9c0.5-0.1-0.7-2.3,0.9-3.3
			c1.6-1,1.8-1,2.1-2.3c0.3-1.3,4.1-2.9,5.2-3.1c1.1-0.2,3.7,1,4.4,1.5c0.7,0.4,1.3,2,1.8,2.6c0.5,0.6,2,1.1,2.6,0.5
			c0.6-0.6,1.5-2.4,2.4-3.3c0.9-0.8,1.3,0.6,2.4,0.9c1.1,0.3,5.5,1.8,6.5,3c1,1.2,1.5,2.8,4.9,2.7c3.4-0.1,3.4-0.5,4.6-0.5
			c1.2,0,3-0.1,6,2.8c3.1,2.8,2.1,4.9,4.9,7c2.8,2,1.4,1,4,2.2c2.6,1.2,2.3,0.3,3.7,2.9c1.4,2.7,2.9,3.4,4.6,3.2
			c1.7-0.2,3.1,1.1,3.3,1.5c0.2,0.4,3,1.4,3.2,2.6c0.2,1.2-0.1,2.5,0.2,3.4c0.3,0.9,0.7,2.1,1.5,2.2c0.8,0.1,4.9-0.3,5.3-2.3
			c0.3-2,7.2-1.2,8.7-0.6c1.5,0.6,3,3.7,4.3,3.5c1.3-0.1,5.6-0.9,8.3,0.2c2.7,1.1,4.1,1.3,5.4,1c1.3-0.3,2.2-0.2,3.9,0.5
			c1.7,0.7,3.1,1,4.2,0.9c1.1-0.1,3.3-0.4,4,0.1c0.7,0.5,1.1,1.3,2.1,1.2c1-0.1,1.2-0.8,1.9-1c0.7-0.1,2.3-0.7,3,0.5
			c0.7,1.2,3.2,2.8,3.9,2.5c0.6-0.3,1.9-0.4,2.1,0.2c0.2,0.6,2.9,1,5.1,1.6c2.2,0.7,2.7,0.3,4.4-0.3c1.8-0.6,3.2-1.2,3.1-2.1
			c-0.1-0.9,0.3-1.7,1.3-1.6c1,0.2,3.8,1,6.4,2.2c2.6,1.2,2.2,2.2,4.4,1.4c2.2-0.8,1.6-1.3,3.2-1.9c1.5-0.7,2.4-0.1,3.6-1
			c1.2-1,8.4-6.4,10.4-6c2,0.4,3.2,1.2,3.8,3c0.5,1.8-0.5,3.7,2.3,4.2c2.7,0.5,2.1,1.5,3.5,2.1c1.5,0.6,5,1.1,8.4,0.5
			c3.4-0.6,8.2-2.6,9-2.2c0.7,0.3,1.7,1.7,3.3,1.9c1.6,0.2,3.4,0.3,4.3-0.3c1-0.5,1-2.2,2.8-1.9c1.8,0.3,2.9,2.1,3.8,2.1
			c0.9,0-0.3-3.6,1-3.8c1.3-0.2,2.7-0.5,4-1c1.3-0.5,0.2-2.8,0.2-2.8s1.7-1.2,4.1-2.1c2.4-0.9,1.2-2,3.2-2.7c2-0.7,2.5-0.5,4.2-0.2
			c1.8,0.2,2,0.7,3.2,1.4c1.2,0.7,3.8,1.9,5.4,2.5c1.6,0.6,2.2,1.3,2.1,3.1c0,1.8-0.8,3,1.5,3.4c2.3,0.4,4.2,0.2,4.8,1.2
			c0.6,1,0.2,1.4,3.4,1.6c3.3,0.2,2-0.7,7.2-0.2c5.3,0.5,5.8,0.3,6.6,1.8c0.7,1.5,5.9,7.9,11.2,9.8c5.3,1.9,6.8,2.6,10.3,3.6
			c3.5,1,4.8,0.6,6.9,2.3c0.4,0.4,2.8,2.6,6.2,5.9c1.9,0.5,4.4,0.3,5.1,0.2c0.8-0.1,1-0.6,1.8-1.2c0.8-0.6,1.3,0,3.1,0.3
			c1.8,0.2,2.8,0.4,4.1,0.2c1.3-0.2,0.8-0.5,3.2-0.6c2.4-0.1,2.7,0.9,5.8,1.6c3.1,0.7,3.8,1.3,6.4,2.6c2.5,1.3,2.7,1.8,5.3,3.6
			c2.6,1.8,8.5,7.2,9.5,7.9c1,0.7,1.3,1.4,1.5,2c0.2,0.6,2.4,1.8,3.1,2.4c0.7,0.6,3.2,1.3,3.8,2.4c0.6,1.1,6.5,6.8,6.5,6.8
			s0.9-0.3,4.8-0.2c3.9,0.2,2.4,0.5,4.2,0.1c1.9-0.4,3.4-0.2,8.5,0.3c5.1,0.5,7.6,2,9.8,2.6c2.2,0.6,8.4,3.4,12.2,4.7
			c3.8,1.3,2.5,1.5,4.4,2.5c1.9,1,3.5,0.6,4.7,0.4c1.2-0.3,2.7-0.6,3.7-0.7c1-0.2,2.5,0.9,3.6,1.4c1.1,0.4,2,0.6,3.1,0
			c1.1-0.5,4.1-0.2,4.1-0.2s3.4-1,5.8-1.2c2.4-0.1,2.3,0.6,4.2,1c1.9,0.3,3.4-1,5.8-1.2c2.4-0.2,7,0.4,8.9-0.3
			c1.9-0.7,1.5,0.7,4.1,2.5c2.6,1.8,6.3,2.8,8,3.6c1.8,0.8,2,2.7,3.1,5c1.1,2.3,0.9,5.5,5.6,7c4.6,1.6,2.6,1.6,3.8,2.9
			c1.2,1.2,1.9,1.6,4.8,1.9c3,0.4,20.2,1.4,21.2,0.5c1-0.9,4-0.2,6.6-0.6c2.5-0.4,7.3-0.8,7.4-0.9c0.2-0.1,0.8-0.8,1.5-1.5
			c0.7-0.7,0.8-0.5,2.1-0.3c1.3,0.2,1.7,0.3,3.3,0.6c1.6,0.3,3.3,0.1,4.5-0.7c1.2-0.8,0.6,0.1,2.3,0.3c1.7,0.3,2,0,4.2-0.1
			c2.1-0.1,1.2-0.4,2.2-0.1c1,0.3,4.4,2.5,4.8,4.3c0.4,1.8,1.6,1.2,5.2,4.2c3.5,3,3.2,7.7,3.2,9c-0.1,1.3,3.2,2.7,5.3,4.7
			c2,2,2.1,7,3.2,7.8c1.1,0.8,2.9,0.1,3.3,0c0.4-0.1,11,2.8,15.3,3.3c4.3,0.5,4.2-0.2,5.3-0.2c1.1,0,2.9,0.5,5.1,1.4
			c2.2,0.9,1.6,1.1,2.8,2.5c1.2,1.4,2.6,2.3,3.3,2.9c0.7,0.5,3.3,2.6,5.7,3.4s10.9,5.4,11.9,5.3c1-0.2,3.8-0.5,4.6-0.3
			c0.8,0.2,2.8,1.8,3.5,2.4c0.7,0.5,3.8,2.8,5.2,3.9c1.4,1.1,5.4,3.9,8.9,6.4c3.6,2.5,4.3,3.3,6.5,5.2c2.2,1.8,1,0.9,1.9,2
			c0.9,1.2,2.5,3,5.5,4c2.9,1,4.7,1.8,9.2,4.5c4.4,2.8,5,3.7,5.9,4.5c1,0.9,2.4,2,4.1,3.4c1.8,1.4,1.7,1.5,4.3,3.2
			c0.2,0.1,0.4,0.2,0.5,0.3c-1.2,1.6-0.6,3.3,2.2,5c27.2,16.2,36.6,18.9,25.4,21.3c-11.2,2.4-178.9,9.4-151.2,16.5
			c27.8,7.1,55.5,17.1,42.5,18.3c-13,1.2-142.9,1.2-87.4,8.3c55.5,7.1,229.7,36,149.4,53.1c-80.3,17.1-157.1,27.2-108.7,46.7
			c13.8,5.6,17.7,10.3,13.9,14.6c-13.8,3-27.6,5.2-41.2,6.6c-128.4,12.5-100.1-32.4-152.8-67.8c-21.4-14.4-35.9-29-50.4-45.3
			c-13.9,2.5-29.8,4.6-48,6.4c-138.1,13.1-252.4,31.5-305.3-2C27,603.6,12.4,585-0.4,561V361.9C14.4,349.5,34.9,341.1,62.5,338.4z"
			/>
		<linearGradient id="SVGID_5_" gradientUnits="userSpaceOnUse" x1="351.4794" y1="869.4122" x2="351.4794" y2="374.3707">
			<stop  offset="0" style="stop-color:#745CA7"/>
			<stop  offset="1" style="stop-color:#0D1138"/>
		</linearGradient>
		<path class="st4" d="M255.7,384.2c0.3,0,0.7,0.1,1.2,0.2c0.1,0,0.2,0,0.4,0c2.2,0.2,3.5,0.4,4.3,0.9c2.1,0.5,3.6,0.9,4.8,1.3
			c2,0,5.4-0.4,7.5-0.5c2.4-0.1,2.5,0.3,3.8,0.8c1,0.4,1.6,1.3,2.3,2.1c2.5,0.2,3.7,0.2,7.7,0.8l1.8,0.3c1.3-0.1,1.6,0.2,2.3,0.4
			c0.5,0.1,1,0.2,1.5,0.2c0.3,0,0.7,0,1.2,0c0.1,0.1,0.1,0.1,0.2,0.2c1.7,0.3,3.2,0.5,4,0.5c1.8,0.1,5.6,0.7,6.4,0.8
			c0.9,0.1,3.5,0.4,4.2,0.7c0.7,0.4,2.5,2.6,3.1,3.4c0.6,0.8,9.9,3.4,12.2,4.5c2.3,1.1,5.6,1.5,6.4,1.6c0.9,0.1,2.5,0.4,4.4,0.3
			c1.9-0.2,1.5-0.7,3.8,0.2c2.2,0.8,3.9,1.8,4.7,2.5c0.8,0.8,0.2,1.2,3.6,3.9c3.5,2.7,13,8,13.3,8.3c0.2,0.3,1,2.1,2.4,2.3
			c1.3,0.2,4.9-3.4,7.7-3.4c2.9,0,6.2,1.3,7.1,0.3c0.9-1,3.9-4.5,8.6-4.2c4.6,0.3,5.1,1.6,6.6,0.6c1.5-1,5.5-0.2,6.4,0.2
			c0.9,0.5,0,0.1,1.5,1.6c1.5,1.5,1.5,2,3,3c1.4,1,1.6,0,1.9,1.4c0.3,1.4,1.4,2.7,2.7,3.6c1.3,0.9,1.8,1.1,2.8,1.9
			c1,0.8,1.2,0.7,1.3,1.6c0,1,0,1.9,0.1,2.1c0.1,0.2,3.2,3.8,4.7,5.8c1.5,2,4.2,3.7,4.3,5c0.1,1.3,13.2,12.6,15.6,14.4
			c2.4,1.8,3.1,2,4.8,2c1.7-0.1,0.3-1.5,4.7,0.6c4.4,2.1,6.6-0.3,8.9-1.2c2.3-0.9,3.8-2.1,5.7-1.4c1.8,0.7,5.2,2.5,8.3,3
			c3.1,0.5,3.8-0.8,4.7,1c0.9,1.8,4.5,4.6,6.1,6.4c1.6,1.8,1.7,3.8,3.3,4.9c1.6,1.1,2,0.5,3.7,2.2c1.7,1.7,3.4,4.9,3.4,4.9
			s2.4,1.9,2.8,3c0.4,1.2,1.2,1.7,2.2,2.1c1.1,0.4,2.9,0.7,3.5,1.5c0.6,0.8,1.4,2.1,2.1,3.1c0.7,1.1,1.6,2.4,3.6,3
			c2.1,0.6,1.2-0.4,4.9,1.3c3.6,1.7,10,4,12,5.1c2,1.1,4.8,1.9,8.8,5c4,3.1,5.2,4.1,6.3,5.7c1.1,1.6,0.2,0.3,3.1,2.9
			c2.9,2.6,3.3,3.5,3.3,3.5s8.2,0,9.4-0.3c1.2-0.3,3.5,0.9,4.4,0.9c0.9,0.1,3.3,0.8,3.9,0.5c0.6-0.3,1.2-0.6,2.4-0.4
			c1.2,0.2,9.2,0.4,12.4,0.9c3.2,0.5,3.6,0.3,6.3,1.1c2.8,0.8,3.7,0.9,6.4,2.5c2.7,1.7,3.7,1.2,5.3,2.9c1.7,1.7,1,1.6,1.9,2.7
			c0.8,1,1.6,1.6,3.1,2.7c1.5,1.1,2.2,1,2.4,1.9c0.2,0.9,0,1.5,0.4,2.1c0.5,0.6,2.2,2.6,4,3.6c1.8,1,2,0.5,4,2.3
			c2.1,1.8,2.1,1.9,3,3.2c0.8,1.3,0.1-0.1,1.2,2.1c1.1,2.2,0.2,1.8,1.9,3.6c1.7,1.8,10.9,22.8,10.9,22.8s2,0.3,5.4,0.7
			c-8,1.4-10.7,2.9-4.9,4.4c27.8,7.1,55.5,17.1,42.5,18.3c-13,1.2-142.9,1.2-87.4,8.3c26.7,3.4,80.7,11.9,120.8,21.6
			c-29.3,15-73.5,29.3-75.5,36.5c-1.7,6.3,0.5,12.3,1.5,17.4c-14,4.3-22.2,8.6-21.1,13.6c-9.7,0.3-23.6-0.4-43.4-2.3
			c-92.2-8.9-125.7,10.4-188.1-1c-10.3-1.9-19.3-2-27.3-1.4c-7,25-15.6,48.8-25,70.3C161.4,770.8,13,796.1,101.9,854.4
			c6.9,4.5,15.7,9.6,25.9,15c-32.2-0.3-73.2-1.4-128.2-2.8V421.9c0.2-0.1,0.4-0.2,0.6-0.3c4.9-2.3,9.5-2.4,12.2-2.7
			c2.7-0.2,3.8,0.3,7.3,2.4c3.6,2.1,4.3,1.7,7.7,2.4c3.4,0.7,11.4-9.3,14.8-13.2c3.4-3.9,1.1-2.6,1.6-4.2c0.5-1.7,7.3-5.7,9.4-8.6
			c2.1-2.9,3.2-6.8,6.4-8.2c3.3-1.4,7.4-3.7,11.2-6.2c3.8-2.4,9.7-6.1,12.6-6.7c2.9-0.6,1.9,0.2,2.9,1.2c0.9,1.1,5.7,0.4,7.8,0.2
			c2.1-0.2,1.4,0.6,3.2,2.2c1.8,1.6,7.9,2.1,10.1,2c2.1-0.1,3,0,4.1,1c1.2,1,6,5,7.4,5.1c1.4,0.1,4,1.3,4.4,2.1
			c0.4,0.9,1.5,2.4,4.1,2.7c2.6,0.3,4.5,1.7,6.9,2.9c2.4,1.1,10.2,0,17.2-1.2c7-1.2,9.7-2,14.6-4c5-2,5.9-0.6,11.2-2.8
			c5.4-2.2,14.5-6.8,17.6-8.6c3.1-1.8,9-1.4,12-2.1c3-0.7,5.8-2.5,8.6-2.8c2.9-0.3,3.7-0.1,4.6,0.1c0.9,0.2,2.1,1,4,1.7
			c1.9,0.7,4.2-0.2,5.9-0.2c1.7-0.1,6.1-0.1,7.3,0.3c1.3,0.4,2.5,2.4,4.2,3.2c1.7,0.8,3.5-0.6,4.6-0.6c1.1,0,2.7,1.6,3.9,3
			C251,383.2,253.4,383.9,255.7,384.2z"/>
		<linearGradient id="SVGID_6_" gradientUnits="userSpaceOnUse" x1="376.175" y1="755.7783" x2="376.175" y2="384.5184">
			<stop  offset="0" style="stop-color:#745CA7"/>
			<stop  offset="1" style="stop-color:#0D1138"/>
		</linearGradient>
		<path class="st5" d="M395.2,467.1c1.5-0.6,3.4-0.3,4.4-0.5c1-0.2,1-0.9,2.1-0.7c1.1,0.3,1.6,0.9,1.9,1.5c0.3,0.6,0.4,0.9,1.1,1.3
			c0.7,0.5,0.6,1.5,2.1,2.1c0.5,0,1.2,0.1,2,0.2c0.1-0.1,0.2-0.1,0.3-0.2c0.3-0.3,0.4-0.7,1.3-0.2c0.5,0.3,0.9,0.8,1.3,1.1l0,0
			c1.1,0.3,1.6,0.6,1.9,0.8c0.2-0.1,0.4-0.2,0.6-0.5c0.7-0.9,0.4-1.4,1.2-1.7s3.8,1.3,4.2,1.2c0.4-0.2,1.4-1.6,2.7-1.9
			c1.2-0.3,2.5,0.5,3,0.7c0.5,0.2,0.6-2.3,2.5-2.4c1.9,0,2.1,0.1,3-0.9c0.9-1,5-0.4,6.1,0c1,0.4,2.6,2.8,3,3.5
			c0.4,0.7,0.1,2.4,0.2,3.1c0.1,0.8,1.2,1.9,2,1.8c0.8-0.2,2.5-1.3,3.7-1.6c1.2-0.2,0.8,1.2,1.6,2c0.8,0.8,3.8,4.4,4,5.9
			c0.3,1.5-0.1,3.2,2.8,4.9c2.9,1.7,3.1,1.3,4.2,1.9c1,0.6,2.4,1.4,3.6,4.9c2.6,1.5,3.5,2.2,5.6,3.6c2.4,1.6,1.1,0.8,2.1,1.8
			c1,1.1,2.9,2.7,5.9,3.3c3,0.6,4.9,1.2,9.6,3.4c4.7,2.2,5.4,3.1,6.4,3.8c1.1,0.8,2.6,1.7,4.5,2.9c1.9,1.2,1.9,1.3,4.7,2.7
			c2.8,1.3,4.7,1.5,6.6,2.8c1.9,1.3,1.4,0.8,4.5,2.5c21.3,14.5,29.2,34.7,26.9,56.9c0.7-0.1,1-0.3,2.1-0.1c1.7,0.2,2.1,1.2,3.7,1
			c1.6-0.2,10.5-1.2,12,0.2c1.5,1.4,2.1,2.7,1.7,4.5c-0.4,1.8-2.3,2.9-0.2,4.7c2.1,1.8,1,2.4,1.9,3.6c0.9,1.3,3.7,3.5,7,4.7
			c0.8,0.3,1.7,0.6,2.6,0.8c0.8,0.4,2.5,0.9,5.4,1.4c0.5,0.2,0.8,0.3,0.9,0.4c0.1,0.1,2.7,0.3,7.3,0.8c55.9,7.2,229.2,36,149.1,53.1
			c-80.3,17.1-157.1,27.2-108.7,46.7c74.2,29.8-134,37.4-314.7,56.7c-34.2-20.4-59.6-40.9-72-63.5c-6.9-6.8-15.3-13.7-27-19.8
			c-23-11.8-39-24.7-55.3-39.2c-13.5,4-29,8-47,11.9c-38,8.1-74.2,16.4-107.7,23.6V401.4c0.6,0.4,0.8,0.9,1.7,1.2
			c1.5,0.5,5.1,0.5,8.4-0.5c3.3-1,7.9-3.5,8.7-3.3c0.8,0.2,1.9,1.5,3.5,1.5c1.6,0,3.4-0.1,4.2-0.8c0.9-0.7,0.8-2.3,2.6-2.2
			c1.8,0.1,3.1,1.8,4,1.6c0.9-0.1-0.7-3.6,0.6-3.9c1.3-0.3,2.6-0.8,3.9-1.4c1.3-0.6-0.1-2.8-0.1-2.8s1.6-1.4,3.9-2.6
			c2.3-1.2,1-2.1,2.9-3c1.9-0.9,2.4-0.7,4.2-0.7c1.8,0,2.1,0.5,3.4,1c1.3,0.5,4,1.4,5.6,1.8c1.7,0.4,2.3,1.1,2.5,2.9
			c0.2,1.8-0.5,3.1,1.9,3.2c2.4,0.1,4.2-0.3,4.9,0.7c0.7,0.9,0.3,1.4,3.6,1.1c3.3-0.2,1.9-1,7.2-1c5.3-0.1,5.8-0.4,6.7,1
			c0.9,1.4,6.8,7.2,12.3,8.4c5.5,1.3,7.1,1.8,10.7,2.4c3.6,0.6,4.9,0.1,7.1,1.5c0.5,0.3,3.1,2.2,6.9,5.1c2,0.2,4.4-0.2,5.1-0.4
			c0.8-0.2,0.9-0.8,1.6-1.4c0.7-0.6,1.2-0.1,3.1-0.1c1.8,0,2.8,0.1,4.1-0.3c1.3-0.3,0.7-0.6,3.1-1c2.4-0.3,2.8,0.6,6,1
			c3.2,0.3,3.9,0.8,6.6,1.9c2.7,1,2.9,1.5,5.7,3c2.8,1.5,9.3,6.2,10.4,6.8c1.1,0.6,1.5,1.2,1.7,1.8c0.2,0.6,2.6,1.5,3.4,2
			c0.8,0.5,3.3,1,4.1,1.9c0.7,1,7.3,6,7.3,6s0.9-0.4,4.8-0.7c3.9-0.3,2.4,0.2,4.2-0.4c1.8-0.6,3.4-0.6,8.5-0.7c5.1,0,7.7,1.1,10,1.4
			c2.3,0.4,8.7,2.4,12.6,3.3c3.9,0.9,2.7,1.2,4.7,2c2,0.8,3.5,0.2,4.7-0.2c1.2-0.4,2.6-0.9,3.6-1.2c0.9-0.3,2.6,0.6,3.7,0.9
			c1.1,0.3,2,0.4,3.1-0.3c1-0.7,4.1-0.7,4.1-0.7s3.3-1.4,5.7-1.8c2.4-0.4,2.3,0.4,4.3,0.5c2,0.1,3.2-1.4,5.6-1.8
			c2.4-0.5,7-0.4,8.8-1.4c1.8-0.9,1.6,0.5,4.3,2c2.8,1.5,6.6,2.1,8.4,2.6c1.9,0.6,2.3,2.4,3.6,4.6c1.3,2.1,1.6,5.3,6.3,6.4
			c4.8,1,2.8,1.3,4.1,2.4c1.3,1.1,2,1.4,5,1.4c3,0,20.2-0.9,21.1-1.9c0.9-1,4-0.7,6.4-1.4c2.5-0.7,7.1-1.6,7.3-1.7
			c0.1-0.1,0.7-0.9,1.3-1.6c0.6-0.7,0.7-0.5,2-0.5c1.3,0,1.8,0.1,3.4,0.2c1.6,0.1,3.3-0.3,4.3-1.2c1.1-0.9,0.6,0,2.3,0.1
			c1.8,0.1,2-0.2,4.2-0.5c2.1-0.3,1.2-0.5,2.2-0.4c1,0.2,4.6,2,5.2,3.7c0.6,1.7,1.8,1,5.6,3.6c3.3,2.2,4,5.9,4.1,7.8
			C379.7,460.5,387.3,463.4,395.2,467.1z"/>
		<linearGradient id="SVGID_7_" gradientUnits="userSpaceOnUse" x1="995.9853" y1="949.5666" x2="995.9853" y2="506.965">
			<stop  offset="0" style="stop-color:#61C3AD"/>
			<stop  offset="1" style="stop-color:#2E3192"/>
		</linearGradient>
		<path class="st6" d="M666.8,588.4c-0.2-0.1-0.3-0.2-0.5-0.2c-3.3-1.5-6.8-2.8-10.3-4c-9.6-3.3-19.5-6.2-29.3-8.7
			c-2.2-0.6-5.2-1.6-5.2-4.4c0-2.1,1.8-3.3,3.6-3.9c1.7-0.6,3.6-1,5.3-1.4c5.8-1.1,11.9-1.8,17.7-2.5c17.7-1.9,35.5-3.2,53.3-4.4
			c16.7-1.2,33.4-2.2,50.1-3.3c5.9-0.4,11.8-0.8,17.8-1.3c1.9-0.2,3.8-0.3,5.7-0.5c1-0.1,2-0.2,3-0.4c0.2,0,0.5-0.1,0.9-0.2
			c-2.1-1.4-5.3-3.3-6.3-3.8c-7-4-13.9-7.9-20.8-12c-2.2-1.3-4.3-3.2-4.2-6c0.1-3.9,4.5-6.2,7.5-7.6c4.9-2.2,10.6-3.6,15.8-4.8
			c7.2-1.7,14.5-3,21.8-4.2c8.3-1.3,16.6-2.4,25-3.4c15.8-1.9,31.8-3.3,47.6-4.1c5.3-0.3,10.7-0.5,16-0.3c1.6,0.1,3.3,0.1,4.9,0.4
			c1.8,0.3,3.7,1.1,4,3.2c0.2,2-1.3,3.2-2.9,3.9c-2.9,1.2-5.8,2.4-8.7,3.5c-4,1.5-8.2,3-12.1,4.8c-0.9,0.4-4,1.9-5.2,2.9
			c1,0.6,2.8,1.2,3.5,1.4c3.9,1.2,8.3,2,12.4,2.6c8.2,1.3,16.3,2.8,24.4,4.4c10.6,2.1,21.1,4.4,31.6,6.9c7.8,1.9,15.7,3.8,23.4,6
			c6.8,1.9,13.7,3.9,20.4,6.3c4.8,1.7,10.1,3.7,14.6,6.3c2.9,1.6,6.8,4.4,6.5,8.1c-0.4,4-5,5.7-8.3,6.7c-2.7,0.8-5.5,1.3-8.3,1.7
			c-3.9,0.6-7.9,1-11.8,1.3c-30.8,2.3-61.6,4.5-92.4,7.1c-10.3,0.9-20.8,1.8-31.1,3c-0.5,0.1-1.1,0.1-1.6,0.2
			c4.1,0.5,8.3,0.9,12.4,1.4c10.5,1.1,20.9,2.1,31.4,3.2c13.3,1.3,26.6,2.7,39.8,4.4c4.4,0.6,8.9,1.2,13.3,2.2
			c2.5,0.5,7.3,1.4,7.2,4.8c0,1.4-1,2.5-2.2,3c-1.3,0.6-3,1-4.4,1.3c-2.2,0.5-4.4,0.9-6.6,1.3c-5.7,1.1-11.5,2-17.3,3.1
			c-5.7,1-11.5,2.2-17.1,3.7c-1.2,0.3-5.2,1.5-7.3,2.5c2.1,1,6.1,2,7.3,2.3c3.5,0.8,7,1.4,10.5,2c5,0.8,10,1.5,15,2.1
			c5,0.6,10.1,1,15.2,1.4c6.9,0.5,13.7,1,20.6,1.4c18.1,1,36.2,1.8,54.3,2.6c46.5,1.9,92.9,3.6,139.4,5.6
			c29.4,1.3,58.7,2.7,88.1,4.5c25.7,1.6,51.4,3.3,77,5.9c10.3,1,20.6,2.2,30.9,3.7c8,1.1,16.1,2.4,24,4.2c5.3,1.2,11.2,2.7,16,5
			c3.2,1.5,7.1,3.9,7.3,7.8c0.4,6-8.5,9.9-13,11.8c-5,2.1-10.3,3.7-15.5,5.2c-7.4,2.1-14.9,3.9-22.4,5.6
			c-13.9,3.1-27.8,6.4-41.5,10.2c-9.5,2.6-19.1,5.6-28.2,9.2c-5.1,2-11.2,4.7-15.6,8.1c-1.4,1.1-4,3.3-3.9,5.4
			c0.1,2.4,3.9,4.8,5.7,5.9c5.5,3.2,12.7,5.5,18.8,7.3c9.9,2.9,20.1,5.1,30.2,7.1c13.3,2.6,26.6,4.8,40,6.9
			c34.5,5.3,69.2,9.6,103.8,13.8c42.2,5.1,84.4,9.9,126.6,15c36.8,4.4,73.5,10.8,109.8,18.1c40.6,8.2,80.9,17.7,120.9,28.3
			c35.1,9.3,70,19.4,104.5,30.5v94.2H308.3c-20-7.4-39.9-15.1-59.7-23c-20.5-8.2-40.8-16.7-61-25.5c-17.1-7.5-34.1-15.4-50.8-23.8
			c-6.8-3.4-13.6-7-20.3-10.7c-5.5-3.1-10.9-6.3-16.2-9.7c-11.5-7.5-30.1-21.5-27.7-37.4c1.9-13.2,17.4-21.9,28.4-26.9
			c9.1-4.1,18.8-7.4,28.4-10.2c11.8-3.5,23.9-6.3,36-8.8c29.3-6.1,59.1-10.5,88.8-14.3c33.6-4.3,67.4-7.8,101.1-11
			c34.5-3.3,69-6.3,103.4-9.4c30.1-2.7,60.3-5.4,90.4-8.8c12.1-1.4,24.1-2.9,36.1-4.7c9.3-1.4,18.7-3,27.9-5.1
			c3.4-0.8,6.9-1.7,10.2-2.7c2.5-0.8,5.1-1.7,7.4-2.8c1.2-0.6,5.1-2.6,5.2-4.1c0.1-1-1.7-2.6-2.4-3.1c-3.1-2.4-7.5-4.4-11.2-5.8
			c-4.1-1.7-8.8-3.8-12.3-6.5c-2.5-1.9-4.7-4.7-4.5-8c0.3-5.8,8-9.4,12.6-11.3c4-1.7,8.2-3,12.4-4.3c5.2-1.5,10.5-2.9,15.8-4.2
			c13.1-3.1,26.3-5.8,39.5-8.5c15.2-3.1,30.4-6.1,45.6-9.3c4.8-1,10.7-2.4,15.1-4.7c0.7-0.4,3.4-1.9,3.5-2.9c0-0.5-0.8-1.4-1.1-1.7
			c-1.4-1.4-3.4-2.5-5.1-3.4c-2.8-1.5-5.7-2.7-8.7-3.8c-3.8-1.4-7.6-2.7-11.5-3.9c-9.6-2.9-19.4-5.4-29.2-7.6
			c-11.2-2.6-22.5-4.9-33.8-7c-14.5-2.8-29.1-5.3-43.8-7.6c-11.5-1.8-23-3.5-34.6-5c-3.6-0.5-7.3-0.9-10.8-1.8
			c-2.2-0.5-5.5-1.4-5.4-4.3c0.1-3.2,4.4-3.7,6.9-4.1c3.9-0.6,7.9-0.8,11.8-1.1c11.7-0.7,23.5-1.1,35.2-1.4
			c10.5-0.3,21.1-0.5,31.6-0.7c3.9-0.1,7.8-0.2,11.7-0.3C664.3,588.5,665.6,588.5,666.8,588.4z"/>
		<linearGradient id="SVGID_8_" gradientUnits="userSpaceOnUse" x1="1021.7479" y1="949.5666" x2="1021.7479" y2="540.9485">
			<stop  offset="0" style="stop-color:#61C3AD"/>
			<stop  offset="1" style="stop-color:#4981C2"/>
		</linearGradient>
		<path class="st7" d="M1919.6,907.5v42.1H308.3c-20-7.4-39.9-15.1-59.7-23c-20.5-8.2-40.8-16.7-61-25.5
			c-17.1-7.5-34.1-15.4-50.8-23.8c-4.3-2.2-8.6-4.4-12.8-6.7c9.3-11.1,96.5,7.9,96.5,7.9c21.4-42.9-74.3-44.3,87.1-77.1
			c161.4-32.9,410-70,381.4-92.9c-10-8-59.1-17.8-56.4-21.8c14.2-20.7,248-31,97.9-79.6c-52.9-17.1-77.1-20,10-32.9
			c87.1-12.9,78.6-15.7,60-28.6c-18.6-12.9,100,4.3,112.9,12.9c12.9,8.6-107.1,27.1-108.6,31.4c-1.4,4.3,90,17.1,81.4,24.3
			c-8.6,7.1-71.4,20,121.4,34.3c192.9,14.3,292.9,15.7,272.9,27.1c-20,11.4-165.7,45.7-75.7,71.4
			C1278.6,768.1,1633.6,847.9,1919.6,907.5z"/>
		<linearGradient id="SVGID_9_" gradientUnits="userSpaceOnUse" x1="1378.4222" y1="641.3495" x2="1378.4222" y2="309.8323">
			<stop  offset="0" style="stop-color:#745CA7"/>
			<stop  offset="1" style="stop-color:#0D1138"/>
		</linearGradient>
		<path class="st8" d="M1156.6,376.4c-1.8,0.7-1.5,0.2-2.8,0.7c-1.2,0.6-4.1,1.9-4.7,1.6c-0.6-0.3-1.3-0.9-2-0.8
			c-0.8,0-0.9-0.2-2.1,0.4c-1.2,0.6-3.3,1.7-4.2,2c-0.9,0.3-1.6,0.4-2.1,0.2c-0.6-0.1-1.3,0-2.7,0.4c-1.4,0.4-3.3,0.8-4.2,0.2
			c-0.9-0.5-2.1-1-2.6-0.8c-0.6,0.2-1.2,1.3-2.3,1.3c-1.1,0-2.1-0.8-2.9-0.8c-0.7,0.1-3,1-3.9,1.4c-0.9,0.4-1.9,1.3-3,1.4
			c-1.1,0-1.9-0.1-2.4-0.1c-0.5,0.1-1,0.1-2.4,0.9c-1.4,0.8-2.5,2.3-3.9,3.2c-1.4,1-4.6,2-5.8,3.6c-1.2,1.6-5,5.9-7.4,8.2
			c-2.3,2.3-3.1,1.7-5.3,3.8c-2.2,2.1-3.4,3.1-6.8,5.2c-3.4,2.1-7.2,4.3-8.7,4.2c-1.5-0.1-2.8-0.5-4.2-0.1c-1.4,0.4-2.3-0.2-2.7-0.6
			c-0.4-0.4-2-0.4-2.7-0.2c-0.7,0.3-4.1-0.8-4.9-1.1c-0.8-0.3-1.3-0.1-2.3,0.4c-1.1,0.5-4.4,1.5-5.7,1c-1.3-0.5-1.1-1-2.1-0.5
			c-1.1,0.5-3.4,1.9-4.1,1.5c-0.7-0.4-0.4-0.9-1.8-0.1c-1.4,0.9-3.7,4-5.2,6.1c-1.5,2.1-3.1,4.2-4.6,5.5c-1.4,1.4-1.1,3.6-1.6,5.6
			c-0.5,2-3.2,5.5-3.1,6.5c0.1,1,1-0.2,0,2.5c-1,2.7-3,9.6-4.9,10c-1.9,0.4-2.2,0.7-4.5,0.4c-2.3-0.4-3-0.4-4.3,0.3
			c-1.4,0.7-3.7,1.7-5.8,3.9c-2.1,2.2-5.3,5.2-6.8,6.1c-1.5,0.9-4.5,5.5-6.2,7.9c-1.7,2.4-2.8,4.1-3.1,5.4c-0.2,1.3-0.2,2.6-0.9,3.9
			c-0.7,1.3-1.5,3.6-2.5,4.6c-1.1,1-2.4,3.1-3.4,3.1c-1,0-1.6-0.4-2.1-0.5c-0.5-0.1-5.3,1.9-5.8,2c-0.5,0.1,0.4-0.5-1.1-0.1
			c-1.4,0.4-1.9,0.7-2.3,0.8c-0.4,0.1-3-1.7-3.6-2c-0.5-0.2-0.9-1.2-2.5-0.8c-1.6,0.4-4.1,1.3-5.2,1.3c-1.1,0-2.9,0.3-3.1,0.3
			c-0.2,0-1.8,1.1-2.5,1.1c-0.7,0-0.1-0.4-1.2-0.4c-1.1,0-2,0.3-2.8,0.4c-0.8,0.2-0.7-0.2-1.8,0.3c-1.1,0.5-2.5,0-3.7,0.4
			c-1.2,0.4-1.8,0.9-2.5,1c-0.7,0.1-3.1,0.3-4.7-0.2c-1.5-0.4-2.6-0.5-3-1c-0.5-0.5,0.1-0.9-1.4-0.4c-1.5,0.5-5.8,3.1-7.4,4.9
			c-1.6,1.8-3.1,2.7-4.6,3.3c-1.6,0.6-2.1,1.3-2.8,1.9c-0.6,0.6-1.3,2-4.6,3.5c-3.3,1.5-3.5,2.2-5.2,2.5c-1.8,0.3-3-0.1-3.6,0.2
			c-0.6,0.3-0.5,1.3-2.2,2c-1.7,0.8-6.3,0.2-6.3,0.2s0.1,0.7-1.2,1.2c-1.2,0.5-4.6,1-6.2,1.7c-1.4,0.5-2.3-0.3-6,2.3
			c0.2,0.3-0.2,0.7-1.2,1.1c-0.2,0.1-0.4,0.2-0.6,0.2c-1,0.8-3,1.6-5.7,2.3c-17.3,6.7-37.4,12.9-3.2,18.1
			c38.4,5.9,174.8,35.7,92.7,41.9c-58.2,4.4-112.8,8.2-131.7,11.3c-0.1,1.3-0.3,2.6-0.4,3.8c26.4,3.6,116.4,10.4,107.9,14.4
			c-8.9,4.1-106.3,13-18.9,23.6c39.4,4.8,171.9,7.7,286.2,13.7c7-4,12.9-8,18.9-12.8c2.1-1.7,4.1-4.6,5.9-8.4l448.3,20.8
			c24.1-14.4,50.3-30.1,84.5-46.3l4.5-96c31.9,28.2,48,50.5,83.6,70.4c31.6,17.7,33.9,41.2,61.5,50.5V358.6
			c-1.8,0.6-5.4,0.5-7.4,0.8c-2.1,0.3-3.3,1.6-5,1.4c-1.7-0.2-1.7-0.8-3.8-0.6c-2.1,0.3-5.1,1.4-5.1,1.4s-2.7-0.1-3.7,0.5
			c-0.9,0.6-1.8,0.5-2.7,0.2c-1-0.3-2.4-1.2-3.3-1c-0.8,0.2-2.1,0.6-3.2,0.9c-1.1,0.3-2.4,0.7-4.2,0c-1.8-0.7-0.6-1-4.1-1.9
			c-3.5-0.9-9.1-2.9-11.1-3.3c-2-0.4-4.4-1.5-8.9-1.6c-4.5-0.1-5.9-0.2-7.5,0.3c-1.6,0.5-0.2,0.1-3.7,0.2c-3.5,0.1-4.3,0.5-4.3,0.5
			s-5.6-4.6-6.3-5.5c-0.6-0.9-2.9-1.4-3.6-1.8c-0.7-0.5-2.7-1.3-2.9-1.9c-0.2-0.5-0.5-1.1-1.5-1.6c-1-0.6-6.5-4.9-9-6.3
			c-2.5-1.4-2.6-1.8-5-2.8c-2.3-1-3-1.5-5.8-1.9c-2.8-0.4-3.2-1.3-5.3-1c-2.1,0.2-1.6,0.5-2.8,0.8c-1.1,0.2-2,0.2-3.6,0.1
			c-1.6-0.1-2.1-0.6-2.7,0c-0.6,0.5-0.8,1-1.5,1.2c-0.7,0.2-3,0.5-4.8,0.2c-1.8-0.3-1.6-0.8-4-0.7c-1.4,0-2,0-2.5,0.1
			c-2.6-0.5-5.1-1.5-6-1.9c-1.1-0.6-1.2-1.4-2-2.6c-0.8-1.2-1.8-0.5-4.5-1c-2.7-0.5-4.2-0.8-6-1.6c-1.8-0.9-0.9-1.2-4.3-2.4
			c-3.4-1.2-4.4,0.1-9.2-0.4c-4.8-0.4-6.1,0.1-10.4,0.8c-4.3,0.8-4.7,1.3-9.4,2.8c-4.7,1.4-15.6,6.4-17.4,7
			c-1.8,0.5-2.5,1.3-3.1,2.1c-0.5,0.8-4.3,1.4-5.6,1.9c-1.3,0.5-5.2,0.4-6.6,1.7c-1.4,1.2-12.6,6.7-12.6,6.7s-1.1-0.9-6.9-2.5
			c-5.7-1.6-3.6-0.4-6.1-1.9c-2.5-1.5-4.8-2-12.4-3.5c-7.5-1.6-11.8-0.7-15.3-0.9c-3.5-0.2-13.6,1-19.7,1.1c-6.1,0.1-4.3,1-7.5,1.5
			c-3.2,0.5-5.3-0.7-6.9-1.7c-1.6-1-3.6-2.1-5-2.8c-1.3-0.7-4,0.1-5.8,0.3c-1.7,0.1-3.1-0.1-4.5-1.4c-1.3-1.3-5.9-2.2-5.9-2.2
			s-4.4-3.1-7.8-4.4c-3.4-1.3-3.6-0.2-6.5-0.6c-2.9-0.4-4.4-3-7.8-4.4c-3.4-1.4-10.3-2.8-12.6-4.7c-2.4-1.9-2.5,0.3-7,1.7
			c-4.5,1.4-10.3,1.1-13.3,1.4c-2.9,0.3-4.2,2.9-6.8,5.7c-2.6,2.8-3.9,7.4-11.3,7.5c-7.4,0.1-4.5,1.1-6.8,2.4
			c-2.3,1.2-3.4,1.4-7.9,0.5c-4.4-0.9-29.7-7.4-30.7-9.1c-1-1.7-5.7-2.2-9.2-3.9c-3.4-1.7-10.1-4.5-10.3-4.7
			c-0.2-0.2-0.8-1.5-1.5-2.8c-0.7-1.3-0.9-1-2.8-1.4c-1.9-0.4-2.7-0.3-5.1-0.7c-2.4-0.3-4.8-1.4-6.1-3.1c-1.3-1.7-0.8-0.2-3.5-0.6
			c-2.6-0.4-2.9-0.9-6-2c-3.1-1.1-1.6-1.1-3.2-1.2c-1.6-0.1-7.5,1.6-8.8,3.9c-1.4,2.3-2.9,0.9-9.4,3.6c-6.5,2.7-8.3,9.5-8.8,11.4
			c-0.5,1.9-5.9,2.4-9.8,4.3c-3.9,1.9-6.3,9.2-8.2,9.8c-1.9,0.6-4.2-1.3-4.7-1.6c-0.5-0.3-17.1-1.2-23.6-2.5c-6.5-1.3-6-2.3-7.5-2.8
			c-1.5-0.5-4.4-0.7-8-0.3c-3.6,0.3-2.8,0.8-5.2,2.3c-2.4,1.5-4.9,2.1-6.1,2.6c-1.3,0.4-6,2.2-9.8,2.2c-3.8,0-18.2,2.7-19.5,2
			c-1.3-0.7-5.2-2.5-6.5-2.6c-1.2-0.1-4.9,1.3-6.2,1.8c-1.3,0.4-6.8,2.2-9.3,3.2c-2.5,1-9.5,3.1-15.9,5.1c-6.4,1.9-7.7,2.8-11.8,4.4
			c-4.1,1.6-1.8,0.8-3.7,2.1c-1.8,1.3-5.1,3.1-9.8,3.1c-4.7,0-7.6,0.3-15.3,2.2c-7.7,1.9-8.9,2.9-10.7,3.8c-1.8,0.8-4.3,1.8-7.5,3
			c-3.2,1.2-3.2,1.4-7.7,2.5c-4.5,1.1-7.4,0.8-10.6,2.2c-3.2,1.4-2.3,0.8-7.5,2.3c-1.4,0.6-2.7,1.2-4.1,1.8
			C1162.6,378.4,1159.6,377.3,1156.6,376.4z"/>
		<linearGradient id="SVGID_10_" gradientUnits="userSpaceOnUse" x1="1344.8099" y1="949.5666" x2="1344.8099" y2="748.0376">
			<stop  offset="0" style="stop-color:#745CA7"/>
			<stop  offset="1" style="stop-color:#0D1138"/>
		</linearGradient>
		<path class="st9" d="M1919.6,884.1c-57.9-11.7-112.1-26.4-143-33.8c-49.6-11.8-69.7-20.1-131.1-18.9c-61.4,1.2-59.1,7.1-87.4-3.5
			c-28.3-10.6-31.9-14.2-41.3-11.8c-5.7,1.4-10.5,5-18.9,6.8c0.2-2.2,0.5-4.3,0.7-6.4c-0.6,1.9-1.2,4.2-1.8,6.6
			c-1.3,0.2-2.6,0.5-4,0.6c-0.1-0.7-0.2-1.4-0.3-2.1c-0.1,0.7-0.2,1.4-0.2,2.1c-0.4,0-0.8,0.1-1.1,0.1c0.2-1.8,0.4-3.5,0.6-5.1
			c-0.5,1.6-1,3.3-1.5,5.2c-0.8,0-1.6,0.1-2.5,0.1c0-0.4,0-0.7,0-1.1c-0.1,0.4-0.2,0.7-0.2,1.1c-1.6,0-3.4,0-5.2-0.1
			c-0.1-0.3-0.3-0.6-0.4-1c0,0.3,0,0.6,0.1,0.9c-0.3,0-0.6,0-0.9-0.1c0.2-1.3,0.4-2.5,0.6-3.7c-0.6,1.1-1.2,2.3-1.8,3.6h0
			c0.2-1.9,0.4-3.7,0.6-5.5c-0.5,1.6-1,3.4-1.5,5.4c-0.5-0.1-1-0.1-1.5-0.2l0-0.8c-0.1,0.2-0.1,0.5-0.2,0.7
			c-0.5-0.1-0.9-0.1-1.4-0.2c0.3-4,0.8-7.8,1.2-11.4c-1,3.1-2,6.9-2.7,11.2c-0.4-0.1-0.8-0.1-1.2-0.2c0.1-0.9,0.2-1.7,0.3-2.5
			c-0.2,0.8-0.5,1.6-0.7,2.4c-0.4-0.1-0.8-0.1-1.2-0.2c-0.1-2-0.3-3.9-0.5-5.6c-0.2,1.8-0.4,3.6-0.7,5.4c-0.3-0.1-0.7-0.1-1-0.2
			c0.3-2.8,0.6-5.5,0.9-8.2c-0.7,2.3-1.5,5-2.1,7.9c-0.6-0.1-1.3-0.2-1.9-0.4c0-1.2,0.1-2.3,0.1-3.4c-0.2,1-0.5,2.1-0.7,3.3l-0.1,0
			c-0.4-12.6,0.7-24.2,1.9-34c-1.2,3.8-2.4,8.5-3.2,13.9c0-3.3,0.1-6.4,0.2-9.4c-1.6,7.2-2.8,17.9-1.6,29.1l-0.4-0.1
			c-1-14.9,0.2-28.5,1.7-39.9c-1,3.2-2.1,7.2-2.8,11.7c-0.7,2.3-1.4,5-2,7.9c0.3-3.9,0.8-7.6,1.2-11.1c-0.6,2-1.3,4.3-1.8,6.7
			c0-3.7-0.2-7.1-0.6-10.1c-0.6,5.1-1.4,10.6-2.6,16.4c0.4-7,1-13.4,1.8-19.3c-1.8,5.6-3.5,13.4-4,22.1c-0.2-6.4-0.1-12.4,0.1-17.9
			c-0.9,4-1.6,9-2,14.5c-0.6-5.6-2.1-10.6-3.9-14.5c0.5,7,0.7,14.7-0.3,23.1c-0.1-4.8,0-9.4,0.2-13.7c-0.8,3.7-1.5,8.3-1.9,13.4
			c-0.5-9.5,0.5-18.1,1.7-25.7c-0.6,1.1-1.2,2.3-1.8,3.6c0.2-1.9,0.4-3.7,0.6-5.5c-1,3-1.9,6.7-2.7,10.8c-0.2,0.6-0.3,1.1-0.5,1.7
			c0-2.8,0.1-5.4,0.2-8c-1.7,7.3-2.8,18.3-1.6,29.7l-0.4-0.1c-1.1-15.2,0.2-29,1.6-40.4c-1,3.2-2.1,7.2-2.8,11.7
			c-0.7,2.3-1.4,5-2,7.9c0.3-3.9,0.8-7.6,1.2-11.1c-0.6,2-1.3,4.3-1.8,6.7c0-3.7-0.2-7.1-0.6-10.1c-0.6,5.1-1.4,10.6-2.6,16.4
			c0.4-7,1-13.4,1.8-19.3c-1.8,5.6-3.5,13.4-4,22.1c0-1.1-0.1-2.2-0.1-3.2c0.1-0.6,0.1-1.2,0.2-1.7c-0.1,0.2-0.2,0.5-0.2,0.7
			c-0.1-4.8,0-9.4,0.2-13.7c-0.9,4-1.6,9-2,14.5c-0.3-2.6-0.8-5.1-1.4-7.3l0.1-0.6c0,0.1-0.1,0.3-0.1,0.4c-0.7-2.6-1.6-4.9-2.5-7
			c0.3,4.8,0.5,9.9,0.3,15.3c-0.2,0.9-0.4,1.9-0.5,2.9l-0.1,0.2c0-3.1,0.1-6.1,0.2-9c-0.4,1.8-0.8,3.9-1.1,6.2c-0.3,1-0.6,2-0.9,3.1
			c-0.1-7.8,0.8-15.1,1.8-21.5c-2.7,4.7-5,11.1-5.8,18.3c-1,4.2-1.8,9-2.1,14.2l-0.1,0c-0.2-5.9,0-11.5,0.1-16.7
			c-0.9,4-1.6,9-2,14.5c-0.6-5.6-2.1-10.6-3.9-14.5c0.3,4.8,0.6,10.1,0.3,15.7l-0.5-0.1c0-2.1,0.1-4.2,0.2-6.1
			c-0.4,1.8-0.8,3.8-1.1,6l-0.9-0.2c0.2-6.5,0.9-12.6,1.8-18.1c-0.6,1.1-1.2,2.3-1.8,3.6c0.2-1.9,0.4-3.7,0.6-5.5
			c-1,3-1.9,6.7-2.7,10.8c-0.2,0.6-0.3,1.1-0.5,1.7c0-2.8,0.1-5.4,0.2-8c-0.9,4-1.7,9.1-2,14.7l-0.3-0.1c0.2-9.3,1-17.9,2-25.5
			c-1,3.2-2,7.2-2.8,11.7c-0.7,2.3-1.4,5-2,7.9c0.3-3.9,0.8-7.6,1.2-11.1c-0.6,2-1.3,4.3-1.8,6.7c0.1-3.7-0.2-7.1-0.6-10.1
			c-0.6,5.1-1.4,10.6-2.6,16.4c0.4-7,1-13.4,1.8-19.3c-1.8,5.5-3.5,13.2-4,21.7l0,0c-0.2-6.3-0.1-12.2,0.1-17.6c-0.9,4-1.6,9-2,14.5
			c-0.6-5.6-2.1-10.6-3.9-14.5c0.4,5.1,0.6,10.7,0.3,16.6l-0.5-0.1c0-2.4,0.1-4.8,0.2-7.1c-0.5,2-0.9,4.4-1.2,6.9l-0.8-0.1
			c0.1-6.9,0.9-13.3,1.8-19.1c-2.7,4.7-5.1,11.2-5.8,18.4c-34.9-5.8-78.6-11.9-130.2-16.5c-56.3-5-116.2-10.8-163.1-11
			c0.3-7.2,1-13.9,1.8-20c-1.2,3.8-2.4,8.5-3.2,13.9c0-3.3,0.1-6.4,0.2-9.4c-0.9,4.2-1.7,9.6-2,15.5c-0.1,0-0.2,0-0.3,0
			c0.1-9.7,1-18.6,2-26.4c-1,3.2-2.1,7.2-2.8,11.7c-0.7,2.3-1.4,5-2,7.9c0.3-3.9,0.8-7.6,1.2-11.1c-0.6,2-1.3,4.3-1.8,6.7
			c0-3.7-0.2-7.1-0.6-10.1c-0.6,5.1-1.4,10.6-2.6,16.4c0.4-7,1-13.4,1.8-19.3c-1.8,5.6-3.5,13.4-4,22.1c-0.2-6.4-0.1-12.4,0.1-17.9
			c-0.9,4-1.6,9-2,14.5c-0.6-5.6-2.1-10.6-3.9-14.5c0.4,6.2,0.7,13,0,20.2l-0.3,0c0-3.8,0.1-7.4,0.2-10.8c-0.7,3.1-1.3,6.8-1.7,10.9
			l-0.3,0c-0.2-8.5,0.7-16.3,1.8-23.2c-0.6,1.1-1.2,2.3-1.8,3.6c0.2-1.9,0.4-3.7,0.6-5.5c-1,3-1.9,6.7-2.7,10.8
			c-0.2,0.6-0.3,1.1-0.5,1.7c0-2.8,0.1-5.4,0.2-8c-1.2,5.4-2.2,12.7-2.1,20.8l-0.2,0c-0.2-11.7,0.8-22.4,2-31.6
			c-1,3.2-2.1,7.2-2.8,11.7c-0.7,2.3-1.4,5-2,7.9c0.3-3.9,0.8-7.6,1.2-11.1c-0.6,2-1.3,4.3-1.8,6.7c0-3.7-0.2-7.1-0.6-10.1
			c-0.6,5.1-1.4,10.6-2.6,16.4c0.4-7,1-13.4,1.8-19.3c-1.8,5.6-3.5,13.4-4,22.1c-0.2-6.4-0.1-12.4,0.1-17.9c-0.9,4-1.6,9-2,14.5
			c-0.6-5.6-2.1-10.6-3.9-14.5c0.5,7,0.7,14.7-0.3,23.1c-0.1-4.8,0-9.4,0.2-13.7c-0.8,3.7-1.5,8.3-1.9,13.4
			c-0.5-9.5,0.5-18.1,1.7-25.7c-4,7.1-7.4,18.1-5.6,30c-0.4,0.1-0.9,0.1-1.3,0.2c0-2.1,0.1-4.1,0.2-6.1c-0.4,1.9-0.8,3.9-1.1,6.2
			c-0.8,0.1-1.6,0.2-2.4,0.4c-0.7-2.4-1.5-4.6-2.4-6.6c0.2,2.2,0.3,4.5,0.4,6.9c-0.7,0.1-1.3,0.2-1.9,0.4c0.3-3.6,0.8-7,1.3-10.2
			c-0.6,1.1-1.2,2.3-1.8,3.6c0.2-1.9,0.4-3.7,0.6-5.5c-1,3-1.9,6.7-2.7,10.8c-0.2,0.6-0.3,1.1-0.5,1.7c0-2.8,0.1-5.4,0.2-8
			c-0.6,2.5-1.1,5.3-1.4,8.5c-0.2,0.1-0.4,0.1-0.7,0.2c0.3-7,1-13.6,1.8-19.5c-1,3.2-2.1,7.2-2.8,11.7c-0.7,2.3-1.4,5-2,7.9
			c0.3-3.9,0.8-7.6,1.2-11.1c-0.6,2-1.3,4.3-1.8,6.7c0-3.7-0.2-7.1-0.6-10.1c-0.6,5.1-1.4,10.6-2.5,16.3l0,0
			c0.4-6.9,1-13.4,1.8-19.2c-1.7,5.2-3.2,12.2-3.9,20c-0.1,0-0.1,0.1-0.2,0.1c-0.1-5.7,0-11,0.2-15.9c-0.9,4-1.6,9-2,14.5
			c-0.6-5.6-2.1-10.6-3.9-14.5c0.4,5.6,0.6,11.8,0.2,18.4c-0.1,0.1-0.3,0.2-0.4,0.2c0-3.2,0.1-6.3,0.2-9.2c-0.6,2.9-1.2,6.2-1.6,10
			c-0.1,0.1-0.3,0.2-0.4,0.3c-0.2-8.2,0.7-15.8,1.8-22.6c-3.6,6.3-6.6,15.6-6.1,25.9c-4.1,4-5.8,8.9-4.8,15
			c7.1,43.7-24.8,43.1-49,49c-24.2,5.9-26,3.5-36.6,13c-10.6,9.4-16.5,13.6-21.3,20.7c-4.7,7.1-25.4,18.9-39,22.4
			c-2,0.5-5.2,1.5-9.1,2.7c0.2-2.2,0.5-4.4,0.7-6.5c-0.6,2-1.3,4.3-1.8,6.8c-0.4,0.1-0.8,0.3-1.2,0.4c0-0.9,0.1-1.8,0.1-2.7
			c-0.2,0.9-0.4,1.9-0.6,2.9c-0.4,0.1-0.8,0.2-1.2,0.4c0.4-5,0.9-9.7,1.4-14.1c-1,3.2-2.1,7.2-2.8,11.7c-0.3,1-0.6,2-0.9,3.2
			l-0.7,0.2c0.2-2.3,0.5-4.5,0.8-6.6c-0.6,2-1.3,4.3-1.8,6.7c0.1-3.7-0.2-7.1-0.6-10.1c-0.4,3.5-0.9,7.2-1.5,11l-0.7,0.2
			c0.4-5,0.9-9.8,1.4-14.1c-1.3,4-2.5,9.1-3.3,14.8l-0.8,0.3c0-3.8,0.1-7.4,0.2-10.8c-0.7,3.2-1.3,7.1-1.7,11.3l-0.6,0.2
			c-0.8-4.4-2-8.3-3.5-11.6c0.3,3.9,0.5,8.2,0.4,12.6l-0.6,0.2c0-1.1,0.1-2.3,0.1-3.4c-0.2,1.1-0.5,2.3-0.7,3.6l-1.2,0.4
			c0.2-5.8,0.9-11.3,1.7-16.3c-0.6,1.1-1.2,2.3-1.8,3.6c0.2-1.9,0.4-3.7,0.6-5.5c-1,3-1.9,6.7-2.7,10.8c-0.2,0.6-0.3,1.1-0.5,1.7
			c0-2.8,0.1-5.4,0.2-8c-0.9,4.1-1.7,9.4-2,15.2l-0.3,0.1c0.1-9.6,1-18.4,2-26.1c-1,3.2-2.1,7.2-2.8,11.7c-0.7,2.3-1.4,5-2,7.9
			c0.3-3.9,0.8-7.6,1.2-11.1c-0.6,2-1.3,4.3-1.8,6.7c0-3.7-0.2-7.1-0.6-10.1c-0.6,5.1-1.4,10.6-2.6,16.4c0.4-7,1-13.4,1.8-19.3
			c-1.8,5.6-3.5,13.4-4,22.1c-0.2-6.4-0.1-12.4,0.1-17.9c-0.9,4-1.6,9-2,14.5c-0.6-5.6-2.1-10.6-3.9-14.5c0.5,7,0.7,14.8-0.3,23.1
			c-0.1-4.8,0-9.4,0.2-13.7c-0.8,3.7-1.5,8.3-1.9,13.4c-0.5-9.5,0.5-18.1,1.7-25.7c-4,7.1-7.4,18.1-5.6,30
			c-15.2,5.7-28.5,11.3-32.4,14.4c-0.8,0.7-1.7,1.5-2.7,2.4h35.8h2.2h0.9h0.8h0.4h2.7h5.6h1.1h0.1h0.4h1.3h2.2h4.8h6.6h3.6h2.4h1
			h2.8h2.5h0.8h0.7h2.1h1068.9V884.1L1919.6,884.1z M1064.5,779.8l-0.3,0c0.1-1.3,0.1-2.6,0.2-3.8
			C1064.4,777.2,1064.5,778.5,1064.5,779.8L1064.5,779.8z M1060.9,780l-0.1,0c0.1-0.2,0.1-0.4,0.2-0.6
			C1060.9,779.6,1060.9,779.8,1060.9,780L1060.9,780z M1055.9,780.4l-0.2,0c0.1-0.4,0.1-0.7,0.1-1.1
			C1055.9,779.7,1055.9,780.1,1055.9,780.4L1055.9,780.4z M1420.4,809.4c0,0.2,0.1,0.4,0.1,0.6c-0.1,0.3-0.1,0.6-0.2,0.8
			C1420.3,810.4,1420.4,809.9,1420.4,809.4L1420.4,809.4z M1460.8,818.8c-0.1-0.2-0.2-0.4-0.2-0.5c0.1,0.8,0.1,1.6,0.2,2.4l-0.9-0.2
			c0-0.5,0-1.1,0-1.6c0.2-1.2,0.3-2.3,0.5-3.4c-0.2,0.3-0.3,0.6-0.5,0.9c0.1-2.5,0.2-4.9,0.3-7.2
			C1460.2,812.2,1460.4,815.5,1460.8,818.8L1460.8,818.8z M1456.6,819.8l-0.9-0.2c-0.1-1.2-0.1-2.4-0.1-3.5c0.4-1.2,0.8-2.4,1.1-3.6
			C1456.6,814.9,1456.5,817.3,1456.6,819.8L1456.6,819.8z M1451.2,818.7l-0.7-0.1c0.5-2.1,0.9-4.2,1.2-6.2c0.1,1.4,0.2,2.8,0.3,4.2
			C1451.7,817.3,1451.5,818,1451.2,818.7L1451.2,818.7z M1439.8,816.5l-1.4-0.3c0-4.1,0.1-8.1,0.4-12
			C1438.8,808.3,1439.1,812.4,1439.8,816.5L1439.8,816.5z M1435.2,815.6l-0.9-0.2c-0.1-1.4-0.1-2.7-0.1-4.1c0.4-1.2,0.8-2.4,1.1-3.6
			C1435.2,810.3,1435.1,813,1435.2,815.6z"/>
		<linearGradient id="SVGID_11_" gradientUnits="userSpaceOnUse" x1="319.0646" y1="818.3967" x2="319.0646" y2="412.818">
			<stop  offset="0" style="stop-color:#745CA7"/>
			<stop  offset="1" style="stop-color:#0D1138"/>
		</linearGradient>
		<path class="st10" d="M86.5,426.6c1.8,1.3,5.6,2.7,10.4,4.2c0.2-0.1,0.5-0.2,0.7-0.4c0.5-0.3,1.2-0.6,2.3-0.3
			c1.1,0.4,0.7,1,1.4,1.7c0.2,0.2,0.6,0.4,0.9,0.7c3.5,1,7.2,2.1,10.9,3.2c13.2,2.1,24.5,5.5,34.3,10.1c2.5-1.5,4.6-3,7.8-2.2
			c3.7,0.9,17.9-0.4,23.7,5.5c5.8,5.9,7.4,10.5,12.9,15c5.5,4.5,5,7.6,7.5,15.3c2.4,7.7,5.9,11.2,12.3,17.2
			c6.4,6,14.6,8.3,15.6,19.7c1,11.4,6.1,19.1,10.6,28.1c4.4,9,12.1,21.1,20.7,28.7c8.6,7.6,15.7,15.4,29.7,17.6
			c14,2.2,27.9-2.5,36-1.3c8.1,1.2,13.7,5.1,17.3,2.4c3.6-2.7,33.6-5.2,37.5-7.2c3.9-2,23.2-16.2,31.6-14.3
			c8.4,1.9,25.7,7.1,30.6,14c4.9,6.9,21.8,18.8,26.5,22.2c4.7,3.4,3.9,2.7,5.6,12.3c1.7,9.6,9,32.9,15.4,37.2
			c6.4,4.3,14.6,5.6,19.1,10.7c4.4,5.1,8.3,11.1,14.3,15.4c6.1,4.3,28.3,8.4,32.6,7c4.3-1.5,11.4-6.9,28.2,0.6
			c7,3.1,24.9,6.5,44,11.3c104.4,47.5-532,37-551.2,117.6c-25.5-18.7-51.5-38.3-76.2-57.7V443.6c1.8,0,3.4,0.4,3.5,1.3
			c0.3,2,4.4,2.5,5.2,2.4c0.8-0.1,1.2-1.3,1.5-2.2c0.3-0.9,0-2.2,0.3-3.4c0.2-1.2,3.1-2.1,3.3-2.5c0.2-0.4,1.6-1.6,3.3-1.5
			c1.7,0.2,3.3-0.5,4.7-3.2c1.4-2.7,1.1-1.7,3.7-2.9c2.6-1.1,1.2-0.1,4-2.2c2.8-2,1.9-4.2,4.9-6.9c3.1-2.8,4.8-2.7,6-2.7
			c1.2,0,1.2,0.4,4.6,0.5c3.4,0.1,3.9-1.5,5-2.7c1-1.2,5.4-2.6,6.5-2.9c1.1-0.3,1.5-1.7,2.4-0.9c0.9,0.9,1.8,2.8,2.4,3.3
			c0.6,0.6,2.1,0.1,2.6-0.5c0.5-0.6,1.1-2.2,1.8-2.6c0.7-0.4,3.3-1.6,4.4-1.4c1.1,0.2,4.9,1.8,5.2,3.2c0.3,1.3,0.5,1.3,2.1,2.3
			c1.6,1,0.4,3.2,0.9,3.3c0.5,0.1,2.1,0.1,3,1c0.9,0.9,1,2.7,1.3,3c0.2,0.3,3.3,0.5,4.1,1.1C86.2,426.7,86.4,426.7,86.5,426.6z"/>
		<linearGradient id="SVGID_12_" gradientUnits="userSpaceOnUse" x1="1313.7174" y1="768.8732" x2="1313.7174" y2="366.3638">
			<stop  offset="0" style="stop-color:#745CA7"/>
			<stop  offset="1" style="stop-color:#0D1138"/>
		</linearGradient>
		<path class="st11" d="M1477.8,366.4c-3.3,1.1-2.7,0.1-5,1c-1.1,0.4-2.8,1.1-4.5,1.6c-1,0.2-2,0.5-3,0.7c-0.5,0.1-0.8,0-1.1-0.1
			c-1.1-0.6-2.2-1.7-3.5-1.7c-1.4,0-1.7-0.4-3.9,0.5c-2.2,0.9-6,2.6-7.7,3c-1.7,0.3-2.8,0.5-3.8,0.1c-1-0.3-2.4-0.2-4.8,0.4
			c-2.5,0.6-6,1-7.6-0.1c-1.6-1-3.6-2-4.6-1.7c-1.1,0.3-2.3,2.2-4.2,2c-1.9-0.2-3.7-1.7-5-1.7c-1.3,0-5.5,1.4-7.1,2
			c-1.6,0.6-3.5,2.2-5.5,2.1c-2-0.1-3.4-0.4-4.3-0.4c-0.9,0-1.8,0.1-4.4,1.3c-2.6,1.2-4.7,3.7-7.4,5.3c-2.6,1.6-8.4,3.1-10.8,5.7
			c-2.4,2.7-9.6,9.9-14,13.7c-4.4,3.8-5.7,2.7-9.8,6.2c-4.1,3.5-6.4,5.1-12.7,8.4c-6.2,3.3-13.4,6.8-16,6.4
			c-2.6-0.3-4.9-1.1-7.4-0.6c-2.6,0.5-4-0.6-4.7-1.3c-0.7-0.7-3.5-1-4.8-0.7c-1.4,0.4-7.2-1.9-8.6-2.5c-1.4-0.6-2.2-0.4-4.2,0.4
			c-2,0.8-8,2.2-10.2,1.2c-2.2-1-1.8-1.9-3.7-1.1c-1.9,0.8-6.2,3-7.5,2.2c-1.2-0.7-0.6-1.7-3.1-0.3c-2.5,1.4-7,6.8-9.9,10.2
			c-2.8,3.5-6.1,7-8.7,9.3c-2.7,2.3-2.5,6.3-3.6,9.8c-1.1,3.4-6.3,9.4-6.3,11.1c0,1.7,1.8-0.2-0.2,4.5c-2,4.7-6.5,16.7-9.9,17.1
			c-3.5,0.4-4,1-8.1,0.1c-4-0.9-5.2-1.1-7.7,0c-2.5,1-6.8,2.6-10.7,6.3c-4,3.7-9.9,8.6-12.8,10c-2.9,1.4-8.7,9.3-12,13.4
			c-3.3,4.1-5.5,7-6.1,9.2c-0.5,2.3-0.7,4.5-2,6.8c-1.3,2.3-3,6.3-5,7.9c-2,1.6-4.5,5.2-6.3,5.1c-1.8-0.1-2.8-0.8-3.7-1.1
			c-0.9-0.3-9.7,2.7-10.6,2.8c-0.9,0.1,0.7-0.8-1.9-0.3c-2.6,0.5-3.4,1-4.2,1.1c-0.8,0.1-5.2-3.5-6.1-3.9c-0.9-0.5-1.4-2.2-4.4-1.7
			c-2.9,0.5-7.5,1.8-9.5,1.8c-2-0.1-5.3,0.2-5.6,0.2c-0.4,0-3.2,1.7-4.5,1.6c-1.3-0.1-0.1-0.7-2.2-0.9c-2-0.2-3.5,0.3-5,0.5
			c-1.5,0.2-1.1-0.5-3.2,0.3c-2.1,0.7-4.4-0.3-6.6,0.3c-2.2,0.6-3.3,1.4-4.6,1.5c-1.3,0.1-5.6,0.1-8.3-0.8c-2.7-0.9-4.5-1.2-5.3-2.1
			c-0.8-0.9,0.2-1.6-2.5-0.8c-2.7,0.8-10.6,4.9-13.7,7.8c-3.1,3-5.8,4.4-8.6,5.4c-2.8,0.9-4,2.1-5.2,3.1c-1.2,1-2.6,3.4-8.6,5.7
			c-6,2.3-6.4,3.6-9.6,3.9c-3.2,0.3-5.2-0.6-6.3,0c-1.1,0.5-1.1,2.2-4.2,3.4c-3.1,1.2-11.2-0.5-11.2-0.5s0,1.2-2.2,2
			c-2.3,0.8-8.3,1.3-11.3,2.2c-0.2,0.1-1.4,0.1-3.5,0.2c-4,1.5-10.9,2.7-21.6,3.5c-82.1,6.2-157.1,11.2-134.6,14.8
			c22.4,3.5,119.3,10.6,110.4,14.8c-8.9,4.1-106.3,13-18.9,23.6c87.4,10.6,634.2,11.8,421.6,59.1c-182.5,40.5-67.4,58.5,131.7,82.2
			h317.2V440.6c-1-0.6-2.3-1.3-4.2-2.4c-4.5-2.5-7.3-2.7-9.5-3.5c-2.2-0.8-8.8-2-12.7-3.1c-3.9-1.1-2.9-0.2-5-0.5
			c-2.1-0.3-3.2-1.5-4-2.4c-0.8-0.9-1.9-2-2.6-2.7c-0.7-0.7-2.6-0.7-3.7-0.9c-1.1-0.2-2-0.7-2.6-1.7c-0.6-1.1-3.3-2.5-3.3-2.5
			s-2.2-2.8-4.1-4.3c-1.9-1.5-2.2-0.8-4-1.6c-1.8-0.8-2.2-2.7-4.1-4.3c-1.9-1.5-6-3.7-7.1-5.4c-1.1-1.7-1.6-0.3-4.8-0.3
			c-3.1,0-6.7-1.3-8.6-1.7c-1.9-0.4-3.2,1.1-5.4,2.3c-2.2,1.3-3.9,3.9-8.6,2.6c-4.7-1.4-3.1-0.2-4.8,0.2c-1.7,0.3-2.4,0.2-5.1-1.2
			c-2.6-1.4-17.3-10.4-17.7-11.7c-0.3-1.3-3.2-2.5-5-4.3c-1.8-1.8-5.5-4.8-5.6-5c-0.1-0.2-0.2-1.1-0.4-2.1c-0.2-0.9-0.4-0.8-1.5-1.4
			c-1.2-0.6-1.6-0.7-3.1-1.4c-1.4-0.7-2.7-1.8-3.3-3.1c-0.5-1.3-0.5-0.3-2.1-1c-1.6-0.8-1.7-1.2-3.4-2.4c-1.7-1.3-0.8-1-1.8-1.4
			c-1-0.3-5-0.4-6.3,0.8c-1.3,1.2-2,0-6.6,0.5c-4.6,0.4-7.1,4.4-7.8,5.5c-0.7,1.1-4.2,0.3-7,0.8c-2.8,0.5-5.7,4.6-7.1,4.6
			s-2.4-1.6-2.7-1.9c-0.3-0.3-10.6-4-14.4-6.1c-3.8-2.1-3.3-2.6-4.2-3.2c-0.9-0.6-2.7-1.3-5-1.8c-2.3-0.5-1.9,0-3.8,0.4
			c-1.8,0.5-3.5,0.4-4.4,0.4c-0.9,0-4.2,0.2-6.6-0.5c-2.4-0.7-12.1-1.8-12.7-2.5c-0.7-0.7-2.8-2.6-3.6-2.9c-0.8-0.3-3.4-0.1-4.2-0.1
			c-0.9,0-4.7,0.1-6.5,0.2c-1.8,0.2-6.6,0.1-11,0.1c-4.4,0-5.4,0.3-8.3,0.5c-2.9,0.2-1.3,0.2-2.7,0.6c-1.4,0.4-3.8,1-6.8,0.1
			c-3-0.9-4.9-1.3-10.1-1.6c-5.2-0.3-6.2,0.2-7.5,0.3c-1.3,0.2-3.1,0.3-5.3,0.4c-2.2,0.1-2.3,0.3-5.4,0.1c-3.1-0.2-4.8-0.9-7.1-0.7
			c-0.2,0-0.4,0-0.5,0.1C1480,367.3,1478.9,366.8,1477.8,366.4z"/>
		<linearGradient id="SVGID_13_" gradientUnits="userSpaceOnUse" x1="1588.0232" y1="858.3036" x2="1588.0232" y2="413.9908">
			<stop  offset="0" style="stop-color:#745CA7"/>
			<stop  offset="1" style="stop-color:#0D1138"/>
		</linearGradient>
		<path class="st12" d="M1890.5,414c-3.2,1.3-2.7,0.3-4.9,1.3c-2.2,1-7.2,3.4-8.4,2.8c-1.1-0.5-2.3-1.6-3.6-1.5
			c-1.4,0.1-1.7-0.3-3.8,0.7c-2.1,1-5.8,3-7.5,3.5c-1.7,0.4-2.8,0.6-3.8,0.4c-1-0.3-2.4,0-4.8,0.7c-2.4,0.7-5.9,1.3-7.5,0.4
			c-1.7-0.9-3.7-1.8-4.7-1.4c-1,0.4-2.1,2.4-4.1,2.3c-1.9-0.1-3.8-1.5-5.1-1.4c-1.3,0.1-5.4,1.8-6.9,2.5c-1.5,0.7-3.4,2.4-5.4,2.4
			c-2,0-3.4-0.2-4.4-0.1c-0.9,0.1-1.8,0.2-4.3,1.6c-2.5,1.3-4.5,4-7,5.8c-2.5,1.7-8.2,3.6-10.4,6.4c-2.2,2.8-9,10.5-13.1,14.5
			c-4.1,4-5.5,3-9.4,6.8c-3.9,3.7-6.1,5.5-12.1,9.2c-6,3.7-12.9,7.6-15.5,7.4c-2.6-0.2-4.9-0.8-7.5-0.1c-2.5,0.7-4.1-0.4-4.8-1
			c-0.7-0.6-3.5-0.8-4.9-0.3c-1.3,0.5-7.4-1.5-8.8-1.9c-1.4-0.5-2.2-0.3-4.2,0.6c-1.9,0.9-7.8,2.7-10.1,1.9
			c-2.3-0.8-1.9-1.8-3.8-0.9c-1.9,1-6,3.4-7.3,2.7c-1.3-0.7-0.7-1.7-3.1-0.1c-2.4,1.6-6.6,7.2-9.2,10.9c-2.6,3.7-5.6,7.4-8.1,9.9
			c-2.5,2.5-2,6.5-2.9,10c-0.9,3.5-5.7,9.8-5.6,11.5c0.1,1.7,1.8-0.3,0.1,4.5c-1.7,4.9-5.4,17.1-8.8,17.8c-3.4,0.7-4,1.3-8,0.6
			c-4.1-0.6-5.3-0.7-7.7,0.5c-2.4,1.2-6.6,3.1-10.3,7c-3.7,3.9-9.4,9.2-12.1,10.8c-2.8,1.6-8,9.8-11.1,14.1
			c-3.1,4.3-5.1,7.3-5.5,9.6c-0.4,2.3-0.4,4.6-1.6,6.9c-1.2,2.3-2.6,6.5-4.5,8.2c-1.9,1.7-4.2,5.5-6,5.5c-1.8,0-2.8-0.6-3.7-0.9
			c-0.9-0.2-9.5,3.3-10.4,3.5c-0.9,0.2,0.7-0.9-1.9-0.2c-2.6,0.7-3.4,1.2-4.2,1.4c-0.8,0.2-5.4-3.1-6.4-3.5c-1-0.4-1.6-2.1-4.5-1.4
			c-2.9,0.7-7.4,2.3-9.4,2.4c-2,0.1-5.2,0.6-5.6,0.6c-0.4,0-3.1,2-4.4,1.9c-1.3-0.1-0.2-0.7-2.2-0.7c-2-0.1-3.5,0.5-5,0.8
			c-1.5,0.3-1.2-0.4-3.2,0.5c-2,0.9-4.4,0-6.6,0.8c-2.2,0.8-3.2,1.6-4.5,1.8c-1.3,0.2-5.5,0.5-8.3-0.3c-2.8-0.8-4.5-0.9-5.4-1.8
			c-0.9-0.9,0.1-1.6-2.5-0.7c-2.6,1-10.2,5.5-13.2,8.7c-2.9,3.2-5.5,4.8-8.2,5.9c-2.8,1.1-3.8,2.4-4.9,3.5c-1.1,1.1-2.4,3.6-8.2,6.3
			c-5.8,2.7-6.2,4-9.3,4.5c-3.1,0.5-5.3-0.2-6.3,0.4c-1.1,0.6-1,2.2-4,3.6c-3,1.4-11.2,0.3-11.2,0.3s0.1,1.2-2.1,2.1
			c-2.2,0.9-8.2,1.8-11.1,2.9c-2.9,1.1-4.5-1-13.7,6.4c-5.2,4.2-9,7.5-11.7,9.9c3.2,5.8-10.5,12.7-48.2,21.1
			c-212.6,47.2-21.3,63.8,236.2,94.5c95.6,11.4,224.8,41.4,335.5,77.1V425.7C1910.4,421.1,1900.8,417.1,1890.5,414z"/>
		<linearGradient id="SVGID_14_" gradientUnits="userSpaceOnUse" x1="165.5173" y1="949.5666" x2="165.5173" y2="745.2143">
			<stop  offset="0" style="stop-color:#745CA7"/>
			<stop  offset="1" style="stop-color:#0D1138"/>
		</linearGradient>
		<path class="st13" d="M4.9,746.3c3.4,1.3,2.6,1.2,4.9,1.8c2.2,0.5,3.6,1.9,6.5,3.1c2.8,1.2,2.9,1.1,5.1,1.7
			c2.2,0.6,3.9,1.1,5.2,1.4c1.3,0.3,2.3,0.2,7.1,2.3c4.8,2.1,6.5,3.1,8.9,4.9c2.5,1.9,4.9,2.2,6.4,2.2c1.5,0.1,0-0.4,2.8,0.4
			c2.8,0.8,3.9,0.9,8,2.4c4.1,1.5,8.7,3.2,10.4,3.7c1.7,0.5,5.3,1.7,6.2,2c0.8,0.3,3.3,1,4,1.5c0.6,0.5,2,3,2.4,3.9
			c0.4,0.9,9.1,5.2,11.1,6.7c2,1.5,5.2,2.5,6,2.7c0.8,0.3,2.4,0.9,4.2,1.1c1.9,0.2,1.6-0.4,3.7,0.9c2,1.3,3.5,2.5,4.1,3.4
			c0.6,0.9,0,1.2,2.9,4.5c2.9,3.3,11.3,10.3,11.4,10.7c0.2,0.4,0.6,2.3,1.9,2.7c1.3,0.4,5.4-2.4,8.2-1.9c2.8,0.5,5.8,2.4,6.9,1.6
			c1.1-0.8,4.7-3.7,9.2-2.5c4.5,1.2,4.7,2.5,6.4,1.8c1.7-0.7,5.4,0.8,6.2,1.5c0.8,0.7,0,0.1,1.2,1.9c1.2,1.8,1.1,2.2,2.4,3.5
			c1.2,1.3,1.6,0.3,1.6,1.7c0,1.4,0.9,2.9,2,4c1.1,1.1,1.5,1.4,2.4,2.4c0.9,1,1.1,0.9,0.9,1.9c-0.1,1-0.4,1.9-0.3,2.1
			c0,0.2,2.4,4.3,3.5,6.6c1.1,2.3,3.4,4.4,3.3,5.7c-0.1,1.3,10.6,14.8,12.6,17.1c2,2.2,2.7,2.6,4.4,2.8c1.7,0.3,0.6-1.4,4.5,1.5
			c3.9,2.9,6.5,1,9,0.5c2.5-0.4,4.2-1.3,5.8-0.3c1.7,1,4.6,3.5,7.5,4.5c2.9,1.1,3.9,0,4.4,1.9c0.5,1.9,3.6,5.4,4.8,7.5
			c1.2,2.1,1,4,2.4,5.4c1.4,1.4,1.9,0.9,3.2,2.9c1.3,2,2.4,5.4,2.4,5.4s2,2.3,2.2,3.5c0.2,1.2,0.8,1.9,1.8,2.5
			c1,0.6,2.8,1.2,3.2,2.1c0.4,0.9,1,2.3,1.5,3.5c0.5,1.2,1.1,2.6,3,3.6c1.9,1,1.3-0.2,4.6,2.2c3.3,2.4,9.1,5.8,10.8,7.3
			c1.8,1.5,4.4,2.7,7.7,6.6c3.3,3.8,4.4,5,5.1,6.8c0.7,1.8,0.1,0.3,2.5,3.4c2.4,3.1,2.6,4.1,2.6,4.1s8.1,1.6,9.3,1.5
			c1.2-0.1,3.3,1.5,4.1,1.8c0.9,0.3,3.1,1.4,3.7,1.2c0.6-0.2,1.3-0.4,2.5,0.1c1.2,0.4,9,2.2,12,3.3c3,1.1,3.5,1,6,2.3
			c2.6,1.3,3.4,1.6,5.8,3.7c0.1,0.1,0.3,0.2,0.4,0.3H-0.4V745.2C1.3,745.5,3.1,745.9,4.9,746.3z"/>
	</g>
</g>
<g id="stars_1_" class="st14">
	<g class="st15">
		<radialGradient id="SVGID_15_" cx="519.824" cy="124.4557" r="13.9515" gradientUnits="userSpaceOnUse">
			<stop  offset="0" style="stop-color:#FFFFFF;stop-opacity:0.95"/>
			<stop  offset="0.1471" style="stop-color:#FFFFFF;stop-opacity:0.8103"/>
			<stop  offset="1" style="stop-color:#FFFFFF;stop-opacity:0"/>
		</radialGradient>
		<circle class="st16" cx="520.4" cy="124.2" r="19"/>
		<radialGradient id="SVGID_16_" cx="568.2056" cy="145.8948" r="13.9515" gradientUnits="userSpaceOnUse">
			<stop  offset="0" style="stop-color:#FFFFFF;stop-opacity:0.95"/>
			<stop  offset="0.1471" style="stop-color:#FFFFFF;stop-opacity:0.8103"/>
			<stop  offset="1" style="stop-color:#FFFFFF;stop-opacity:0"/>
		</radialGradient>
		<circle class="st17" cx="568.8" cy="145.7" r="19"/>
		<radialGradient id="SVGID_17_" cx="585.799" cy="169.5385" r="13.9515" gradientUnits="userSpaceOnUse">
			<stop  offset="0" style="stop-color:#FFFFFF;stop-opacity:0.95"/>
			<stop  offset="0.1471" style="stop-color:#FFFFFF;stop-opacity:0.8103"/>
			<stop  offset="1" style="stop-color:#FFFFFF;stop-opacity:0"/>
		</radialGradient>
		<circle class="st18" cx="586.4" cy="169.3" r="19"/>
		<radialGradient id="SVGID_18_" cx="608.3403" cy="198.8534" r="13.9515" gradientUnits="userSpaceOnUse">
			<stop  offset="0" style="stop-color:#FFFFFF;stop-opacity:0.95"/>
			<stop  offset="0.1471" style="stop-color:#FFFFFF;stop-opacity:0.8103"/>
			<stop  offset="1" style="stop-color:#FFFFFF;stop-opacity:0"/>
		</radialGradient>
		<circle class="st19" cx="608.9" cy="198.6" r="19"/>
		<radialGradient id="SVGID_19_" cx="676.3361" cy="226.8792" r="17.5527" gradientUnits="userSpaceOnUse">
			<stop  offset="0" style="stop-color:#FFFFFF;stop-opacity:0.95"/>
			<stop  offset="0.1471" style="stop-color:#FFFFFF;stop-opacity:0.8103"/>
			<stop  offset="1" style="stop-color:#FFFFFF;stop-opacity:0"/>
		</radialGradient>
		<circle class="st20" cx="677" cy="226.6" r="23.9"/>
		<radialGradient id="SVGID_20_" cx="799.7847" cy="112.6696" r="32.5531" gradientUnits="userSpaceOnUse">
			<stop  offset="0" style="stop-color:#FFFFFF;stop-opacity:0.95"/>
			<stop  offset="0.1471" style="stop-color:#FFFFFF;stop-opacity:0.8103"/>
			<stop  offset="1" style="stop-color:#FFFFFF;stop-opacity:0"/>
		</radialGradient>
		<circle class="st21" cx="801.1" cy="112.2" r="44.3"/>
		<radialGradient id="SVGID_21_" cx="643.6859" cy="251.7478" r="13.9515" gradientUnits="userSpaceOnUse">
			<stop  offset="0" style="stop-color:#FFFFFF;stop-opacity:0.95"/>
			<stop  offset="0.1471" style="stop-color:#FFFFFF;stop-opacity:0.8103"/>
			<stop  offset="1" style="stop-color:#FFFFFF;stop-opacity:0"/>
		</radialGradient>
		<circle class="st22" cx="644.3" cy="251.5" r="19"/>
		<radialGradient id="SVGID_22_" cx="600.0963" cy="227.5635" r="13.9515" gradientUnits="userSpaceOnUse">
			<stop  offset="0" style="stop-color:#FFFFFF;stop-opacity:0.95"/>
			<stop  offset="0.1471" style="stop-color:#FFFFFF;stop-opacity:0.8103"/>
			<stop  offset="1" style="stop-color:#FFFFFF;stop-opacity:0"/>
		</radialGradient>
		<circle class="st23" cx="600.7" cy="227.3" r="19"/>
	</g>
</g>
</svg>
