<?xml version="1.0" standalone="no"?>
<!DOCTYPE svg PUBLIC "-//W3C//DTD SVG 20010904//EN"
 "http://www.w3.org/TR/2001/REC-SVG-20010904/DTD/svg10.dtd">
<svg version="1.0" xmlns="http://www.w3.org/2000/svg"
 width="395.000000pt" height="395.000000pt" viewBox="0 0 395.000000 395.000000"
 preserveAspectRatio="xMidYMid meet">
<metadata>
Created by potrace 1.11, written by Peter Selinger 2001-2013
</metadata>
<g transform="translate(0.000000,395.000000) scale(0.100000,-0.100000)"
fill="#000000" stroke="none">
<path d="M0 2295 l0 -1655 1301 0 c864 0 1298 3 1294 10 -3 6 -2 10 3 10 5 0
9 6 10 13 0 6 2 29 3 50 1 21 6 40 11 43 4 3 8 13 8 22 0 26 59 93 96 108 42
18 96 18 137 0 35 -14 97 -84 97 -108 0 -8 3 -18 7 -22 4 -3 9 -28 11 -54 2
-26 8 -49 13 -50 5 -2 7 -8 3 -13 -3 -5 187 -9 475 -9 l481 0 0 1655 0 1655
-1975 0 -1975 0 0 -1655z m472 948 c22 -20 24 -66 2 -87 -36 -37 -104 -7 -104
45 0 50 64 76 102 42z m914 -401 c26 -17 35 -51 22 -80 -18 -38 -79 -44 -102
-10 -21 30 -20 54 4 78 20 20 56 26 76 12z m342 -458 c34 -23 27 -83 -10 -104
-25 -13 -31 -13 -55 0 -38 21 -45 81 -11 104 12 9 29 16 38 16 9 0 26 -7 38
-16z m431 -539 c65 -33 50 -132 -23 -151 -28 -7 -81 18 -90 41 -17 46 -2 91
39 113 27 15 41 15 74 -3z m1332 -498 c89 -59 87 -182 -4 -237 -90 -55 -207 9
-207 113 0 119 116 188 211 124z m-1458 -37 c82 -64 30 -200 -75 -200 -40 0
-73 21 -93 60 -25 49 -19 88 19 126 29 29 41 34 79 34 29 0 53 -7 70 -20z"/>
</g>
</svg>
