<svg xmlns="http://www.w3.org/2000/svg" xmlns:xlink="http://www.w3.org/1999/xlink" viewBox="0 0 1920 1323.69"><defs><style>.cls-1{fill:url(#linear-gradient);}.cls-10,.cls-11,.cls-12,.cls-13,.cls-14,.cls-2,.cls-3,.cls-4,.cls-5,.cls-6,.cls-7,.cls-8,.cls-9{fill-rule:evenodd;}.cls-2{fill:url(#New_Gradient_Swatch_copy_2);}.cls-3{fill:url(#New_Gradient_Swatch_copy_2-2);}.cls-4{fill:url(#New_Gradient_Swatch_copy_2-3);}.cls-5{fill:url(#New_Gradient_Swatch_copy_2-4);}.cls-6{fill:url(#New_Gradient_Swatch_copy_2-5);}.cls-7{fill:url(#linear-gradient-2);}.cls-8{fill:url(#New_Gradient_Swatch_4);}.cls-9{fill:url(#New_Gradient_Swatch_copy_2-6);}.cls-10{fill:url(#New_Gradient_Swatch_copy_2-7);}.cls-11{fill:url(#New_Gradient_Swatch_copy_2-8);}.cls-12{fill:url(#New_Gradient_Swatch_copy_2-9);}.cls-13{fill:url(#New_Gradient_Swatch_copy_2-10);}.cls-14{fill:url(#New_Gradient_Swatch_copy_2-11);}.cls-15{fill:url(#New_Gradient_Swatch_2);}.cls-16{fill:url(#New_Gradient_Swatch_2-2);}.cls-17{fill:url(#New_Gradient_Swatch_2-3);}.cls-18{fill:url(#New_Gradient_Swatch_2-4);}.cls-19{fill:url(#New_Gradient_Swatch_2-5);}.cls-20{fill:url(#New_Gradient_Swatch_2-6);}.cls-21{fill:url(#New_Gradient_Swatch_2-7);}.cls-22{fill:url(#New_Gradient_Swatch_2-8);}</style><linearGradient id="linear-gradient" x1="960" y1="780.45" x2="960" y2="331.89" gradientUnits="userSpaceOnUse"><stop offset="0" stop-color="#61c3ad"/><stop offset="1" stop-color="#1b75bc"/></linearGradient><linearGradient id="New_Gradient_Swatch_copy_2" x1="692.62" y1="1036.89" x2="692.62" y2="689.95" gradientUnits="userSpaceOnUse"><stop offset="0" stop-color="#745ca7"/><stop offset="1" stop-color="#0d1138"/></linearGradient><linearGradient id="New_Gradient_Swatch_copy_2-2" x1="817.84" y1="1272.87" x2="817.84" y2="735.82" xlink:href="#New_Gradient_Swatch_copy_2"/><linearGradient id="New_Gradient_Swatch_copy_2-3" x1="391.41" y1="1096.51" x2="391.41" y2="691.21" xlink:href="#New_Gradient_Swatch_copy_2"/><linearGradient id="New_Gradient_Swatch_copy_2-4" x1="351.48" y1="1243.53" x2="351.48" y2="748.49" xlink:href="#New_Gradient_Swatch_copy_2"/><linearGradient id="New_Gradient_Swatch_copy_2-5" x1="376.18" y1="1129.9" x2="376.18" y2="758.64" xlink:href="#New_Gradient_Swatch_copy_2"/><linearGradient id="linear-gradient-2" x1="995.99" y1="1323.69" x2="995.99" y2="881.08" gradientUnits="userSpaceOnUse"><stop offset="0" stop-color="#61c3ad"/><stop offset="1" stop-color="#2e3192"/></linearGradient><linearGradient id="New_Gradient_Swatch_4" x1="1021.75" y1="1323.69" x2="1021.75" y2="915.07" gradientUnits="userSpaceOnUse"><stop offset="0" stop-color="#61c3ad"/><stop offset="1" stop-color="#4981c2"/></linearGradient><linearGradient id="New_Gradient_Swatch_copy_2-6" x1="1378.42" y1="1015.47" x2="1378.42" y2="683.95" xlink:href="#New_Gradient_Swatch_copy_2"/><linearGradient id="New_Gradient_Swatch_copy_2-7" x1="1344.81" y1="1323.69" x2="1344.81" y2="1122.16" xlink:href="#New_Gradient_Swatch_copy_2"/><linearGradient id="New_Gradient_Swatch_copy_2-8" x1="319.06" y1="1192.52" x2="319.06" y2="786.94" xlink:href="#New_Gradient_Swatch_copy_2"/><linearGradient id="New_Gradient_Swatch_copy_2-9" x1="1313.72" y1="1142.99" x2="1313.72" y2="740.48" xlink:href="#New_Gradient_Swatch_copy_2"/><linearGradient id="New_Gradient_Swatch_copy_2-10" x1="1588.02" y1="1232.42" x2="1588.02" y2="788.11" xlink:href="#New_Gradient_Swatch_copy_2"/><linearGradient id="New_Gradient_Swatch_copy_2-11" x1="165.52" y1="1323.69" x2="165.52" y2="1119.33" xlink:href="#New_Gradient_Swatch_copy_2"/><radialGradient id="New_Gradient_Swatch_2" cx="677" cy="120.22" r="27.88" gradientUnits="userSpaceOnUse"><stop offset="0" stop-color="#fff" stop-opacity="0.95"/><stop offset="0.08" stop-color="#fff" stop-opacity="0.75"/><stop offset="0.16" stop-color="#fff" stop-opacity="0.58"/><stop offset="0.24" stop-color="#fff" stop-opacity="0.42"/><stop offset="0.33" stop-color="#fff" stop-opacity="0.29"/><stop offset="0.43" stop-color="#fff" stop-opacity="0.18"/><stop offset="0.53" stop-color="#fff" stop-opacity="0.1"/><stop offset="0.65" stop-color="#fff" stop-opacity="0.04"/><stop offset="0.78" stop-color="#fff" stop-opacity="0.01"/><stop offset="1" stop-color="#fff" stop-opacity="0"/></radialGradient><radialGradient id="New_Gradient_Swatch_2-2" cx="773.67" cy="163.06" r="27.88" xlink:href="#New_Gradient_Swatch_2"/><radialGradient id="New_Gradient_Swatch_2-3" cx="808.82" cy="210.3" r="27.88" xlink:href="#New_Gradient_Swatch_2"/><radialGradient id="New_Gradient_Swatch_2-4" cx="853.86" cy="268.87" r="27.88" xlink:href="#New_Gradient_Swatch_2"/><radialGradient id="New_Gradient_Swatch_2-5" cx="989.71" cy="324.87" r="35.07" xlink:href="#New_Gradient_Swatch_2"/><radialGradient id="New_Gradient_Swatch_2-6" cx="1236.36" cy="96.67" r="65.04" xlink:href="#New_Gradient_Swatch_2"/><radialGradient id="New_Gradient_Swatch_2-7" cx="924.48" cy="374.55" r="27.88" xlink:href="#New_Gradient_Swatch_2"/><radialGradient id="New_Gradient_Swatch_2-8" cx="837.38" cy="326.23" r="27.88" xlink:href="#New_Gradient_Swatch_2"/></defs><title>Artboard 1 copy 2</title><g id="sky"><rect class="cls-1" y="0.22" width="1920" height="842.78"/></g><g id="mountains"><path class="cls-2" d="M156.23,755.5c.62-1.44,2.15-2.67,2.73-3.52s0-1.35,1-2a2.49,2.49,0,0,1,2.34-.33,2.83,2.83,0,0,0,1.72.13c.81-.15,1.52.56,3-.07s1.58-1.23,1.52-1.65-.28-.76.75-1.08,2,0,2.55-.23,1.25-.29,1.09-1.4-.77-1.23-.44-2.06,3.6-1.83,3.76-2.24-.17-2.15.46-3.25a4.71,4.71,0,0,1,2.61-1.68c.5-.2-1.25-2,0-3.43s1.52-1.43,1.44-2.78,3.2-3.91,4.19-4.39,3.81,0,4.59.25,1.79,1.6,2.41,2,2.24.48,2.65-.21.77-2.74,1.44-3.81,1.42.22,2.57.24,5.76.3,7,1.16,2.21,2.3,5.48,1.34,3.11-1.37,4.27-1.69,2.83-.83,6.54,1.07,3.34,4.21,6.55,5.45,1.61.62,4.44,1.06,2.28-.36,4.33,1.85,3.73,2.47,5.32,1.86a3.72,3.72,0,0,1,3.56.58c.26.37,3.28.51,3.8,1.61s.59,2.42,1.1,3.18,1.2,1.82,2,1.71,4.68-1.64,4.45-3.65,6.58-3,8.19-2.86,3.82,2.75,5,2.26,5.2-2.34,8.07-2,4.32.13,5.47-.46a5.75,5.75,0,0,1,3.9-.57,8.7,8.7,0,0,0,4.26-.25c1-.41,3.11-1.29,3.88-1s1.36.94,2.33.6.89-1.13,1.56-1.45,2-1.29,3-.34,3.87,1.83,4.39,1.37,1.7-.9,2.05-.33,3.07.16,5.35.21,2.66-.42,4.2-1.49,2.72-2,2.4-2.84-.16-1.77.82-1.87a34,34,0,0,1,6.78.38c2.83.44,2.72,1.56,4.59.17s1.25-1.67,2.55-2.7,2.29-.69,3.23-2,6.37-8.39,8.42-8.56,3.43.32,4.43,1.88.54,3.67,3.28,3.42,2.4.9,4,1.12a17.16,17.16,0,0,0,8.25-1.76c3.13-1.51,7.27-4.64,8.06-4.53s2.06,1.22,3.65.95,3.31-.61,4.08-1.39.4-2.4,2.19-2.61,3.32,1.27,4.18,1-1.24-3.42,0-3.93a19.61,19.61,0,0,0,3.63-2c1.17-.81-.52-2.78-.52-2.78a20.06,20.06,0,0,1,3.41-3.12c2.07-1.49.63-2.27,2.36-3.43a7.18,7.18,0,0,1,4-1.36c1.75-.27,2.11.13,3.49.45a55.57,55.57,0,0,0,5.86.95,2.74,2.74,0,0,1,2.9,2.45c.44,1.76,0,3.1,2.37,2.88s4.07-.9,5-.09.54,1.3,3.72.58,1.7-1.23,6.93-2.11,5.7-1.27,6.8,0,7.83,6.06,13.44,6.48,7.29.67,10.92.73,4.83-.69,7.26.44c.51.23,3.36,1.76,7.57,4a15.79,15.79,0,0,0,5-1.18c.74-.33.81-.88,1.4-1.62s1.22-.29,3-.55a14.55,14.55,0,0,0,4-.89c1.22-.52.63-.74,2.92-1.44s2.88.18,6.05,0,4,.22,6.83.85,3.06,1,6.09,2.1,10.11,4.73,11.29,5.13a3.24,3.24,0,0,1,2,1.51c.33.55,2.8,1.07,3.65,1.44s3.43.44,4.32,1.29,8.08,4.8,8.08,4.8.77-.55,4.61-1.44,2.4-.15,4.1-1,3.25-1.14,8.27-2,7.82-.11,10.15-.11,9,1.07,13,1.33,2.81.78,4.91,1.22a6.24,6.24,0,0,0,4.61-.89c1.11-.59,2.47-1.25,3.36-1.7s2.66.22,3.8.37a3.41,3.41,0,0,0,3-.77c.92-.81,3.95-1.29,3.95-1.29a29.57,29.57,0,0,1,5.31-2.66c2.29-.74,2.36,0,4.32-.18s3-1.85,5.28-2.66,6.86-1.51,8.49-2.69,1.62.29,4.58,1.33,6.79,1,8.71,1.33,2.66,2.07,4.28,4,2.36,5,7.23,5.31,3,.89,4.43,1.77,2.21,1,5.17.59,19.82-4,20.56-5.09,3.84-1.29,6.16-2.33,6.79-2.67,6.92-2.8.57-1,1.07-1.83.61-.65,1.9-.83,1.77-.15,3.36-.29a6.38,6.38,0,0,0,4.11-1.84c.92-1.05.55-.09,2.31-.28s2-.53,4-1.16,1.09-.7,2.12-.7,4.87,1.27,5.72,2.86,1.88.7,6.09,2.66,5.17,6.53,5.46,7.83,3.84,1.73,6.35,3.14c1.61.9,2.75,3.22,3.69,4.89a16.94,16.94,0,0,0,9.56-2.53c1.92-1.14-.4-.49,3.8-1.83a113.62,113.62,0,0,1,12.08-3.62c6.46-1.54,13.61-3.23,16.18-4.07s8.17-2.25,9.45-2.62,5.06-1.53,6.28-1.39,5,2.18,6.3,3,15.84-1,19.64-.77,8.61-1.19,9.89-1.56a29.91,29.91,0,0,0,6.25-2.18c2.5-1.3,1.77-1.83,5.38-1.94a22.46,22.46,0,0,1,8,.82c1.51.61,1,1.56,7.34,3.28s22.87,3.62,23.39,4,2.66,2.37,4.63,1.85,4.82-7.56,8.82-9.26,9.41-1.78,10.07-3.67,2.85-8.62,9.5-10.87,8.06-.75,9.6-3,7.52-3.53,9.08-3.36.1.12,3.08,1.4,3.25,1.85,5.86,2.41,2.21-.94,3.42.8a9.65,9.65,0,0,0,5.89,3.45c2.36.48,3.09.51,5,1s2.11.23,2.72,1.56,1.14,2.71,1.31,2.92,6.62,3.42,9.95,5.36,8,2.72,8.89,4.51,25.72,9.89,30.09,11,5.5,1.05,7.87,0-.42-2.29,7-1.94,9-4.19,11.76-6.8,4.16-5.16,7.1-5.29,8.71.5,13.32-.57,4.85-3.29,7.1-1.25,9,3.85,12.33,5.45,4.59,4.27,7.5,4.87,3.14-.5,6.47,1a44.8,44.8,0,0,1,7.56,4.87s4.47,1.22,5.73,2.59a5.17,5.17,0,0,0,4.37,1.66c1.74,0,4.52-.74,5.78.07s3.2,2,4.77,3.11a9.47,9.47,0,0,0,6.79,2.09c3.24-.32,1.49-1.3,7.59-1s16.26-.24,19.76.14,7.83-.21,15.25,1.84,9.71,2.69,12.11,4.3.36.26,6,2.23,6.7,2.92,6.7,2.92,11.48-4.76,12.95-5.89,5.37-.82,6.71-1.23,5.14-.79,5.73-1.56a4.9,4.9,0,0,1,3.19-2c1.84-.42,13.1-4.75,17.83-5.86s5.18-1.68,9.51-2.16,5.66-.9,10.41-.15,5.78-.49,9.11.94,2.4,1.67,4.15,2.64a22,22,0,0,0,5.85,2c2.68.69,3.7.12,4.46,1.33s.79,2.05,1.84,2.67a23.77,23.77,0,0,0,7.46,2.61l-28.21,258c-35.17,14-62.33,28-87.27,40.9L751.13,989.65c-98,32.45-88-13.42-144.53-32.25-24.48-8.16-42.33-18.47-60.6-30.29-12.72,6.05-27.47,12.36-44.63,18.88-129.63,49.28-235,97.34-294.89,79S.48,814.8,156.23,755.5Z"/><path class="cls-3" d="M1636.12,801.74c-9.07-1.9-21.47-5.34-30.52-6.83-13.43-2.21-19.19-.89-21.11-4s-2.81-6.2-6.5-7.23-15.35-9.15-23.33-6.94-11.66,5.46-18.6,6.64-8.12,4.13-14,9.6-10.63,6.79-19.19,8.86-16.83,0-23.33,9.45c-5.56,8.08-12.41,12.28-19.45,16.83a26,26,0,0,0-4.35-2.37c-.72-.26-1.15.35-1.21,1s-1.21.95-2.65,1.18-1.87.43-3.46-.37-3.63-1.44-3.69-2-1-.6-1.56-.46-2.25-1.44-2.62-2.45-1.64-.78-2.22-.78-.78.58-1.58.49-1-.72-1.44-1.21-2.19-.58-3.05-.64a6.77,6.77,0,0,1-3.08-1.27,4.5,4.5,0,0,0-2.94-.92c-1,0-2.1-.32-4-1.53s-5.33-1.25-6.35-1.32-1.71-2.62-2.78-3.3-6.21-2.26-6.72-.76-3.76,1.27-4.36,1.07-.73-1.18-.83-1.89.3-1.66.3-2.61-2.07-2.07-2.13-2.42a2.9,2.9,0,0,0-2.3-1.61c-1.33-.11-2.42-.86-3.11-3.11s-.58-1.5-2.42-2.77-.92-.29-2.76-2.25-.81-3.46-2.77-6-3.31-2.79-4.23-3a27.27,27.27,0,0,1-3.57-.26c-2.62-.43-2.79-1.76-3.4-2.79s-3.74-2.79-4.55-3.2-.89-1.55-1.73-1-1.79,1.84-2.3,2.19-1.64-.23-1.93-.75-.55-1.82-1-2.25-2.27-1.73-3.14-1.73-4,.69-4.44,1.67-.6.92-2,1.47-.75,2.43-1.17,2.4a3.68,3.68,0,0,0-2.4.3c-.82.56-1.18,1.9-1.43,2.13s-2.88-.17-3.4.3-.13.76-.39,1.6-.78.63-1.24.62-1-.58-1.87-.71-.79.19-.89.5-.4.69-1.63.65-1.48-.78-2.1-.95a2.21,2.21,0,0,1-1.17-.68,2,2,0,0,0-1.76-.56c-.91.12-.66.66-1.35,1.07a15.52,15.52,0,0,0-3.11,1.55,117.29,117.29,0,0,0-19.94-.06c-4.22-7.85-10.76-19.05-16.53-20.81-8.27-2.51-25.84-6.5-33.51-3s-28.2,5.61-34,6.2-4.72.44-10.92,8-24.06,24.21-31.74,24.8-15.5-2.36-21.85-.15-12.7,5.61-20.08,6.35-28.79-6.64-31.81-10-6.5-11.59-24.8-13.36-14.76-23.33-36.32-5.91a135,135,0,0,0-15.4,14.54c-1-.55-2.09-1.1-3.18-1.62-3.4-1.18-2.81-.74-4.87-1.77s-4-.89-6.94-1.77a30.09,30.09,0,0,1-5-1.92q-3.1-1.33-4.87-2.21a25.82,25.82,0,0,0-6.94-2.8c-5-1.48-6.94-1.77-10-1.92a11.18,11.18,0,0,1-6.35-2.36c-1.18-.89.29-.3-2.36-1.48a75.34,75.34,0,0,0-7.68-3.25c-4.13-1.48-8.71-3.1-10.33-3.84s-5.2-2.07-6-2.4a19.08,19.08,0,0,0-4-1.37,18,18,0,0,0-4.35,1.51c-.89.44-10.33-1.81-12.84-1.92a21.56,21.56,0,0,1-6.39-1.73,19.76,19.76,0,0,1-3.95-1.88c-1.55-1-1-1.33-3.39-1.66a14.83,14.83,0,0,0-5.31,0c-1,.29-.74,1-5.06,1.62s-15.28.74-15.65.92-1.92,1.37-3.17.89-2.62-5.31-5.13-6.72-6.05-1.84-6.35-3.14-1.25-5.87-5.46-7.82-5.24-1.07-6.09-2.66-4.69-2.86-5.72-2.86-.07.07-2.12.7-2.27,1-4,1.16-1.38-.78-2.31.28a6.37,6.37,0,0,1-4.11,1.85c-1.59.15-2.07.11-3.36.29s-1.4,0-1.9.83-.94,1.7-1.07,1.83-4.59,1.77-6.92,2.81-5.42,1.22-6.16,2.32S815.91,757.58,813,758s-3.69.29-5.17-.59.44-1.48-4.43-1.77-5.61-3.4-7.23-5.31-2.36-3.69-4.28-4-5.76-.29-8.71-1.33-3-2.51-4.58-1.33-6.2,1.88-8.49,2.69-3.32,2.47-5.28,2.66-2-.55-4.32.18a29.62,29.62,0,0,0-5.32,2.66s-3,.48-3.95,1.29a3.41,3.41,0,0,1-3,.78c-1.14-.15-2.92-.81-3.8-.37s-2.25,1.11-3.36,1.7a6.25,6.25,0,0,1-4.61.89c-2.1-.44-.89-1-4.91-1.22s-10.67-1.33-13-1.33-5.13-.7-10.15.11-6.57,1.07-8.27,2-.26.15-4.1,1-4.61,1.44-4.61,1.44-7.2-3.95-8.08-4.8-3.47-.92-4.32-1.29-3.32-.89-3.65-1.44a3.23,3.23,0,0,0-2-1.51c-1.18-.41-8.27-4.06-11.29-5.13s-3.28-1.48-6.09-2.1-3.65-1-6.83-.85-3.76-.74-6.05,0-1.7.92-2.92,1.44a14.58,14.58,0,0,1-4,.89c-1.81.26-2.44-.18-3,.55s-.66,1.29-1.4,1.62a15.51,15.51,0,0,1-5.24,1.18c-2,0-2-.52-4.61,0s-2.77.59-4.13,1.33a7.54,7.54,0,0,0-2.07,1.29c-.29.2-.51.38-.7.53-3.25.08-6.55.23-10,.52-1.18-1-3.1-1.48-4-2s-.57-1.22-1.73-1.37a2.5,2.5,0,0,0-2.25.72,2.83,2.83,0,0,1-1.49.87c-.79.22-1.13,1.16-2.7,1.22s-2-.42-2.08-.83-.07-.81-1.14-.64-1.81.89-2.4.9-1.26.28-1.59-.79.17-1.44-.5-2-4-.09-4.35-.39-.78-2-1.83-2.73a4.72,4.72,0,0,0-3.08-.39c-.53,0,.24-2.38-1.5-3.08s-2-.63-2.51-1.88-4.58-2.14-5.68-2.14-3.43,1.66-4,2.21-.92,2.21-1.29,2.88-1.81,1.4-2.47,1-1.88-2.14-3-2.81-1.18.81-2.21,1.33-5.06,2.77-5.83,4.1-1,3-4.36,3.58-3.4.11-4.58.33-2.92.48-5.43,3.8-1.18,5.24-3.54,7.75-1.18,1.25-3.54,2.88-2.21.66-3.1,3.54-2.29,3.84-4,4a3.72,3.72,0,0,0-3,2.07c-.07.44-2.73,1.88-2.73,3.1s.52,2.44.39,3.34-.29,2.16-1.07,2.42-4.93.55-5.59-1.37-7.25.11-8.62,1-2.25,4.13-3.56,4.23-5.7.15-8.14,1.7-3.84,2-5.13,2a5.76,5.76,0,0,0-3.76,1.18,8.67,8.67,0,0,1-3.95,1.62c-1.11.07-3.36.18-3.91.81s-.81,1.44-1.85,1.55-1.29-.63-2-.63-2.36-.29-2.84,1-2.69,3.32-3.36,3.14-1.92-.07-2,.59-2.7,1.48-4.73,2.51-2.58.77-4.43.48-3.32-.63-3.39-1.51-.63-1.66-1.55-1.33a33.83,33.83,0,0,0-5.94,3.28c-2.36,1.62-1.77,2.58-4.06,2.14s-1.85-1-3.47-1.33-2.36.37-3.76-.37-9.37-4.8-11.29-4.06-3,1.77-3.17,3.62,1.11,3.54-1.48,4.5-1.77,1.85-3.1,2.73a17.12,17.12,0,0,1-8.19,2c-3.47,0-8.56-1-9.23-.59s-1.33,2-2.88,2.44-3.25.89-4.28.52-1.4-2-3.1-1.4-2.44,2.58-3.32,2.73-.37-3.62-1.7-3.54a19.6,19.6,0,0,1-4.13-.22c-1.4-.22-.74-2.73-.74-2.73a20,20,0,0,0-4.43-1.33c-2.51-.44-1.55-1.77-3.62-2.07a7.18,7.18,0,0,0-4.21.52c-1.7.52-1.85,1-3,1.92a55.65,55.65,0,0,1-4.87,3.39,2.74,2.74,0,0,0-1.55,3.47c.37,1.77,1.33,2.8-.88,3.62s-4.06,1-4.5,2.07.07,1.4-3.1,2.14-2.07-.37-7.16,1.11-5.68,1.33-6.13,3a23.72,23.72,0,0,1-3,5.45c-21.68-17.12-37.39-29.16-38-29.36-2-.64-8.56-2.14-20.21-4s-12,.76-15.08,1.25-8.7,2.65-11.07,3-2.88-.78-2.88-.78-6.48,5.05-9.83,5.35-4.07-1.16-5.29-1.16-2.7,1.72-5.68,2.83-3.91.16-10.31.72a20.21,20.21,0,0,1-10.24-1.36,13,13,0,0,0-6-.55,22.22,22.22,0,0,1-10.1-1c-4.11-1.27-13-1.41-15.75-.95s-1.5.65-1.84,1.83-1.8,2.23-3.81,4.26a24.47,24.47,0,0,1-7,4.38c-1.2.44-2.5.26-4.76.68s-3.9,2.36-6.09,2.63-1.55.71-3,1.19a19.15,19.15,0,0,0-4.73,1.81c-1.72,1.06-.45,1-1.55,1.73s-4.47.39-4.78.57-3.36,1.37-5.13,2.3-6.44,1.79-9.29,2.6-2.55,2.59-3.18,3.43-3,6-3.75,6.22-1.73.15-4.3.86-.67.84-1.57,1.14-10.09,1.52-10.77,2.17a11.23,11.23,0,0,1-2.81,2.62c-1.55.88-5.45-1.3-7.94-1.82s-5.78-3.42-8-4.85-3.34-3.41-4.83-5.21-4.75-3.43-9.53-5.61-13.48-6.67-16.67-6.68S26.94,819.57,21.76,818a33.42,33.42,0,0,0-12.42-.91c-2.69.16-3.7.84-6.92,3.42a16.15,16.15,0,0,1-2.86,1.93v450.39c38.21-6.31,86.52-14.66,149.73-25.16,212.66-35.33,187.76-75.82,228.66-96,17.61-8.69,35.44-44.65,49.75-84.08,115.2-8.93,208.71-15.41,249-52.58,9.75-9,19.6-26.7,27.5-48.84a235.87,235.87,0,0,0,50.14,23.69c60.23,20.08,44.88,70.86,165.34,24.8A263,263,0,0,0,1002.79,963c-2.67,25.94-4.6,46.12-4.6,50.44,0,14.17-43.7,54.33,50.78,81.49s251.56,72,400.36,55.51c63.22-7,130.91-16.61,186.78-27.48Z"/><path class="cls-4" d="M62.53,712.53c1-1.23,2.78-2,3.56-2.67s.35-1.3,1.46-1.66a2.49,2.49,0,0,1,2.34.31,2.84,2.84,0,0,0,1.62.59c.82.08,1.32.94,2.87.72s1.85-.77,1.9-1.19-.07-.81,1-.84,1.94.55,2.52.46,1.28,0,1.42-1.07-.42-1.39.12-2.1,4-.81,4.21-1.16.4-2.12,1.31-3a4.72,4.72,0,0,1,3-.93c.53-.06-.66-2.3.92-3.3s1.85-1,2.13-2.3,4.12-2.93,5.21-3.12,3.67,1,4.35,1.46,1.31,2,1.79,2.6,2,1.06,2.6.5,1.47-2.44,2.4-3.29,1.31.59,2.42.91,5.47,1.82,6.47,3,1.52,2.8,4.93,2.74,3.36-.5,4.56-.49,3-.05,6,2.77,2.1,4.94,4.87,7,1.39,1,4,2.2,2.3.26,3.68,2.93,2.94,3.37,4.63,3.21a3.72,3.72,0,0,1,3.28,1.5c.15.42,3,1.36,3.24,2.56s-.07,2.49.22,3.35.68,2.07,1.49,2.19S164,726,164.33,724s7.15-1.19,8.65-.58,3,3.66,4.26,3.52,5.64-.88,8.31.21,4.13,1.27,5.4,1a5.77,5.77,0,0,1,3.91.49,8.69,8.69,0,0,0,4.18.89c1.1-.13,3.34-.42,4,.1s1.06,1.27,2.09,1.2,1.16-.85,1.88-1,2.27-.71,3,.47,3.25,2.79,3.87,2.48,1.88-.42,2.07.22,2.92,1,5.1,1.62,2.68.3,4.44-.32,3.16-1.21,3.07-2.1.32-1.75,1.29-1.58a33.9,33.9,0,0,1,6.44,2.17c2.61,1.17,2.2,2.22,4.38,1.38s1.64-1.27,3.17-1.93,2.39-.06,3.64-1,8.36-6.4,10.38-6,3.22,1.21,3.77,3-.45,3.69,2.26,4.17,2.07,1.5,3.54,2.13a17.12,17.12,0,0,0,8.42.49c3.41-.62,8.24-2.55,9-2.23s1.66,1.72,3.27,1.88,3.35.29,4.31-.26,1-2.21,2.8-1.94,2.86,2.11,3.76,2.09-.29-3.63,1-3.79a19.74,19.74,0,0,0,4-1c1.34-.47.24-2.82.24-2.82a20,20,0,0,1,4.12-2.1c2.39-.88,1.21-2,3.19-2.68a7.19,7.19,0,0,1,4.23-.25c1.76.2,2,.69,3.25,1.36a55.72,55.72,0,0,0,5.4,2.47,2.74,2.74,0,0,1,2.15,3.14c0,1.81-.8,3,1.52,3.4s4.17.22,4.8,1.23.18,1.39,3.43,1.55,2-.73,7.24-.19,5.83.29,6.56,1.81,5.94,7.92,11.24,9.81,6.85,2.58,10.33,3.6,4.84.62,6.88,2.35c.42.36,2.77,2.58,6.23,5.9a15.85,15.85,0,0,0,5.14.19c.8-.12,1-.64,1.78-1.19s1.25,0,3.06.27a14.52,14.52,0,0,0,4.08.2c1.31-.18.8-.55,3.19-.62s2.73.94,5.83,1.64,3.82,1.28,6.36,2.63,2.68,1.81,5.31,3.64,8.5,7.24,9.53,7.94a3.23,3.23,0,0,1,1.49,2c.17.62,2.42,1.78,3.14,2.36s3.19,1.34,3.82,2.39,6.52,6.77,6.52,6.77.89-.33,4.83-.16,2.35.49,4.22.09,3.43-.24,8.49.31,7.57,2,9.82,2.59,8.36,3.41,12.17,4.73,2.5,1.49,4.41,2.48a6.25,6.25,0,0,0,4.68.37c1.22-.28,2.72-.55,3.69-.75s2.5.92,3.57,1.36a3.41,3.41,0,0,0,3.09,0c1.1-.54,4.15-.2,4.15-.2a29.62,29.62,0,0,1,5.83-1.15c2.4-.11,2.28.63,4.21,1s3.37-1,5.79-1.16,7,.36,8.9-.35,1.49.72,4.06,2.49,6.27,2.8,8,3.59,2,2.7,3.07,5,.95,5.47,5.56,7,2.61,1.64,3.8,2.88,1.86,1.58,4.83,1.94,20.17,1.41,21.17.54,4-.23,6.56-.61,7.26-.78,7.42-.87.81-.81,1.52-1.48.76-.46,2.05-.3,1.75.33,3.32.61a6.36,6.36,0,0,0,4.46-.69c1.17-.77.56.06,2.3.35s2,0,4.19-.05,1.23-.39,2.23-.11,4.36,2.52,4.76,4.27,1.63,1.17,5.17,4.18,3.25,7.67,3.19,9,3.24,2.69,5.29,4.71,2.08,7,3.17,7.84,2.89.07,3.3,0,11,2.76,15.33,3.26,4.23-.22,5.31-.23a14.79,14.79,0,0,1,5.11,1.45c2.19.95,1.61,1.09,2.83,2.5a19.6,19.6,0,0,0,3.31,2.86,21.54,21.54,0,0,0,5.7,3.37c2.39.77,10.9,5.45,11.87,5.26a18,18,0,0,1,4.6-.3,19.27,19.27,0,0,1,3.52,2.38c.69.54,3.8,2.77,5.16,3.91s5.35,3.92,8.95,6.44a74.74,74.74,0,0,1,6.54,5.17c2.25,1.84,1,.88,1.89,2a11.17,11.17,0,0,0,5.49,4,36.21,36.21,0,0,1,9.17,4.51,25.78,25.78,0,0,1,5.95,4.55q1.48,1.32,4.11,3.43a29.92,29.92,0,0,0,4.33,3.18l.52.32c-1.21,1.64-.64,3.33,2.21,5,27.16,16.24,36.61,18.9,25.39,21.26s-178.92,9.45-151.17,16.53S683,964,670,965.17s-142.9,1.18-87.39,8.27,229.71,36,149.4,53.15-157.07,27.16-108.65,46.65c13.83,5.57,17.71,10.35,13.91,14.58a355.39,355.39,0,0,1-41.15,6.56C467.72,1106.85,496,1062,443.23,1026.62c-21.44-14.36-35.92-29-50.41-45.27-13.87,2.46-29.77,4.64-48,6.37-138.06,13.14-252.35,31.55-305.28-2-12.54-8-27.15-26.58-39.95-50.58V736C14.36,723.62,34.87,715.18,62.53,712.53Z"/><path class="cls-5" d="M255.67,758.32c.34,0,.74.09,1.18.15l.36,0a12.05,12.05,0,0,1,4.33.91,44.69,44.69,0,0,1,4.84,1.34c2,0,5.42-.38,7.48-.49a6.43,6.43,0,0,1,3.81.75,5.55,5.55,0,0,1,2.29,2.12,65.82,65.82,0,0,1,7.7.8l1.78.29a5,5,0,0,1,2.27.36l1.49.23c.32,0,.71,0,1.16,0l.22.19c1.73.26,3.17.46,4,.52,1.78.13,5.56.69,6.43.79a19.15,19.15,0,0,1,4.18.74,18,18,0,0,1,3.09,3.42c.56.81,9.93,3.39,12.18,4.5a21.6,21.6,0,0,0,6.43,1.56,19.75,19.75,0,0,0,4.37.25c1.86-.16,1.55-.67,3.78.18a14.83,14.83,0,0,1,4.68,2.53c.76.76.18,1.2,3.65,3.86s13,8,13.27,8.35,1,2.12,2.36,2.3,4.86-3.4,7.73-3.42,6.19,1.3,7.07.31,3.93-4.54,8.56-4.23,5.11,1.59,6.62.6,5.49-.25,6.39.25,0,.1,1.52,1.64,1.52,2,3,3,1.59,0,1.89,1.35a6.36,6.36,0,0,0,2.72,3.6c1.32.89,1.76,1.09,2.8,1.88s1.23.68,1.27,1.64,0,1.94.06,2.12,3.17,3.76,4.71,5.79,4.17,3.68,4.28,5,13.19,12.56,15.56,14.36,3.09,2,4.81,2,.32-1.51,4.73.58,6.55-.27,8.9-1.17,3.85-2.1,5.67-1.43,5.19,2.51,8.27,3,3.8-.78,4.65,1,4.53,4.64,6.14,6.45,1.72,3.77,3.35,4.87,2,.49,3.69,2.24a29.55,29.55,0,0,1,3.38,4.89s2.42,1.88,2.84,3a3.41,3.41,0,0,0,2.25,2.12c1.07.42,2.95.69,3.51,1.51s1.44,2.05,2.13,3.11a6.25,6.25,0,0,0,3.62,3c2.06.63,1.24-.41,4.89,1.3s10,4,12,5.09,4.83,1.86,8.84,5,5.24,4.1,6.3,5.7.16.25,3.09,2.88,3.35,3.48,3.35,3.48,8.21,0,9.39-.31,3.49.86,4.41.95,3.34.82,3.89.5a3.24,3.24,0,0,1,2.44-.38c1.23.21,9.2.42,12.37.94s3.59.29,6.35,1.09,3.68.89,6.39,2.55,3.65,1.17,5.32,2.88,1,1.63,1.86,2.67a14.51,14.51,0,0,0,3.07,2.7c1.46,1.1,2.22,1,2.39,1.94s0,1.45.45,2.1a15.52,15.52,0,0,0,4,3.56c1.78,1,2,.49,4,2.25s2.14,1.85,3,3.16a7.54,7.54,0,0,1,1.19,2.13c1.09,2.24.19,1.79,1.92,3.63s10.91,22.84,10.91,22.84,2,.26,5.41.75c-8,1.43-10.66,2.9-4.89,4.38C655.21,954,683,964,670,965.17s-142.9,1.18-87.39,8.27c26.67,3.4,80.74,11.86,120.82,21.61-29.29,15-73.45,29.31-75.46,36.51-1.75,6.28.53,12.35,1.54,17.43-14,4.27-22.15,8.65-21.14,13.59-9.74.3-23.64-.38-43.36-2.27-92.15-8.87-125.68,10.44-188.13-1a105,105,0,0,0-27.34-1.43,549.51,549.51,0,0,1-25,70.32C161.43,1144.9,13,1170.18,101.91,1228.54c6.93,4.55,15.67,9.59,25.89,15-32.17-.3-73.2-1.45-128.24-2.84V796l.64-.29a33.42,33.42,0,0,1,12.16-2.65c2.69-.22,3.79.31,7.34,2.41s4.27,1.73,7.71,2.39,11.36-9.34,14.77-13.22,1.12-2.57,1.62-4.23,7.3-5.72,9.44-8.64,3.18-6.82,6.43-8.18a80.32,80.32,0,0,0,11.2-6.15c3.79-2.42,9.72-6.11,12.57-6.67s1.93.15,2.88,1.25,5.68.39,7.77.21,1.4.59,3.19,2.19,7.91,2.12,10.05,2,3,0,4.12,1,6,5,7.44,5.07,4,1.26,4.4,2.13a4.85,4.85,0,0,0,4.07,2.74c2.6.3,4.53,1.75,6.88,2.88s10.2,0,17.16-1.15A56.89,56.89,0,0,0,166,765c5-2,5.88-.62,11.23-2.83s14.49-6.85,17.57-8.64,9-1.45,12-2.13,5.78-2.46,8.65-2.76,3.69-.13,4.59.12,2.13,1,4,1.71,4.21-.15,5.9-.25a37.31,37.31,0,0,1,7.33.27c1.28.37,2.49,2.38,4.24,3.17s3.51-.63,4.62-.62,2.67,1.55,3.86,3C251,757.29,253.44,758,255.67,758.32Z"/><path class="cls-6" d="M395.24,841.25c1.47-.55,3.42-.29,4.43-.47s1-.94,2.1-.67a2.5,2.5,0,0,1,1.85,1.46,2.82,2.82,0,0,0,1.09,1.34c.66.48.65,1.48,2.08,2.08a10.46,10.46,0,0,1,2,.19,1,1,0,0,0,.25-.23c.26-.33.35-.73,1.3-.2a5,5,0,0,1,1.25,1.12h0a4.62,4.62,0,0,1,1.87.85,1.36,1.36,0,0,0,.55-.46c.69-.89.35-1.41,1.19-1.74s3.81,1.33,4.21,1.17,1.43-1.61,2.67-1.92a4.72,4.72,0,0,1,3,.72c.49.22.61-2.31,2.48-2.36s2.09.11,3-.88,5-.4,6.07,0,2.63,2.76,3,3.49.09,2.4.2,3.15,1.2,1.95,2,1.77,2.52-1.34,3.75-1.59.82,1.17,1.61,2,3.76,4.37,4,5.89-.13,3.18,2.82,4.88,3.14,1.3,4.17,1.92,2.41,1.39,3.56,4.89c2.62,1.49,3.5,2.21,5.59,3.55,2.45,1.57,1.08.76,2.11,1.82a11.19,11.19,0,0,0,5.91,3.3c3,.62,4.89,1.2,9.63,3.43a25.83,25.83,0,0,1,6.43,3.83q1.62,1.14,4.48,2.93a30.13,30.13,0,0,0,4.67,2.66c2.78,1.33,4.7,1.47,6.59,2.81s1.37.81,4.54,2.49C533,909,541,929.22,538.61,951.39a6,6,0,0,1,2.06-.14c1.65.23,2.08,1.18,3.65,1s10.46-1.2,12,.17,2.14,2.7,1.7,4.5-2.28,2.93-.2,4.73,1,2.35,1.94,3.65a17.12,17.12,0,0,0,7,4.74c.77.29,1.66.56,2.55.81a20.57,20.57,0,0,0,5.41,1.44,2.08,2.08,0,0,1,.88.44c.05.07,2.69.34,7.34.77,55.87,7.16,229.2,36,149.05,53.1-80.31,17.12-157.07,27.16-108.65,46.65,74.16,29.85-134,37.39-314.75,56.66-34.17-20.41-59.55-40.9-72-63.49a107.28,107.28,0,0,0-27-19.77c-23-11.8-39-24.7-55.28-39.17-13.5,4-29,8-47,11.86-38,8.12-74.17,16.43-107.72,23.59V775.52c.59.39.77.89,1.68,1.17a17.15,17.15,0,0,0,8.42-.48c3.32-1,7.89-3.48,8.65-3.25s1.85,1.52,3.46,1.49,3.37-.1,4.25-.75.76-2.32,2.56-2.25,3.08,1.76,4,1.65-.7-3.57.59-3.88A19.63,19.63,0,0,0,37,767.8C38.32,767.18,37,765,37,765a20,20,0,0,1,3.85-2.56c2.27-1.15,1-2.14,2.86-3a7.18,7.18,0,0,1,4.17-.73c1.78,0,2.07.45,3.38,1a55.2,55.2,0,0,0,5.65,1.83,2.74,2.74,0,0,1,2.49,2.87c.16,1.8-.45,3.07,1.9,3.2s4.16-.26,4.91.67.34,1.36,3.59,1.14,1.87-1,7.17-1,5.82-.38,6.72,1,6.82,7.18,12.29,8.45,7.1,1.78,10.68,2.38,4.88.06,7.1,1.54c.46.31,3.05,2.25,6.87,5.14a15.83,15.83,0,0,0,5.13-.4c.78-.22.94-.75,1.63-1.39s1.25-.11,3.08-.09a14.55,14.55,0,0,0,4.07-.27c1.28-.32.73-.63,3.1-1s2.82.62,6,1,3.94.83,6.62,1.88,2.87,1.49,5.7,3,9.27,6.21,10.38,6.79a3.23,3.23,0,0,1,1.7,1.79c.24.6,2.61,1.48,3.39,2s3.33,1,4.07,1.93,7.26,6,7.26,6,.85-.43,4.78-.72,2.39.22,4.21-.4,3.38-.64,8.47-.67,7.75,1.08,10,1.44,8.7,2.43,12.64,3.29,2.65,1.19,4.67,2a6.26,6.26,0,0,0,4.69-.17c1.18-.41,2.64-.86,3.58-1.17s2.59.63,3.7.94a3.42,3.42,0,0,0,3.07-.31c1-.66,4.1-.68,4.1-.68a29.61,29.61,0,0,1,5.66-1.82c2.37-.38,2.33.36,4.3.47s3.24-1.37,5.62-1.82,7-.45,8.8-1.37,1.56.54,4.32,2,6.55,2.06,8.41,2.64,2.31,2.45,3.62,4.59,1.57,5.32,6.34,6.35,2.78,1.33,4.11,2.43,2,1.36,5,1.37,20.19-.92,21.09-1.9,4-.69,6.45-1.36,7.12-1.61,7.26-1.72.72-.9,1.34-1.64.7-.55,2-.53,1.77.12,3.36.22a6.38,6.38,0,0,0,4.35-1.2c1.07-.9.56,0,2.32.08s2-.23,4.15-.54,1.18-.53,2.2-.37,4.62,2,5.22,3.7,1.75,1,5.61,3.56c3.28,2.19,4,5.88,4.14,7.75A151.56,151.56,0,0,1,395.24,841.25Z"/><path class="cls-7" d="M666.8,962.54l-.47-.22c-3.32-1.52-6.82-2.81-10.26-4-9.58-3.34-19.49-6.18-29.31-8.69-2.21-.56-5.24-1.57-5.23-4.37,0-2.15,1.82-3.26,3.59-3.91a35.39,35.39,0,0,1,5.35-1.37c5.8-1.13,11.87-1.82,17.74-2.47,17.67-1.93,35.52-3.2,53.26-4.44,16.7-1.16,33.4-2.21,50.11-3.32,5.92-.39,11.84-.79,17.75-1.27,1.91-.15,3.83-.31,5.74-.51,1-.1,2-.19,3-.39l.87-.19c-2.07-1.44-5.34-3.28-6.29-3.83-7-4-13.94-7.9-20.84-12-2.17-1.3-4.26-3.22-4.21-6,.07-3.89,4.46-6.23,7.55-7.59a91.88,91.88,0,0,1,15.8-4.83c7.2-1.67,14.53-3,21.83-4.15,8.29-1.32,16.62-2.44,25-3.42,15.77-1.86,31.76-3.34,47.62-4.11,5.28-.25,10.7-.47,16-.3a35.89,35.89,0,0,1,4.86.4c1.81.31,3.73,1.06,4,3.18s-1.32,3.22-2.93,3.92c-2.85,1.24-5.76,2.36-8.66,3.46-4,1.54-8.19,3-12.14,4.85a28.27,28.27,0,0,0-5.18,2.93,19.43,19.43,0,0,0,3.47,1.43,86.21,86.21,0,0,0,12.35,2.59c8.17,1.26,16.34,2.81,24.44,4.43q15.86,3.17,31.62,6.89c7.84,1.86,15.66,3.82,23.42,6,6.84,1.89,13.68,3.92,20.38,6.27a89,89,0,0,1,14.58,6.26c2.85,1.64,6.81,4.36,6.48,8.13-.35,4-5,5.72-8.29,6.65a64.12,64.12,0,0,1-8.33,1.69c-3.91.57-7.87,1-11.81,1.25-30.79,2.33-61.62,4.49-92.39,7.12-10.35.88-20.75,1.79-31.06,3l-1.62.2c4.13.48,8.26.92,12.39,1.35,10.46,1.09,20.93,2.1,31.4,3.16,13.27,1.34,26.6,2.67,39.81,4.44,4.41.59,8.94,1.22,13.29,2.15,2.49.53,7.26,1.37,7.16,4.76a3.47,3.47,0,0,1-2.21,3A23.08,23.08,0,0,1,942,982c-2.17.49-4.37.91-6.56,1.31-5.75,1.05-11.51,2-17.26,3.07s-11.48,2.15-17.07,3.66a47.38,47.38,0,0,0-7.25,2.52,46.67,46.67,0,0,0,7.28,2.28c3.45.81,7,1.45,10.46,2,5,.81,10,1.48,15,2.09s10.12,1,15.18,1.43c6.87.53,13.74,1,20.62,1.35,18.1,1,36.22,1.82,54.32,2.58,46.45,1.93,92.91,3.57,139.36,5.6,29.36,1.29,58.73,2.7,88.07,4.48,25.67,1.55,51.38,3.34,77,5.9,10.31,1,20.62,2.2,30.88,3.65,8,1.14,16.12,2.44,24,4.22,5.25,1.18,11.17,2.69,16,5,3.17,1.5,7.08,3.94,7.33,7.84.4,6-8.49,9.94-13,11.8a144.89,144.89,0,0,1-15.51,5.21c-7.4,2.11-14.91,3.91-22.41,5.58-13.89,3.09-27.78,6.39-41.49,10.23a279.29,279.29,0,0,0-28.23,9.22c-5.09,2-11.24,4.72-15.6,8.1-1.43,1.1-4,3.33-3.86,5.38.14,2.41,3.88,4.83,5.69,5.89,5.53,3.22,12.68,5.52,18.81,7.31,9.89,2.89,20.09,5.11,30.2,7.1,13.27,2.62,26.63,4.84,40,6.9,34.48,5.31,69.18,9.62,103.82,13.81,42.18,5.1,84.39,9.94,126.58,15,36.76,4.38,73.47,10.76,109.75,18.09,40.56,8.19,80.9,17.71,120.89,28.3q52.61,13.93,104.5,30.55v94.24H308.28q-30-11.14-59.67-23-30.7-12.29-61-25.55c-17.11-7.53-34.15-15.36-50.84-23.79-6.82-3.44-13.6-7-20.27-10.73-5.47-3.06-10.91-6.26-16.15-9.71-11.48-7.54-30.08-21.48-27.74-37.41,1.95-13.21,17.45-21.9,28.38-26.87a212.21,212.21,0,0,1,28.41-10.19c11.84-3.45,23.9-6.28,36-8.79,29.27-6.1,59.11-10.47,88.75-14.27,33.62-4.3,67.35-7.8,101.09-11,34.46-3.29,69-6.27,103.44-9.35,30.13-2.69,60.32-5.41,90.38-8.84,12.07-1.38,24.14-2.87,36.15-4.67,9.31-1.39,18.69-3,27.86-5.06,3.44-.79,6.88-1.66,10.25-2.71a57.09,57.09,0,0,0,7.42-2.79c1.17-.55,5.06-2.56,5.17-4.12.08-1-1.75-2.58-2.44-3.12-3.11-2.41-7.55-4.35-11.18-5.81-4.1-1.65-8.84-3.78-12.33-6.54-2.45-1.94-4.71-4.65-4.52-8,.34-5.81,8-9.4,12.58-11.33a120.48,120.48,0,0,1,12.42-4.28c5.24-1.54,10.54-2.89,15.85-4.16,13.09-3.13,26.33-5.8,39.52-8.46,15.21-3.07,30.42-6.08,45.59-9.32,4.79-1,10.71-2.43,15.1-4.65.72-.37,3.43-1.88,3.46-2.89,0-.53-.77-1.39-1.11-1.73a22.32,22.32,0,0,0-5.07-3.43,76.85,76.85,0,0,0-8.66-3.81c-3.79-1.43-7.65-2.7-11.52-3.88-9.61-2.92-19.43-5.36-29.22-7.6-11.21-2.56-22.48-4.86-33.77-7q-21.81-4.14-43.76-7.58c-11.51-1.81-23-3.53-34.6-5a109.12,109.12,0,0,1-10.81-1.76c-2.21-.51-5.51-1.36-5.39-4.29.14-3.23,4.43-3.74,6.85-4.09,3.87-.56,7.89-.84,11.8-1.09,11.68-.75,23.45-1.07,35.15-1.37,10.54-.27,21.07-.47,31.61-.71,3.89-.09,7.78-.17,11.67-.29C664.32,962.62,665.57,962.59,666.8,962.54Z"/><path class="cls-8" d="M1919.56,1281.58v42.1H308.28q-30-11.14-59.67-23-30.7-12.29-61-25.55c-17.11-7.53-34.15-15.36-50.84-23.79q-6.45-3.26-12.84-6.66c9.3-11.09,96.52,7.86,96.52,7.86,21.43-42.86-74.28-44.29,87.15-77.14s410-70,381.43-92.86c-10-8-59.13-17.85-56.43-21.79,14.19-20.7,248-31,97.86-79.64-52.86-17.14-77.14-20,10-32.86s78.57-15.71,60-28.57,100,4.28,112.86,12.86S806.17,959.69,804.74,964s90,17.14,81.43,24.29-71.43,20,121.43,34.29,292.86,15.72,272.86,27.14-165.71,45.71-75.71,71.43C1278.62,1142.23,1633.56,1222.05,1919.56,1281.58Z"/><path class="cls-9" d="M1156.58,750.53c-1.8.75-1.52.16-2.76.74s-4.06,1.88-4.7,1.59-1.27-.87-2-.84a3.62,3.62,0,0,0-2.14.4,43,43,0,0,1-4.21,2,4.26,4.26,0,0,1-2.14.22,5.49,5.49,0,0,0-2.7.39c-1.37.4-3.3.75-4.23.23s-2.07-1-2.65-.78-1.21,1.34-2.28,1.29-2.13-.84-2.87-.77a21.09,21.09,0,0,0-3.88,1.39c-.86.4-1.89,1.33-3,1.36s-1.92-.11-2.45-.05a6,6,0,0,0-2.42.89c-1.43.75-2.51,2.26-3.93,3.24s-4.58,2-5.81,3.61-5,5.9-7.36,8.16-3.09,1.71-5.26,3.81a31.88,31.88,0,0,1-6.79,5.16c-3.38,2.07-7.24,4.27-8.7,4.17s-2.77-.45-4.19-.07a2.72,2.72,0,0,1-2.69-.58,4,4,0,0,0-2.74-.19c-.75.26-4.13-.82-4.94-1.09a2.71,2.71,0,0,0-2.35.36c-1.09.51-4.39,1.51-5.66,1s-1.06-1-2.12-.48-3.37,1.89-4.09,1.51-.39-.94-1.76-.05-3.69,4-5.16,6.09a45.21,45.21,0,0,1-4.56,5.54c-1.41,1.39-1.14,3.63-1.65,5.6s-3.2,5.5-3.12,6.47,1-.19,0,2.54-3,9.6-4.94,10-2.23.71-4.51.36-3-.4-4.32.27a18.75,18.75,0,0,0-5.79,3.92,44.59,44.59,0,0,1-6.8,6.06c-1.55.9-4.52,5.52-6.24,7.92s-2.84,4.11-3.07,5.4a12.42,12.42,0,0,1-.89,3.88c-.67,1.31-1.46,3.64-2.53,4.6s-2.35,3.1-3.35,3.11a6.33,6.33,0,0,1-2.1-.49c-.51-.13-5.33,1.85-5.85,2s.37-.49-1.08-.11-1.89.69-2.33.78-3-1.75-3.57-2-.89-1.19-2.51-.78a41.61,41.61,0,0,1-5.25,1.34c-1.12,0-2.94.31-3.14.32s-1.75,1.1-2.49,1.06-.11-.37-1.24-.41a10.77,10.77,0,0,0-2.81.45c-.84.17-.66-.22-1.8.26s-2.48,0-3.7.43a25.2,25.2,0,0,1-2.5,1,13.71,13.71,0,0,1-4.65-.16c-1.55-.42-2.55-.53-3-1s.05-.92-1.41-.38A28.35,28.35,0,0,0,930,866a12.42,12.42,0,0,1-4.62,3.33,7.3,7.3,0,0,0-2.77,1.95,11.32,11.32,0,0,1-4.6,3.53c-3.27,1.52-3.46,2.24-5.22,2.54s-3-.13-3.56.21-.54,1.25-2.25,2-6.28.15-6.28.15.07.68-1.18,1.19-4.59,1-6.22,1.65c-1.44.55-2.32-.3-6,2.34.17.29-.18.65-1.17,1.09l-.56.24a18.73,18.73,0,0,1-5.67,2.29c-17.31,6.7-37.35,12.89-3.22,18.14,38.38,5.9,174.79,35.72,92.71,41.93-58.19,4.4-112.8,8.2-131.68,11.3q-.2,1.92-.4,3.84c26.38,3.65,116.42,10.39,107.87,14.39-8.86,4.13-106.29,13-18.89,23.62,39.35,4.79,171.86,7.66,286.25,13.68a134.2,134.2,0,0,0,18.85-12.83c2.08-1.68,4.06-4.56,5.89-8.42L1685.52,1015c24.09-14.39,50.31-30.09,84.54-46.27l4.46-96c31.9,28.21,48,50.51,83.58,70.38,31.63,17.68,33.91,41.25,61.47,50.45V732.72c-1.84.55-5.42.46-7.36.76-2.13.33-3.31,1.6-5,1.44s-1.68-.82-3.8-.56a26.26,26.26,0,0,0-5.07,1.44s-2.72-.08-3.66.47a3,3,0,0,1-2.74.18c-1-.32-2.41-1.19-3.25-1s-2.15.59-3.21.92a5.54,5.54,0,0,1-4.17,0c-1.76-.74-.61-1-4.08-1.88s-9.08-2.93-11.11-3.31-4.36-1.46-8.87-1.59-5.9-.16-7.53.33-.25.09-3.74.22-4.26.49-4.26.49-5.62-4.64-6.25-5.52-2.87-1.38-3.55-1.84-2.75-1.32-2.95-1.86a2.86,2.86,0,0,0-1.45-1.64c-1-.55-6.53-4.91-9-6.35s-2.62-1.83-5-2.84a17.29,17.29,0,0,0-5.81-1.87c-2.79-.4-3.16-1.27-5.27-1s-1.63.52-2.78.77a13,13,0,0,1-3.62.11c-1.62-.07-2.09-.56-2.73,0s-.79,1-1.49,1.18a13.75,13.75,0,0,1-4.76.16c-1.77-.34-1.62-.77-4-.73a19.53,19.53,0,0,0-2.51.12,25.38,25.38,0,0,1-6-1.94c-1.09-.55-1.16-1.39-2-2.55s-1.82-.53-4.54-1a22,22,0,0,1-6-1.62c-1.81-.87-.9-1.16-4.31-2.38s-4.37.08-9.15-.37-6.1.05-10.38.81-4.7,1.35-9.35,2.75-15.62,6.43-17.43,7a4.89,4.89,0,0,0-3.06,2.15c-.54.81-4.32,1.42-5.62,1.92s-5.22.43-6.62,1.65-12.56,6.68-12.56,6.68-1.13-.89-6.87-2.5-3.62-.39-6.12-1.85-4.83-2-12.36-3.54-11.82-.72-15.34-.88-13.63,1-19.73,1.1-4.3,1-7.51,1.5a9.46,9.46,0,0,1-6.91-1.66c-1.63-1-3.65-2.07-5-2.8s-4,.15-5.77.29a5.17,5.17,0,0,1-4.46-1.38c-1.34-1.29-5.88-2.23-5.88-2.23a44.7,44.7,0,0,0-7.85-4.39c-3.41-1.28-3.57-.17-6.51-.58s-4.39-3-7.79-4.39-10.27-2.77-12.64-4.67-2.48.33-7,1.69-10.34,1.09-13.26,1.4-4.16,2.94-6.75,5.73-3.92,7.42-11.31,7.53-4.53,1.13-6.82,2.37-3.42,1.41-7.85.53-29.68-7.42-30.72-9.14-5.71-2.22-9.15-3.95-10.08-4.52-10.26-4.72-.8-1.55-1.49-2.84-.88-1-2.81-1.39-2.67-.35-5.06-.68a9.65,9.65,0,0,1-6.09-3.08c-1.32-1.66-.83-.18-3.47-.58s-2.95-.95-6-2-1.6-1.14-3.16-1.21-7.45,1.58-8.85,3.92-2.89.93-9.39,3.59-8.27,9.51-8.81,11.44-5.92,2.35-9.82,4.3-6.3,9.16-8.23,9.79-4.19-1.26-4.74-1.56-17.11-1.19-23.59-2.49-6-2.29-7.53-2.81-4.44-.65-8-.32-2.83.82-5.25,2.27a29.84,29.84,0,0,1-6.1,2.57c-1.25.45-6,2.18-9.77,2.17s-18.24,2.73-19.55,2-5.25-2.54-6.48-2.59-4.93,1.34-6.18,1.78-6.76,2.2-9.26,3.2-9.54,3.14-15.89,5.08a113.53,113.53,0,0,0-11.83,4.37c-4.1,1.6-1.83.81-3.67,2.07a16.94,16.94,0,0,1-9.76,3.12c-4.7,0-7.62.32-15.31,2.2s-8.86,2.94-10.69,3.75-4.33,1.81-7.52,3a45.59,45.59,0,0,1-7.72,2.55c-4.53,1.13-7.42.77-10.61,2.19s-2.27.79-7.49,2.34q-2.07.87-4.05,1.8C1162.56,752.53,1159.63,751.46,1156.58,750.53Z"/><path class="cls-10" d="M1919.56,1258.17c-57.89-11.74-112.1-26.41-143-33.76-49.6-11.81-69.68-20.08-131.09-18.9s-59.05,7.09-87.39-3.54-31.89-14.17-41.34-11.81c-5.69,1.42-10.52,5-18.87,6.82.23-2.19.48-4.31.74-6.36-.62,1.94-1.24,4.16-1.79,6.58-1.26.25-2.6.45-4,.61q-.11-1.06-.26-2.06-.12,1-.25,2.11l-1.14.1q.29-2.64.61-5.13c-.5,1.57-1,3.31-1.46,5.19q-1.21.07-2.51.09c0-.37,0-.73,0-1.09q-.12.53-.24,1.09c-1.63,0-3.36,0-5.2-.14l-.42-1c0,.31,0,.62.06.93l-.88-.07q.27-1.9.57-3.73c-.63,1.12-1.24,2.33-1.82,3.62h0q.31-2.81.64-5.45c-.52,1.61-1,3.41-1.51,5.36l-1.48-.17,0-.76c-.05.24-.11.49-.16.74l-1.38-.18c.35-4,.78-7.82,1.22-11.4a87,87,0,0,0-2.73,11.18l-1.19-.18q.15-1.28.31-2.52c-.25.77-.5,1.59-.74,2.45l-1.18-.19c-.11-2-.3-3.89-.55-5.61-.2,1.76-.42,3.56-.68,5.41l-1-.18c.28-2.83.6-5.55.92-8.15-.74,2.31-1.46,5-2.1,7.95l-1.94-.35q0-1.73.11-3.4c-.23,1-.46,2.13-.66,3.3h-.06a218,218,0,0,1,1.94-34,89.43,89.43,0,0,0-3.17,13.85c0-3.28.1-6.42.21-9.41a93.3,93.3,0,0,0-1.62,29.1l-.36-.07a206.66,206.66,0,0,1,1.66-39.87,87.63,87.63,0,0,0-2.82,11.68c-.71,2.32-1.4,5-2,7.88.34-3.89.76-7.6,1.2-11.09-.64,2-1.27,4.26-1.83,6.74a65.1,65.1,0,0,0-.63-10.1c-.59,5.11-1.36,10.63-2.56,16.38.35-7,1-13.44,1.77-19.3a92.94,92.94,0,0,0-4,22.1c-.2-6.41-.09-12.42.1-17.91a89.64,89.64,0,0,0-2,14.52,48.75,48.75,0,0,0-3.91-14.52,123.29,123.29,0,0,1-.25,23.13c-.06-4.84,0-9.42.19-13.68a88.88,88.88,0,0,0-1.89,13.42,119.5,119.5,0,0,1,1.7-25.72c-.63,1.12-1.25,2.34-1.83,3.64q.31-2.81.64-5.47a86.85,86.85,0,0,0-2.66,10.76c-.17.55-.34,1.11-.5,1.68,0-2.77.1-5.45.19-8a93.21,93.21,0,0,0-1.55,29.68l-.38-.07c-1.07-15.16.18-29,1.62-40.45a87.47,87.47,0,0,0-2.82,11.68c-.71,2.32-1.4,5-2,7.88.34-3.89.76-7.6,1.2-11.09-.64,2-1.27,4.26-1.83,6.74a65.09,65.09,0,0,0-.63-10.1c-.58,5.11-1.36,10.63-2.56,16.38.35-7,1-13.44,1.77-19.3a93.11,93.11,0,0,0-4,22.1q-.05-1.63-.08-3.23l.21-1.72-.23.72c-.06-4.83,0-9.41.19-13.67a89.65,89.65,0,0,0-2,14.52,49.94,49.94,0,0,0-1.37-7.35l.08-.61-.13.41a47,47,0,0,0-2.48-7,139.34,139.34,0,0,1,.33,15.35q-.29,1.41-.54,2.89l-.05.17c0-3.12.1-6.12.2-9-.41,1.84-.8,3.91-1.12,6.15-.3,1-.6,2-.89,3.09a125.88,125.88,0,0,1,1.83-21.55,49,49,0,0,0-5.83,18.32,96.14,96.14,0,0,0-2.13,14.18l-.12,0c-.15-5.94,0-11.53.14-16.67a89.55,89.55,0,0,0-2,14.52,48.76,48.76,0,0,0-3.91-14.52,137.82,137.82,0,0,1,.32,15.68l-.55-.1c0-2.11.1-4.16.17-6.14-.4,1.79-.78,3.8-1.1,6l-.89-.16A132.62,132.62,0,0,1,1412,1167c-.63,1.12-1.25,2.34-1.83,3.64q.31-2.82.64-5.47a86.63,86.63,0,0,0-2.66,10.77q-.26.83-.5,1.68c0-2.77.1-5.45.19-8a89.68,89.68,0,0,0-2,14.73l-.34-.06a239.38,239.38,0,0,1,2-25.51,87.79,87.79,0,0,0-2.82,11.68c-.71,2.32-1.4,5-2,7.88.34-3.89.76-7.6,1.2-11.09-.64,2-1.27,4.26-1.83,6.74a64.92,64.92,0,0,0-.63-10.1c-.58,5.11-1.36,10.63-2.56,16.38.35-7,1-13.44,1.77-19.3a93,93,0,0,0-4,21.75h0c-.18-6.27-.08-12.16.12-17.55a89.65,89.65,0,0,0-2,14.52,48.77,48.77,0,0,0-3.91-14.52,135.86,135.86,0,0,1,.28,16.62l-.52-.09q.05-3.67.18-7.08c-.46,2-.89,4.37-1.23,6.91l-.78-.13a130.56,130.56,0,0,1,1.82-19.07,49,49,0,0,0-5.84,18.41c-34.93-5.78-78.6-11.93-130.24-16.54-56.27-5-116.22-10.81-163.1-11,.34-7.21,1-13.92,1.8-20a89.46,89.46,0,0,0-3.17,13.85c0-3.28.1-6.42.21-9.41a90.39,90.39,0,0,0-2,15.54H1088a236.57,236.57,0,0,1,2-26.37,87.38,87.38,0,0,0-2.82,11.68c-.71,2.32-1.4,5-2,7.88.34-3.89.76-7.6,1.2-11.08-.64,2-1.27,4.26-1.83,6.75a65.11,65.11,0,0,0-.63-10.1c-.58,5.11-1.36,10.63-2.56,16.38.35-7,1-13.44,1.77-19.3a93,93,0,0,0-4,22.1c-.2-6.41-.09-12.42.1-17.91a89.66,89.66,0,0,0-2,14.52,48.77,48.77,0,0,0-3.91-14.52,128.22,128.22,0,0,1,0,20.24h-.3c0-3.79.09-7.4.21-10.81a86.58,86.58,0,0,0-1.68,10.87h-.3a123.28,123.28,0,0,1,1.8-23.18c-.63,1.12-1.25,2.34-1.83,3.64q.31-2.82.64-5.47a86.91,86.91,0,0,0-2.66,10.76c-.17.55-.34,1.11-.5,1.68,0-2.77.1-5.45.19-8a92.6,92.6,0,0,0-2.09,20.77h-.22a223.18,223.18,0,0,1,2-31.62,87.36,87.36,0,0,0-2.82,11.68c-.71,2.32-1.4,5-2,7.88.34-3.89.76-7.6,1.2-11.08-.64,2-1.26,4.26-1.83,6.75a65.11,65.11,0,0,0-.63-10.1c-.58,5.11-1.36,10.63-2.56,16.38.35-7,1-13.44,1.77-19.3a93.13,93.13,0,0,0-4,22.1c-.2-6.41-.09-12.42.1-17.91a89.61,89.61,0,0,0-2,14.52,48.8,48.8,0,0,0-3.91-14.52,123.63,123.63,0,0,1-.25,23.13c-.06-4.84,0-9.42.19-13.68a88.83,88.83,0,0,0-1.89,13.42,119.51,119.51,0,0,1,1.7-25.72,48.06,48.06,0,0,0-5.63,30l-1.3.18c0-2.08.1-4.1.17-6.06-.42,1.85-.81,3.94-1.13,6.2l-2.36.38a46.32,46.32,0,0,0-2.37-6.58c.16,2.23.29,4.54.36,6.93l-1.94.37c.34-3.56.81-7,1.33-10.16-.63,1.12-1.25,2.34-1.83,3.64q.31-2.82.64-5.47a86.75,86.75,0,0,0-2.66,10.76q-.26.83-.5,1.68c0-2.77.1-5.45.19-8a83.46,83.46,0,0,0-1.43,8.47l-.67.16c.35-7,1-13.56,1.78-19.47a87.56,87.56,0,0,0-2.82,11.68c-.71,2.32-1.4,5-2,7.88.34-3.89.76-7.6,1.2-11.09-.64,2-1.27,4.26-1.83,6.75a65.12,65.12,0,0,0-.63-10.1c-.58,5.09-1.35,10.59-2.54,16.32h0c.35-6.94,1-13.4,1.77-19.25a92.43,92.43,0,0,0-3.89,20l-.21.08c-.12-5.65,0-11,.16-15.89a89.63,89.63,0,0,0-2,14.52,48.74,48.74,0,0,0-3.91-14.52,131.84,131.84,0,0,1,.17,18.39l-.44.24c0-3.2.1-6.27.2-9.19a85.5,85.5,0,0,0-1.6,10l-.4.25a124.32,124.32,0,0,1,1.81-22.55,48.55,48.55,0,0,0-6.05,25.87,16.2,16.2,0,0,0-4.84,15c7.08,43.7-24.8,43.11-49,49s-26,3.54-36.61,13-16.54,13.58-21.26,20.67-25.39,18.9-39,22.44c-2,.53-5.17,1.46-9.11,2.69.23-2.23.49-4.38.75-6.46-.64,2-1.27,4.29-1.84,6.8l-1.21.38q0-1.39.09-2.74c-.21.91-.41,1.88-.59,2.9l-1.17.37c.37-5,.9-9.73,1.44-14.11a87.56,87.56,0,0,0-2.82,11.68q-.46,1.49-.9,3.16l-.66.21q.36-3.4.76-6.58c-.64,2-1.27,4.26-1.83,6.74a64.93,64.93,0,0,0-.63-10.1c-.4,3.49-.89,7.18-1.54,11l-.69.23c.38-5,.9-9.75,1.45-14.14a89.88,89.88,0,0,0-3.3,14.75l-.85.28c0-3.8.09-7.42.21-10.84a87.35,87.35,0,0,0-1.73,11.35l-.64.22a48.25,48.25,0,0,0-3.49-11.56c.28,3.95.47,8.16.41,12.6l-.57.2q0-1.71.11-3.35c-.25,1.11-.49,2.3-.71,3.56l-1.22.42a136.94,136.94,0,0,1,1.74-16.28c-.63,1.12-1.25,2.34-1.83,3.64q.31-2.82.64-5.47a86.93,86.93,0,0,0-2.66,10.77q-.26.83-.5,1.68c0-2.77.1-5.45.19-8a90.11,90.11,0,0,0-2,15.18l-.33.11a237.22,237.22,0,0,1,2-26.13,87.46,87.46,0,0,0-2.82,11.68c-.71,2.32-1.4,5-2,7.88.34-3.89.76-7.6,1.2-11.09-.64,2-1.27,4.26-1.83,6.75a65.14,65.14,0,0,0-.63-10.1c-.58,5.11-1.36,10.63-2.56,16.38.35-7,1-13.44,1.77-19.3a93,93,0,0,0-4,22.1c-.2-6.41-.09-12.42.1-17.91a89.69,89.69,0,0,0-2,14.52,48.78,48.78,0,0,0-3.91-14.52,123.52,123.52,0,0,1-.25,23.13c-.06-4.84,0-9.42.19-13.68a88.65,88.65,0,0,0-1.89,13.42,119.53,119.53,0,0,1,1.7-25.72,48.05,48.05,0,0,0-5.63,30c-15.24,5.7-28.54,11.26-32.43,14.42-.82.67-1.72,1.49-2.66,2.43h1149.5v-65.52Zm-855-104.27-.31,0q.08-1.95.2-3.85c0,1.27,0,2.54.11,3.83Zm-3.64.24h-.14l.17-.59c0,.19,0,.39,0,.58Zm-5,.4-.2,0c.05-.36.09-.71.13-1.07,0,.35,0,.7.07,1.05Zm364.46,29c0,.21.06.42.09.63l-.17.83q0-.73.08-1.46Zm40.44,9.37-.24-.55q.08,1.16.15,2.36l-.94-.18q0-.81,0-1.62.25-1.74.52-3.42l-.48.87q.09-3.7.31-7.24a78,78,0,0,0,.65,9.77Zm-4.23,1-.95-.18q-.08-1.78-.12-3.53c.43-1.19.8-2.39,1.14-3.59-.12,2.39-.16,4.83-.07,7.3Zm-5.39-1-.75-.14a44.14,44.14,0,0,0,1.15-6.19q.12,2.08.34,4.2-.36,1.07-.75,2.14Zm-11.39-2.21-1.39-.27c0-4.13.13-8.12.37-12a75.64,75.64,0,0,0,1,12.23Zm-4.58-.88-.94-.18q-.1-2.06-.14-4.09c.43-1.19.8-2.39,1.14-3.59C1435.17,1184.46,1435.14,1187.1,1435.25,1189.76Z"/><path class="cls-11" d="M86.53,800.75c1.83,1.28,5.65,2.68,10.38,4.16a3.56,3.56,0,0,0,.74-.4,2.49,2.49,0,0,1,2.35-.28c1.11.36.67,1,1.45,1.67a8.18,8.18,0,0,0,.93.66c3.5,1,7.24,2.08,10.9,3.15a125.24,125.24,0,0,1,34.33,10.14c2.51-1.54,4.64-3,7.79-2.25,3.72.92,17.87-.38,23.71,5.48s7.45,10.51,12.9,15,5,7.6,7.46,15.27,5.89,11.15,12.32,17.18,14.64,8.31,15.62,19.73,6.13,19.1,10.55,28.06,12.11,21.13,20.7,28.73,15.72,15.37,29.75,17.57,27.9-2.5,36-1.27,13.75,5.09,17.33,2.37,33.6-5.2,37.47-7.25,23.2-16.2,31.63-14.3,25.67,7.11,30.6,14,21.75,18.8,26.47,22.15,3.89,2.72,5.56,12.33,9,32.93,15.36,37.24,14.65,5.6,19.07,10.66,8.27,11.15,14.33,15.43,28.31,8.43,32.62,7,11.37-6.87,28.16.63c7,3.14,24.87,6.55,44,11.34,104.39,47.52-532,37-551.21,117.65-25.53-18.67-51.48-38.27-76.23-57.7V817.76c1.79,0,3.37.37,3.51,1.31.29,2,4.42,2.5,5.23,2.4s1.21-1.31,1.51-2.17,0-2.16.25-3.35,3.11-2.11,3.27-2.53a3.72,3.72,0,0,1,3.29-1.47c1.69.18,3.25-.5,4.67-3.16S22.37,807,25,805.89s1.23-.14,4-2.16,1.85-4.15,4.94-6.94,4.84-2.71,6-2.71,1.15.45,4.56.54,3.94-1.53,5-2.69,5.39-2.61,6.5-2.92,1.5-1.74,2.43-.89,1.8,2.75,2.37,3.31,2.12.11,2.61-.47,1.13-2.15,1.81-2.58,3.28-1.62,4.37-1.41,4.91,1.85,5.18,3.18.54,1.31,2.11,2.32.35,3.24.89,3.31a4.72,4.72,0,0,1,3,1c.9.91,1,2.68,1.28,3s3.26.46,4.07,1.08Z"/><path class="cls-12" d="M1477.81,740.48c-3.29,1.12-2.73.11-5,1-1.09.42-2.83,1.1-4.48,1.62-1,.22-2,.48-3,.74a1.94,1.94,0,0,1-1.06-.08c-1.1-.6-2.16-1.7-3.52-1.72a6.43,6.43,0,0,0-3.86.46c-2.2.85-6,2.65-7.71,3a7.64,7.64,0,0,1-3.83.14c-1-.33-2.37-.19-4.84.37s-6,1-7.55-.08-3.56-2-4.61-1.7-2.3,2.24-4.2,2-3.68-1.74-5-1.7a37.29,37.29,0,0,0-7.05,2c-1.58.61-3.52,2.15-5.53,2.06s-3.41-.42-4.34-.38-1.77.13-4.4,1.31-4.73,3.73-7.37,5.31-8.38,3.09-10.76,5.75-9.62,9.9-14,13.66-5.69,2.68-9.8,6.17a56.88,56.88,0,0,1-12.66,8.39c-6.25,3.29-13.37,6.76-16,6.42s-4.87-1.12-7.44-.6a4.84,4.84,0,0,1-4.71-1.34c-.66-.69-3.48-1-4.85-.66s-7.24-1.94-8.65-2.51-2.22-.41-4.21.36-8,2.18-10.18,1.21-1.77-1.92-3.71-1.1-6.22,3-7.45,2.21-.59-1.71-3.12-.29-7,6.76-9.89,10.24a80.37,80.37,0,0,1-8.74,9.32c-2.67,2.3-2.46,6.33-3.58,9.78s-6.33,9.42-6.29,11.14,1.81-.23-.23,4.52-6.47,16.71-9.94,17.15-4,1-8.07.12-5.24-1.06-7.73,0a33.45,33.45,0,0,0-10.74,6.3c-4,3.67-9.94,8.56-12.8,10s-8.67,9.29-12,13.36-5.53,7-6.08,9.24-.69,4.54-2,6.81-3,6.31-5,7.88-4.54,5.24-6.32,5.14a11.23,11.23,0,0,1-3.67-1.11c-.9-.28-9.69,2.68-10.63,2.81s.71-.83-1.91-.33-3.45,1-4.23,1.13-5.18-3.46-6.11-3.93-1.45-2.21-4.37-1.67-7.48,1.83-9.48,1.77-5.26.22-5.62.2-3.24,1.75-4.54,1.6-.14-.68-2.16-.87a19.12,19.12,0,0,0-5,.47c-1.52.21-1.15-.47-3.22.26s-4.41-.29-6.62.33-3.29,1.36-4.57,1.49a24.48,24.48,0,0,1-8.25-.82c-2.7-.93-4.48-1.23-5.3-2.14s.2-1.62-2.46-.83-10.59,4.85-13.72,7.81A22.22,22.22,0,0,1,1053,925a13,13,0,0,0-5.15,3.14,20.19,20.19,0,0,1-8.58,5.74c-6,2.32-6.41,3.59-9.57,3.9s-5.25-.58-6.35,0-1.1,2.17-4.23,3.38-11.18-.46-11.18-.46,0,1.21-2.24,2-8.28,1.31-11.25,2.22c-.19.06-1.4.14-3.47.24-4,1.49-10.93,2.7-21.57,3.5-82.08,6.2-157.08,11.22-134.64,14.76S954,974,945.15,978.17s-106.29,13-18.89,23.62,634.2,11.81,421.62,59.05c-182.46,40.55-67.37,58.47,131.7,82.16h317.16V814.73c-1-.61-2.33-1.34-4.2-2.36-4.46-2.45-7.33-2.73-9.52-3.51s-8.81-2-12.68-3.11-2.9-.21-5-.5a6.26,6.26,0,0,1-4-2.38c-.84-.93-1.91-2-2.59-2.73s-2.58-.69-3.7-.93a3.41,3.41,0,0,1-2.55-1.73c-.6-1.08-3.29-2.55-3.29-2.55a29.56,29.56,0,0,0-4.11-4.29c-1.91-1.46-2.23-.79-4-1.62s-2.19-2.74-4.08-4.27-6-3.73-7.09-5.39-1.63-.27-4.76-.28-6.74-1.31-8.65-1.67-3.2,1.05-5.37,2.32-3.91,3.93-8.6,2.58-3.08-.16-4.77.18-2.43.23-5.07-1.18-17.33-10.41-17.65-11.7-3.18-2.51-5-4.26-5.5-4.8-5.57-5-.2-1.13-.39-2.08-.36-.81-1.51-1.42-1.62-.73-3.06-1.41a6.38,6.38,0,0,1-3.26-3.12c-.52-1.3-.49-.27-2.08-1s-1.68-1.17-3.4-2.45-.79-1-1.76-1.37-5-.44-6.35.77-2,0-6.63.46-7.06,4.42-7.77,5.53-4.2.34-7,.82-5.75,4.57-7.09,4.6-2.41-1.6-2.69-1.9-10.59-4-14.43-6.13-3.34-2.6-4.22-3.23a14.82,14.82,0,0,0-5-1.75c-2.34-.48-1.95,0-3.75.42a19.7,19.7,0,0,1-4.35.45,21.58,21.58,0,0,1-6.6-.51c-2.4-.74-12.06-1.79-12.74-2.51a18,18,0,0,0-3.59-2.89,19.21,19.21,0,0,0-4.25-.06c-.88,0-4.69.09-6.47.24s-6.63.14-11,.14a75.64,75.64,0,0,0-8.32.48c-2.9.22-1.31.16-2.72.6a11.18,11.18,0,0,1-6.77.09c-3-.9-4.88-1.27-10.1-1.56a25.71,25.71,0,0,0-7.48.31q-2,.24-5.33.45a30,30,0,0,1-5.37.12c-3.08-.16-4.84-.94-7.13-.66l-.52.06C1480,741.39,1478.94,740.91,1477.81,740.48Z"/><path class="cls-13" d="M1890.51,788.11c-3.21,1.33-2.72.29-4.93,1.31s-7.23,3.36-8.37,2.83-2.27-1.55-3.62-1.49a6.44,6.44,0,0,0-3.82.71c-2.14,1-5.83,3-7.5,3.48a7.62,7.62,0,0,1-3.81.38c-1-.26-2.38,0-4.81.69s-5.89,1.35-7.54.41-3.68-1.79-4.71-1.39-2.15,2.38-4.06,2.29-3.79-1.5-5.11-1.37a37.22,37.22,0,0,0-6.91,2.47c-1.54.71-3.37,2.38-5.39,2.42s-3.43-.2-4.36-.09-1.76.24-4.31,1.59-4.48,4-7,5.77-8.16,3.63-10.36,6.43-9,10.5-13.11,14.55-5.5,3-9.38,6.79a57,57,0,0,1-12.09,9.19c-6,3.69-12.9,7.61-15.51,7.44s-4.93-.81-7.46-.12a4.84,4.84,0,0,1-4.79-1c-.71-.65-3.54-.8-4.88-.34s-7.36-1.47-8.79-1.94-2.24-.26-4.18.64-7.82,2.7-10.08,1.87-1.9-1.81-3.77-.85-6,3.36-7.3,2.69-.69-1.67-3.13-.09-6.58,7.21-9.2,10.86a80.28,80.28,0,0,1-8.12,9.87c-2.52,2.47-2,6.48-2.93,10s-5.7,9.81-5.55,11.53,1.79-.35.07,4.53-5.37,17.1-8.81,17.76-4,1.27-8,.64-5.29-.72-7.71.48a33.45,33.45,0,0,0-10.31,7c-3.71,3.92-9.37,9.19-12.12,10.79s-8,9.84-11.11,14.11-5.07,7.31-5.47,9.61-.4,4.58-1.59,6.92-2.6,6.5-4.5,8.19-4.19,5.53-6,5.54a11.24,11.24,0,0,1-3.74-.87c-.92-.23-9.49,3.31-10.42,3.49s.65-.87-1.93-.21-3.37,1.24-4.15,1.4-5.39-3.11-6.35-3.52-1.59-2.11-4.47-1.39-7.35,2.31-9.35,2.39-5.23.56-5.6.56-3.12,2-4.43,1.89-.19-.67-2.21-.73a19.14,19.14,0,0,0-5,.8c-1.51.31-1.18-.39-3.2.47s-4.42,0-6.59.76-3.2,1.57-4.46,1.79a24.49,24.49,0,0,1-8.29-.28c-2.75-.76-4.55-.94-5.43-1.79s.1-1.63-2.51-.67-10.25,5.53-13.18,8.68a22.21,22.21,0,0,1-8.23,5.94,13,13,0,0,0-4.94,3.47,20.19,20.19,0,0,1-8.19,6.28c-5.83,2.7-6.16,4-9.29,4.52s-5.28-.24-6.34.38-1,2.24-4,3.65-11.19.27-11.19.27.11,1.21-2.11,2.12-8.18,1.84-11.08,2.95-4.53-1-13.69,6.44c-5.2,4.21-9,7.51-11.65,9.85,3.23,5.79-10.5,12.71-48.17,21.07-212.58,47.24-21.26,63.77,236.2,94.48,95.62,11.41,224.78,41.38,335.48,77.1V799.81A180.35,180.35,0,0,0,1890.51,788.11Z"/><path class="cls-14" d="M4.86,1120.45c3.37,1.26,2.63,1.22,4.88,1.75s3.63,1.86,6.47,3.07a30.12,30.12,0,0,0,5.09,1.73q3.23,1,5.16,1.41a25.81,25.81,0,0,1,7.13,2.28c4.8,2.07,6.47,3.07,8.95,4.94a11.19,11.19,0,0,0,6.39,2.24c1.47.07,0-.42,2.76.37a75.4,75.4,0,0,1,8,2.41c4.12,1.51,8.68,3.18,10.4,3.65s5.32,1.73,6.16,2a19.11,19.11,0,0,1,4,1.52,18,18,0,0,1,2.38,3.95c.4.91,9.1,5.21,11.11,6.73a21.49,21.49,0,0,0,6,2.75,19.61,19.61,0,0,0,4.24,1.08c1.85.2,1.64-.36,3.67.89a14.8,14.8,0,0,1,4.11,3.37c.61.89,0,1.21,2.85,4.48s11.28,10.33,11.45,10.71.6,2.28,1.88,2.71,5.41-2.41,8.24-1.89,5.84,2.45,6.89,1.64,4.71-3.71,9.2-2.53,4.72,2.53,6.38,1.85,5.43.79,6.23,1.45,0,.1,1.18,1.9,1.12,2.2,2.35,3.46,1.56.29,1.6,1.69a6.38,6.38,0,0,0,2,4c1.13,1.13,1.52,1.41,2.4,2.37s1.08.9.93,1.85-.36,1.91-.35,2.09,2.4,4.3,3.53,6.58,3.39,4.4,3.25,5.73,10.57,14.83,12.56,17.05,2.65,2.59,4.35,2.85.6-1.42,4.54,1.47,6.48,1,9,.53,4.17-1.33,5.84-.33,4.62,3.45,7.55,4.54,3.88,0,4.37,1.9,3.57,5.41,4.81,7.5,1,4,2.36,5.42,1.91.87,3.2,2.9a29.62,29.62,0,0,1,2.39,5.44s2,2.3,2.21,3.52a3.41,3.41,0,0,0,1.8,2.51c1,.62,2.76,1.24,3.16,2.15s1,2.29,1.5,3.45a6.25,6.25,0,0,0,3,3.63c1.9,1,1.3-.17,4.55,2.2s9.05,5.79,10.84,7.28,4.39,2.74,7.74,6.57,4.37,5,5.11,6.79.1.28,2.49,3.41,2.63,4.05,2.63,4.05,8.06,1.56,9.28,1.47,3.26,1.51,4.15,1.77,3.12,1.44,3.73,1.23a3.23,3.23,0,0,1,2.47.09c1.17.44,9,2.16,12,3.27s3.47,1,6,2.27,3.45,1.57,5.79,3.71l.38.33H-.44V1119.33C1.31,1119.64,3.06,1120,4.86,1120.45Z"/></g><g id="stars"><circle class="cls-15" cx="678.13" cy="119.79" r="37.9"/><circle class="cls-16" cx="774.8" cy="162.62" r="37.9"/><circle class="cls-17" cx="809.95" cy="209.86" r="37.9"/><circle class="cls-18" cx="854.99" cy="268.44" r="37.9"/><circle class="cls-19" cx="991.14" cy="324.32" r="47.69"/><circle class="cls-20" cx="1239" cy="95.66" r="88.44"/><circle class="cls-21" cx="925.61" cy="374.12" r="37.9"/><circle class="cls-22" cx="838.52" cy="325.8" r="37.9"/></g></svg>