<svg id="Layer_1" data-name="Layer 1" xmlns="http://www.w3.org/2000/svg" viewBox="0 0 288 288"><defs><style>.cls-1{fill:#fefefe;opacity:0.5;}.cls-2{fill:#0e0e0e;}</style></defs><title>Artboard 1</title><path class="cls-1" d="M37.35,288.41c.88-7.48,1.51-15,3.14-22.37a153.34,153.34,0,0,1,8.84-27.58,123.78,123.78,0,0,1,16.23-27.38c10.58-13.53,23.3-24.51,39-31.87,2.82-1.33,5.67-2.55,8.56-3.7.53-.21,1.33-.33,1.33-1.11,0-.63-.65-.85-1.12-1.11A62.68,62.68,0,0,1,88.2,146.93a63.81,63.81,0,0,1-6.72-35.19,62.27,62.27,0,0,1,6.23-22.25,64.71,64.71,0,0,1,44.49-34.8,61.4,61.4,0,0,1,23.9-.55c19.45,3.4,34.34,13.55,44.81,30.17A63.89,63.89,0,0,1,205,143a63.81,63.81,0,0,1-26.85,30.33c-.52.31-1.32.55-1.26,1.23.07.89,1,1,1.7,1.3a104.82,104.82,0,0,1,39.21,26.42A124.22,124.22,0,0,1,240.54,236a143.53,143.53,0,0,1,12.65,49.34c.08,1,.25,2.06.37,3.09Z"/><path class="cls-2" d="M1.24.41v288c-.26-.17-.88.4-.83-.42,0-.48,0-1,0-1.45Q.41,144.41.47,2.28C.47,1.75-.55.36,1.24.41Z"/></svg>